<svg id="Ebene_1" data-name="Ebene 1" xmlns="http://www.w3.org/2000/svg" viewBox="0 0 32 32"><title>icon</title><g id="Clipped"><path id="Shape" fill="#fbe400" d="M22.39,10.09a3.2,3.2,0,0,1,3.25,3.45v11a3.19,3.19,0,1,0,6.36,0V11.79C32,6.67,28.7,4,24.58,4c-3.25,0-5.87,1.31-6.43,2.41L18,6.67l-.12-.27C17.27,5.16,14.87,4,12,4,9.46,4,7,4.67,6.31,6l-.17.3-.07-.37A2.72,2.72,0,0,0,3.29,4,3.18,3.18,0,0,0,0,7.29V24.56a3.19,3.19,0,1,0,6.37,0v-11a3.24,3.24,0,1,1,6.45,0v11a3.19,3.19,0,1,0,6.37,0v-11a3.15,3.15,0,0,1,3.21-3.45"/></g></svg>