<svg id="Ebene_1" data-name="Ebene 1" xmlns="http://www.w3.org/2000/svg" xmlns:xlink="http://www.w3.org/1999/xlink" viewBox="0 0 32 32"><defs><style>.cls-1{clip-rule:evenodd;}.cls-2{fill-rule:evenodd;}.cls-3{clip-path:url(#clip-path);}</style><clipPath id="clip-path"><polygon class="cls-1" points="18.64 29.5 24 12.54 24 29.5 32 29.5 32 2.5 21.2 2.5 16 16 10.8 2.5 0 2.5 0 29.5 8 29.5 8 12.54 13.4 29.5 18.64 29.5"/></clipPath></defs><title>icon</title><polygon class="cls-2" points="18.64 29.5 24 12.54 24 29.5 32 29.5 32 2.5 21.2 2.5 16 16 10.8 2.5 0 2.5 0 29.5 8 29.5 8 12.54 13.4 29.5 18.64 29.5"/><g class="cls-3"><rect fill="#fbe400" x="-4.44" y="-2" width="40.89" height="36"/></g></svg>