<svg id="Ebene_1" data-name="Ebene 1" xmlns="http://www.w3.org/2000/svg" viewBox="0 0 32 32"><defs><style>.cls-1{fill-rule:evenodd;}</style></defs><title>icon</title><path fill="#fbe400" class="cls-1" d="M6.58,6c4-2.69,7.46-2.64,11.08.16a10,10,0,0,1,8.67-1.86,6.6,6.6,0,0,1,5.58,6.61C32,15.45,32,20,32,24.57A3.42,3.42,0,0,1,28.57,28a3.46,3.46,0,0,1-3.36-3.58c0-3.48,0-7,0-10.44a2.74,2.74,0,0,0-1.48-2.63,2.55,2.55,0,0,0-2.92.36A2.58,2.58,0,0,0,19.89,14c0,3.27,0,6.53,0,9.8,0,3-2,4.7-4.59,4.08a3.51,3.51,0,0,1-2.62-3.61c0-3.27,0-6.53,0-9.8a3.31,3.31,0,0,0-.8-2.49A2.47,2.47,0,0,0,9,11.21a2.69,2.69,0,0,0-1.81,2.65c0,3.39,0,6.79,0,10.19,0,2.32-1.44,3.92-3.55,4A3.58,3.58,0,0,1,0,24.13C0,19.1,0,14.07,0,9c0-1.83.47-3.3,2.14-4.15C3.56,4.17,4.9,4.51,6.58,6"/></svg>