<svg id="metro-united" xmlns="http://www.w3.org/2000/svg" viewBox="0 0 210 200"><defs><style>.cls-1{fill:#f7a800;}.cls-2{fill:#fff;}</style></defs><title>metro-united-small-inverted</title><g id="M"><path id="path" class="cls-1" d="M207.42,80.68a2.52,2.52,0,0,1,1.28,2.2v113.5a2.42,2.42,0,0,1-2.42,2.42H157.33a2.41,2.41,0,0,1-2.41-2.42V112.87c0-2.07.56-2.74,1.75-3.42l48.22-28.75a2.51,2.51,0,0,1,2.52,0"/><path id="path-2" data-name="path" class="cls-2" d="M208.69.33a2.55,2.55,0,0,0-2.57,0L105,62,3.87.37A2.55,2.55,0,0,0,0,2.55v195A2.45,2.45,0,0,0,2.45,200H52a2.45,2.45,0,0,0,2.45-2.45V90.31l48.09,28.94a5.65,5.65,0,0,0,2.46.89,5.66,5.66,0,0,0,2.45-.89L208.75,58.59c1.09-.64,1.25-1.33,1.25-3,0-.75,0-53,0-53A2.55,2.55,0,0,0,208.69.33Z"/></g></svg>