<?xml version="1.0" encoding="UTF-8"?>
<svg width="426px" height="107px" viewBox="0 0 426 107" version="1.1" xmlns="http://www.w3.org/2000/svg" xmlns:xlink="http://www.w3.org/1999/xlink">
    <!-- Generator: Sketch 43.2 (39069) - http://www.bohemiancoding.com/sketch -->
    <title>NL_Makro logo 2011 CMYK</title>
    <desc>Created with Sketch.</desc>
    <defs></defs>
    <g id="Page-1" stroke="none" stroke-width="1" fill="none" fill-rule="evenodd">
        <g id="NL_Makro-logo-2011-CMYK" fill-rule="nonzero" fill="#FFE500">
            <g id="Group">
                <g id="Clipped" transform="translate(210.000000, 0.000000)">
                    <path d="M48.738,100.301 C51.259,104.046 54.891,106.081 59.01,106.081 C61.194,106.081 63.395,105.464 65.198,104.343 C69.61,101.597 72.486,95.427 68.371,88.355 L49.011,56.433 L65.282,40.259 C71.155,34.389 69.927,27.814 66.303,24.189 C64.301,22.185 61.528,21.036 58.696,21.036 C55.732,21.036 52.93,22.273 50.591,24.612 L23.512,51.63 L23.512,12.439 C23.512,4.642 17.747,0.62 12.069,0.62 C6.371,0.62 0.599,4.68 0.599,12.439 L0.599,94.159 C0.599,101.972 6.361,106.059 12.056,106.059 C17.748,106.059 23.513,101.971 23.513,94.159 L23.513,81.139 L31.951,72.897 L48.667,100.185 L48.738,100.301 Z" id="Shape"></path>
                </g>
                <g id="Clipped" transform="translate(291.000000, 20.000000)">
                    <path d="M11.683,1.04 C5.903,1.04 0.052,5.376 0.052,13.666 L0.052,74.555 C0.052,82.123 5.768,86.081 11.409,86.081 C17.055,86.081 22.768,82.123 22.768,74.555 L22.768,39.864 C22.768,26.978 31.064,25.501 35.052,24.791 C43.039,23.369 47.964,19.066 48.566,12.986 C48.988,7.591 46.507,3.578 41.388,1.39 C40.044,0.799 38.41,0.488 36.651,0.488 C31.473,0.488 24.69,3.322 22.311,8.571 L21.703,9.916 L21.469,8.458 C20.688,3.585 15.953,1.04 11.683,1.04" id="Shape"></path>
                </g>
                <g id="Clipped" transform="translate(340.000000, 20.000000)">
                    <path d="M43.058,21.026 C32.632,21.026 24.152,31.431 24.152,44.226 C24.152,56.689 32.277,66.086 43.058,66.086 C53.838,66.086 61.967,56.689 61.967,44.226 C61.967,31.431 53.483,21.026 43.058,21.026 M43.058,86.634 C18.62,86.634 0.885,68.91 0.885,44.493 C0.885,32.812 5.002,21.883 12.477,13.717 C20.295,5.182 31.154,0.482 43.058,0.482 C55.052,0.482 65.923,5.008 73.67,13.226 C81.127,21.136 85.235,31.908 85.235,43.557 C85.235,55.208 81.127,65.982 73.67,73.895 C65.923,82.109 55.05,86.634 43.058,86.634" id="Shape"></path>
                </g>
                <g id="Clipped" transform="translate(0.000000, 21.000000)">
                    <path d="M80.409,21.6 C86.02,21.6 92.06,25.424 92.06,33.814 L92.06,72.899 C92.06,80.897 97.803,85.081 103.476,85.081 C109.15,85.081 114.892,80.897 114.892,72.899 L114.892,27.633 C114.892,9.48 103.031,0.039 88.261,0.039 C76.598,0.039 67.181,4.673 65.198,8.594 L64.764,9.48 L64.33,8.511 C62.037,4.136 53.406,0.036 43.121,0.036 C33.982,0.036 25.334,2.419 22.687,7.099 L22.063,8.153 L21.822,6.855 C20.996,2.413 16.068,0.039 11.849,0.039 C5.98,0.039 0.04,4.022 0.04,11.677 L0.04,72.899 C0.04,80.897 5.789,85.081 11.468,85.081 C17.145,85.081 22.892,80.897 22.892,72.899 L22.892,33.814 C22.892,25.354 28.895,21.501 34.472,21.501 C40.049,21.501 46.052,25.354 46.052,33.814 L46.052,72.899 C46.052,80.897 51.799,85.081 57.476,85.081 C63.154,85.081 68.9,80.897 68.9,72.899 L68.9,33.814 C68.9,25.376 74.681,21.6 80.409,21.6" id="Shape"></path>
                </g>
                <g id="Clipped" transform="translate(126.000000, 21.000000)">
                    <path d="M39.567,0.042 C27.406,0.042 15.198,4.329 9.881,10.463 C7.528,13.179 6.564,16.146 7.014,19.281 C7.77,24.54 10.236,27.724 13.951,28.248 C14.546,28.334 15.149,28.375 15.742,28.375 C20.513,28.375 23.991,25.726 25.642,24.143 C29.593,20.413 32.713,17.467 40.281,17.467 C46.516,17.467 49.811,20.04 49.811,24.907 C49.811,31.192 45.183,31.717 38.177,32.511 C19.063,34.678 0.611,38.224 0.611,58.344 C0.611,71.337 8.324,80.684 21.773,83.985 C24.663,84.696 27.917,85.071 31.189,85.071 C39.722,85.071 46.926,82.581 49.544,78.725 L50.066,77.957 L50.336,78.842 C51.267,81.885 52.388,82.752 53.755,83.57 C55.403,84.558 57.36,85.081 59.41,85.081 L59.411,85.081 C65.5,85.081 71.215,80.491 71.215,73.114 L71.215,21.356 C71.215,8.009 59.384,0.042 39.567,0.042 L39.567,0.042 Z M49.01,52.692 C49.01,63.616 42.219,68.391 33.93,68.391 C27.303,68.391 21.684,64.355 21.659,59.577 C21.63,53.19 26.741,51.753 35.16,50.144 C43.509,48.551 47.574,45.855 48.307,45.331 L49.01,44.827 L49.01,52.692 Z" id="Shape"></path>
                </g>
            </g>
        </g>
    </g>
</svg>