<?xml version="1.0" encoding="UTF-8"?>
<svg width="196px" height="56px" viewBox="0 0 196 56" version="1.1" xmlns="http://www.w3.org/2000/svg"
     xmlns:xlink="http://www.w3.org/1999/xlink">
    <g id="Symbols" stroke="none" stroke-width="1" fill="none" fill-rule="evenodd">
        <g id="logo_large" fill="#FBE400">
            <g id="logo-makro">
                <g>
                    <path d="M146.574229,17.3693996 C148.995023,15.3029896 151.498344,13.9393831 154.648128,14.6281864 C157.24773,15.1965891 158.846005,16.8793972 159.170611,19.3686093 C159.50347,21.9054215 158.810243,23.0786272 156.051088,24.5402342 C154.573853,25.327038 153.080113,26.0858417 151.572619,26.8110452 C148.920749,28.0878513 147.682843,30.1794614 147.710352,33.1698759 C147.762619,38.6467023 147.76537,44.1263287 147.713103,49.6031552 C147.677341,53.0443718 145.405096,55.581184 142.192042,55.9647859 C139.50441,56.2867874 136.651725,54.3659782 135.837457,51.6163649 C135.633891,50.9247616 135.578873,50.1659579 135.578873,49.4379544 C135.562367,40.3323104 135.57062,31.2266665 135.565118,22.1210225 C135.565118,19.3770093 136.18132,16.8401971 138.871703,15.6613914 C141.625356,14.4573856 144.288229,14.8129873 146.574229,17.3693996 M168.416394,34.4298819 C168.504423,36.0286897 168.754755,37.6330974 169.302185,39.1647048 C170.465816,42.4211205 173.156199,44.3503298 176.435274,44.3391298 C180.022451,44.3279297 182.633057,42.3791203 183.771931,38.8651034 C184.839281,35.5722875 184.720992,32.3410719 183.293274,29.1714566 C181.02653,24.1398323 174.922278,22.8742262 171.194805,26.6906446 C169.117874,28.8158549 168.545686,31.5290679 168.416394,34.4298819 M176.02539,55.791185 C165.593968,55.7127847 157.443044,47.3407443 157.022156,36.2358907 C156.741564,28.838255 158.592922,22.2050229 164.449593,17.3889997 C170.086192,12.7549773 176.561816,11.6965722 183.351043,14.2529846 C190.283317,16.8653972 194.159338,22.2274231 195.53754,29.5382583 C196.310544,33.620678 196.109728,37.6638976 194.970854,41.6315167 C192.453779,50.3843589 185.075859,55.8611854 176.02539,55.791185 M81.7574681,36.3562912 C78.4343781,36.9610942 75.3451147,37.0618946 72.5419452,38.4563014 C71.2380175,39.1087045 70.6025591,40.1727097 70.6740825,41.6791169 C70.7401042,43.0315235 71.4058226,44.0115282 72.6437286,44.3027296 C74.7866816,44.806732 76.9819016,44.9075325 79.056082,43.9331278 C82.3544139,42.3847203 81.4521179,39.2935054 81.7574681,36.3562912 M82.7890565,52.2043677 C76.5637645,57.3479926 67.6123282,57.2079919 62.8037509,51.9887667 C56.3556358,44.9915329 59.3871302,33.0606753 68.3275628,30.2046616 C72.0852954,29.0062558 76.0108331,28.6030538 79.8208329,27.6510492 C80.8854321,27.387848 82.1701035,27.2226472 82.0848255,25.7554401 C82.0022984,24.3666334 80.7671433,24.1538324 79.6667823,23.9914316 C76.577519,23.5294293 73.7991076,23.7926306 71.6396493,26.6038442 C69.7525303,29.056656 66.5229709,29.4430579 64.2177147,27.81905 C62.0362492,26.2874426 61.3540254,23.1402275 62.7102202,20.4494145 C64.3937725,17.1145984 67.3234835,15.38699 70.7208479,14.4349854 C74.6436346,13.3373801 78.6847102,13.2785799 82.6432587,13.9617832 C90.1862329,15.2637894 93.677128,19.6206105 93.8531857,27.9142505 C94.0017345,34.8750841 93.9164565,41.8387177 93.8559366,48.8023513 C93.8366803,50.9639617 93.5093229,53.1059721 91.6689693,54.5983793 C88.8190344,56.9139905 85.2703704,55.987186 82.7890565,52.2043677 M123.216317,32.3802721 C126.146028,37.0030944 129.026223,41.5335162 131.895414,46.0723381 C133.28462,48.2647487 133.424916,50.5411597 132.052216,52.7587704 C130.643754,55.0379814 128.522808,55.981586 125.887444,55.6623844 C123.535422,55.376783 122.234245,53.705175 121.081617,51.851566 C118.751603,48.1051479 116.42709,44.3587299 114.097076,40.6095118 C111.233387,42.5583212 110.215553,45.0923334 110.452131,48.5195499 C110.72447,52.4927691 108.856607,54.9735811 105.704073,55.7407848 C102.064629,56.6255891 98.4031782,53.9739763 98.3866728,50.188358 C98.3206512,35.5190872 98.3316548,20.8498164 98.381171,6.18054561 C98.3921746,2.79532927 100.914752,0.199716744 104.070037,0.0121158386 C107.321604,-0.181085094 110.119271,1.94972519 110.320087,5.44414205 C110.625437,10.7585677 110.47964,16.1009935 110.518152,21.4322192 C110.531907,23.1066273 110.520903,24.7838354 110.520903,26.7942451 C113.976036,23.3306284 117.178087,20.152613 120.341624,16.9381975 C122.773422,14.4685856 125.9067,13.930983 128.454036,15.6165911 C131.878909,17.8790021 132.178757,22.5606247 129.119754,25.8002403 C127.807573,27.186247 126.5174,28.5918538 125.23548,30.0058606 C124.59452,30.711464 123.997574,31.4562676 123.216317,32.3802721 M11.4278986,17.8846021 C18.3821798,13.2309796 24.3791469,13.31498 30.6677097,18.1618034 C35.1461787,14.6561865 40.2325971,13.7517821 45.7178964,14.9473879 C51.5663148,16.2213941 55.2195131,20.2786136 55.3955709,26.3994432 C55.6238958,34.2786812 55.5386178,42.1719193 55.4615925,50.0595574 C55.4285817,53.4195736 52.6749285,56.0375862 49.5939178,55.984386 C46.3285967,55.9311857 43.786763,53.296373 43.7592539,49.782356 C43.7124886,43.756727 43.7372467,37.7282979 43.7510012,31.6998688 C43.7537521,29.6530589 42.9532396,28.0906514 41.1816584,27.1498468 C39.3853192,26.1978422 37.6907634,26.573044 36.1144963,27.7658498 C34.8160704,28.7486545 34.5189729,30.1290612 34.5272257,31.6970688 C34.5547347,37.3530961 34.5849946,43.0091234 34.5244748,48.6651506 C34.4694567,53.8311756 31.0555869,56.8075899 26.5551106,55.7239847 C23.8289664,55.0687816 22.038129,52.67757 22.0161218,49.4743546 C21.9776091,43.8183273 21.9913636,38.1623 22.0133709,32.5062727 C22.0216236,30.8878649 21.7740424,29.3618575 20.6186634,28.1942519 C19.2377104,26.7970451 17.5899199,26.153042 15.6780428,26.9314458 C13.6808876,27.7434497 12.5392632,29.252657 12.5310105,31.5178679 C12.5090032,37.3950963 12.5200069,43.2751246 12.5090032,49.152353 C12.5007505,53.1703724 10.0029312,55.9423858 6.35523469,55.998386 C2.72404358,56.0543863 0.0694228162,53.3411732 0.0419137927,49.3035537 C-0.0158551567,40.5983117 0.0721737185,31.8902697 0.000650257423,23.1850277 C-0.0268587661,20.0182124 0.812166451,17.4646001 3.71711933,15.994593 C6.17917694,14.7457869 8.49818762,15.3225897 11.4278986,17.8846021"
                          id="Fill-1"></path>
                </g>
            </g>
        </g>
    </g>
</svg>
