<?xml version="1.0" encoding="utf-8"?>
<!-- Generator: Adobe Illustrator 21.0.2, SVG Export Plug-In . SVG Version: 6.00 Build 0)  -->
<svg version="1.1" id="Ebene_1" xmlns="http://www.w3.org/2000/svg" xmlns:xlink="http://www.w3.org/1999/xlink" x="0px" y="0px"
	 viewBox="0 0 500 142" style="enable-background:new 0 0 500 142;" xml:space="preserve">
<style type="text/css">
	.st0{fill:#FFFFFF;}
	.st1{fill:#FBE400;}
</style>
<path class="st0" d="M73.2,124.9c0-1.8-0.2-3.1-0.7-3.7c-0.6-0.7-1.7-1-3.5-1h-6.5v9H69c1.7,0,2.9-0.3,3.4-0.8
	C72.9,127.9,73.2,126.7,73.2,124.9 M78.1,124.9c0,3.5-0.7,5.8-2.1,7c-1.3,1.1-3.7,1.7-7.1,1.7h-6.5v8.4h-5v-26h11.5
	c3.5,0,5.9,0.6,7.2,1.8C77.5,119.1,78.1,121.5,78.1,124.9"/>
<path class="st0" d="M104.6,120.3H97V142h-5v-21.7h-7.6V116h20.2C104.6,116,104.6,120.3,104.6,120.3z"/>
<path class="st0" d="M126.5,133.3l-4.4-13.5H122l-4.4,13.5H126.5z M134.4,142h-5l-1.7-4.9h-11.2l-1.6,4.9h-5.2l8.6-26h7.3L134.4,142
	z"/>
<path class="st0" d="M165.7,142h-8.2l-11-21.7h-0.2l0.4,21.7h-5v-26h8.2l11.1,21.7h0.1l-0.4-21.7h5L165.7,142L165.7,142z"/>
<path class="st0" d="M196.1,134.1c0,2.2-0.3,3.8-1,4.9c-0.8,1.3-2.2,2.2-4.1,2.6c-0.7,0.1-2.6,0.3-5.6,0.4c-4.2,0.2-7-0.5-8.6-1.9
	c-1.5-1.4-2.3-4.2-2.3-8.4v-6c0-3.9,0.8-6.7,2.5-8.1c1.6-1.4,4.3-2.1,8.3-2.1c3.9,0,6.4,0.3,7.7,1c1.9,1,2.8,3.2,2.8,6.5v1.4h-4.9
	V123c0-1.4-0.4-2.4-1.1-2.8c-0.6-0.3-2.1-0.5-4.4-0.5c-2.5,0-4.1,0.4-4.8,1.1s-1.1,2.3-1.1,4.8v5.8c0,2.6,0.3,4.2,1,5
	s2.3,1.2,4.8,1.2c2.3,0,3.7-0.2,4.4-0.5c0.9-0.5,1.4-1.6,1.4-3.3v-1.4h5L196.1,134.1L196.1,134.1z"/>
<path class="st0" d="M204.6,116h5v26h-5V116z"/>
<path class="st0" d="M266.8,142h-5l0.4-21.9h-0.1l-8.2,21.9h-4.4l-8.3-21.8h-0.1l0.4,21.8h-5v-26h8l7,19.3h0.1l6.9-19.3h8.2v26
	H266.8z"/>
<path class="st0" d="M291,133.3l-4.4-13.5h-0.1l-4.4,13.5H291z M298.9,142h-5l-1.7-4.9H281l-1.6,4.9h-5.2l8.6-26h7.3L298.9,142z"/>
<path class="st0" d="M322.1,124.6c0-1.8-0.3-3-0.8-3.5c-0.5-0.6-1.6-0.8-3.4-0.8H311v8.9h6.6c1.8,0,3.1-0.3,3.7-0.9
	C321.8,127.6,322.1,126.4,322.1,124.6 M327.1,123.8c0,2.4-0.2,4-0.6,4.9c-0.6,1.3-2,2.2-4,2.5v0.1c1.7,0.1,2.9,0.7,3.6,1.8
	c0.5,0.9,0.8,2.2,0.8,4.1v4.9h-5v-4.9c0-2.5-1.1-3.8-3.3-3.8H311v8.6h-5v-26h13.2c2.9,0,4.9,0.6,6.1,1.8
	C326.5,118.9,327.1,120.9,327.1,123.8"/>
<path class="st0" d="M359.4,142h-6.3l-9.5-11.1h-2.3V142h-5v-26h5v10.6h2.3l8.7-10.6h6.1l-10.5,12.7L359.4,142z"/>
<path class="st0" d="M383.6,142h-17.9v-26h17.8v4.3h-12.8v6.5h12.1v4.1h-12.1v6.9h12.9V142z"/>
<path class="st0" d="M410.6,120.3H403V142h-5v-21.7h-7.6V116h20.2V120.3z"/>
<path class="st0" d="M418,142h5v-26h-5V142z M418,113.5h4.9v-3.8H418V113.5z"/>
<path class="st0" d="M456.7,142h-8.2l-11-21.7h-0.2l0.4,21.7h-5v-26h8.2l11.1,21.7h0.1l-0.4-21.7h5V142z"/>
<path class="st0" d="M466.4,142h5v-26h-5V142z M466.4,113.5h4.9v-3.8h-4.9V113.5z"/>
<path class="st0" d="M500.3,142h-20.7v-4.2l14.3-17.5h-13.6V116h19.9v4.3l-14.4,17.5h14.5L500.3,142L500.3,142z"/>
<path class="st1" d="M66.7,91.9l19.2-57.7v57.7h28.6V0H75.8L57.2,45.9L38.6,0H0v91.8h28.6V34.2l19.3,57.7H66.7z"/>
<path class="st1" d="M200.3,18.1V0h-74.4v91.8h74.4v-18h-45.7V54.1h45.7v-18h-45.7v-18C154.6,18.1,200.3,18.1,200.3,18.1z"/>
<path class="st1" d="M236.1,18.1h-27.2V0h83v18.1h-27.2v73.7h-28.6V18.1z"/>
<path class="st1" d="M374,0h-73.6v91.9H329V56.2h11.4L359,91.9h32.9l-22.1-35.7h4.4c8.9-0.7,17.8-6.8,17.8-16.8V18.7v-2
	C391,6.3,383.2,0.7,374,0z M366.2,32.3c0,2-0.5,3.7-4,3.7H329V18h33.2c4,0,4,2.6,4,4.3V32.3z"/>
<path class="st1" d="M482.1,0h-60.8c-9.1,0.7-16.9,5.4-17.9,15.8v59.4c1,10.4,8.7,15.9,17.9,16.6h60.8c9.1-0.7,16.9-6.2,17.9-16.6
	V15.8C499,5.4,491.3,0.8,482.1,0z M471.4,69.7c-0.1,1-0.5,3.8-4,4.1h-31c-3.5-0.4-4.2-3.1-4.3-4.1v-48c0.1-1,0.6-3.2,4.1-3.6h31.2
	c3.5,0.4,3.9,2.6,4,3.6L471.4,69.7L471.4,69.7z"/>
<path class="st0" d="M20.5,120.3h-7.6V142H8v-21.7H0.3V116h20.2V120.3z"/>
<path class="st0" d="M44.1,132.1v-7c0-2.3-0.5-3.8-1.4-4.4c-0.8-0.5-2.3-0.8-4.7-0.8c-2.6,0-4.3,0.4-5,1.1c-0.6,0.6-1,2-1,4.2v7
	c0,2.5,0.4,4,1.2,4.7c0.7,0.6,2.3,0.9,4.8,0.9c2.4,0,4-0.3,4.7-0.9C43.6,136,44.1,134.5,44.1,132.1z M49,132.1c0,4-0.9,6.7-2.6,8.1
	c-1.5,1.2-4.3,1.8-8.5,1.8s-7.1-0.6-8.5-1.8c-1.6-1.3-2.5-4.1-2.5-8.2v-7c0-3.9,0.8-6.5,2.4-7.8c1.4-1.2,4.3-1.7,8.5-1.7
	c4.1,0,6.8,0.5,8.3,1.6c1.8,1.3,2.7,4,2.7,7.9v7.1H49z"/>
</svg>
