<?xml version="1.0" encoding="UTF-8"?>
<svg width="16px" height="16px" viewBox="0 0 16 16" version="1.1" xmlns="http://www.w3.org/2000/svg" xmlns:xlink="http://www.w3.org/1999/xlink">
    
    <title>Icon / medium / add</title>
    <desc>Created with Sketch.</desc>
    <defs>
        <path d="M8,0 C12.411,0 16,3.589 16,8 C16,12.411 12.411,16 8,16 C3.589,16 0,12.411 0,8 C0,3.589 3.589,0 8,0 Z M8,1 C4.14,1 1,4.14 1,8 C1,11.86 4.14,15 8,15 C11.86,15 15,11.86 15,8 C15,4.14 11.86,1 8,1 Z M8,4 C8.2765,4 8.5,4.224 8.5,4.5 L8.5,4.5 L8.5,7.5 L11.5,7.5 C11.7765,7.5 12,7.724 12,8 C12,8.276 11.7765,8.5 11.5,8.5 L11.5,8.5 L8.5,8.5 L8.5,11.5 C8.5,11.776 8.2765,12 8,12 C7.7235,12 7.5,11.776 7.5,11.5 L7.5,11.5 L7.5,8.5 L4.5,8.5 C4.2235,8.5 4,8.276 4,8 C4,7.724 4.2235,7.5 4.5,7.5 L4.5,7.5 L7.5,7.5 L7.5,4.5 C7.5,4.224 7.7235,4 8,4 Z" id="path-1"></path>
    </defs>
    <g id="Page-1" stroke="none" stroke-width="1" fill="none" fill-rule="evenodd">
        <g id="Icon-/-medium-/-add">
            <rect id="fill" x="0" y="0" width="16" height="16"></rect>
            <mask id="mask-2" fill="white">
                <use xlink:href="#path-1"></use>
            </mask>
            <use id="color" fill="#0064FE" fill-rule="evenodd" xlink:href="#path-1"></use>
        </g>
    </g>
</svg>