<?xml version="1.0" encoding="UTF-8" standalone="no"?>
<svg version="1.1" viewBox="0 0 24 24" xmlns="http://www.w3.org/2000/svg">
    <!--Generated by IJSVG (https://github.com/curthard89/IJSVG)-->
    <g fill="#ffffff">
        <path d="M11.5,0c-6.341,0 -11.5,5.159 -11.5,11.5c0,6.341 5.159,11.5 11.5,11.5c6.341,0 11.5,-5.159 11.5,-11.5c0,-6.341 -5.159,-11.5 -11.5,-11.5Zm0,22c-5.79,0 -10.5,-4.71 -10.5,-10.5c0,-5.79 4.71,-10.5 10.5,-10.5c5.79,0 10.5,4.71 10.5,10.5c0,5.79 -4.71,10.5 -10.5,10.5Z"></path>
        <path d="M12.5,6h-5.5v-5.5c0,-0.276 -0.224,-0.5 -0.5,-0.5c-0.276,0 -0.5,0.224 -0.5,0.5v5.5h-5.5c-0.276,0 -0.5,0.224 -0.5,0.5c0,0.276 0.224,0.5 0.5,0.5h5.5v5.5c0,0.276 0.224,0.5 0.5,0.5c0.276,0 0.5,-0.224 0.5,-0.5v-5.5h5.5c0.276,0 0.5,-0.224 0.5,-0.5c0,-0.276 -0.224,-0.5 -0.5,-0.5Z" transform="translate(5, 5)"></path>
    </g>
    <path fill="none" d="M0,0h24v24h-24Z"></path>
</svg>
