<?xml version="1.0" encoding="UTF-8" standalone="no"?>
<svg viewBox="0 0 80 80" xmlns="http://www.w3.org/2000/svg">
<g transform="translate(-21.91321,-16.98389)">
<g fill="#ffd42a" transform="matrix(.45541,0,0,.45541,26.27145,23.86752)">
<path d="m12.473,121.082c-.91397,1.76129-1.9912,3.408-1.9913,5.341l.00903.80788c0,4.172 3.26587,6.69412 7.02057,6.69412h121.3197c3.755,0 6.98886-3.12652 6.98886-7.29852l-.03986-.81148c0-1.933-.95029-3.61152-1.991-5.341l-60.0834-107.7802c-2.6546-2.94957-6.9583-2.94957-9.6133.0004l-61.6193,108.3878z" fill="#ffd42a" stroke="#000" stroke-width="6.83138"/>
</g>
<path d="m31.96292,74.47538a8.04163,8.04163 0 1,1 -16.08325,0 8.04163,8.04163 0 1,1 16.08325,0z" transform="matrix(.54212,0,0,.54212,49.5464,33.73148)"/>
<path d="m62.48617,43.81694c1.71269,0 4.37072,1.36457 4.37072,3.05957l-1.27923,17.61571c0,1.695-1.3788,3.05957-3.09149,3.05957s-3.09148-1.36457-3.09148-3.05957l-1.49244-17.61571c0-1.695 2.87124-3.05957 4.58392-3.05957z"/>
</g>
</svg>
