<?xml version="1.0" encoding="UTF-8"?>
<svg xmlns="http://www.w3.org/2000/svg" xmlns:xlink="http://www.w3.org/1999/xlink" x="0px" y="0px"
	 viewBox="0 0 60 60" style="enable-background:new 0 0 60 60;" version="1.1">
<style type="text/css">
	.st0{fill:none;stroke:#0064FE;stroke-width:2;stroke-linecap:round;stroke-linejoin:round;stroke-miterlimit:10;}
</style>
<title>batch-update</title>
<g id="surface1">
<path class="st0" d="M 0 23.488281 L 0 47 L 3.257812 50.523438 C 5.042969 52.472656 7.765625 55.410156 9.289062 57.039062 L 12.089844 60.054688 L 60.054688 60.054688 L 60.054688 12.011719 L 59.332031 11.238281 C 58.90625 10.808594 55.96875 8.113281 52.792969 5.230469 L 46.976562 0 L 0 0 Z M 46.707031 4.136719 L 47.617188 5.070312 L 7.3125 5.070312 L 5.5 3.203125 L 45.800781 3.203125 Z M 5.871094 16.707031 L 5.871094 25.300781 L 7.578125 26.664062 C 8.515625 27.410156 9.367188 28.023438 9.449219 28.023438 C 9.527344 28.023438 9.609375 24.394531 9.609375 19.964844 L 9.609375 11.878906 L 12.011719 14.28125 L 11.957031 34.671875 L 11.878906 55.0625 L 7.554688 50.390625 L 3.203125 45.695312 L 3.203125 5.5 L 4.539062 6.804688 L 5.871094 8.113281 Z M 53.78125 10.542969 L 55.382812 12.011719 L 14.253906 12.011719 L 11.371094 9.074219 L 31.761719 9.074219 L 52.179688 9.101562 Z M 56.851562 36.03125 L 56.851562 56.851562 L 15.214844 56.851562 L 15.214844 15.214844 L 56.851562 15.214844 Z M 56.851562 36.03125 "/>
<path class="st0" d="M 29.574219 26.878906 C 25.917969 30.507812 24.554688 32.054688 24.609375 32.429688 C 24.6875 32.910156 24.929688 32.960938 27.410156 33.042969 L 30.132812 33.121094 L 30.214844 38.058594 L 30.292969 43.023438 L 31.039062 43.664062 C 31.761719 44.28125 31.949219 44.304688 35.738281 44.304688 C 41.316406 44.304688 41.371094 44.253906 41.371094 37.472656 L 41.371094 33.097656 L 43.878906 33.097656 C 46.574219 33.097656 47.269531 32.800781 46.734375 31.839844 C 46.601562 31.574219 44.332031 29.226562 41.71875 26.609375 C 35.285156 20.257812 36.273438 20.230469 29.574219 26.878906 Z M 29.574219 26.878906 "/>
<path class="st0" d="M 24.289062 48.042969 C 23.539062 48.789062 23.566406 50.445312 24.316406 51.140625 C 24.847656 51.621094 25.488281 51.644531 35.125 51.726562 L 45.398438 51.804688 L 46.226562 50.980469 C 46.894531 50.285156 47 50.019531 46.867188 49.296875 C 46.519531 47.480469 46.734375 47.507812 35.203125 47.507812 C 25.167969 47.507812 24.796875 47.535156 24.289062 48.042969 Z M 24.289062 48.042969 "/>
</g>
</svg>
