<?xml version="1.0" encoding="UTF-8"?>
<svg width="34px" height="34px" viewBox="0 0 34 34" version="1.1" xmlns="http://www.w3.org/2000/svg" xmlns:xlink="http://www.w3.org/1999/xlink">
    <title>batch-update</title>
    <g id="Page-1" stroke="none" stroke-width="1" fill="none" fill-rule="evenodd">
        <g id="batch-update">
            <rect id="Rectangle" x="0" y="0" width="34" height="34"></rect>
            <path d="M1,13.3217212 L1,25.6557377 L2.70901613,27.5040986 C3.64549193,28.5266392 5.07377049,30.0676228 5.87295056,30.9221309 L7.34221325,32.5040986 L32.5040986,32.5040986 L32.5040986,7.30122964 L32.1249999,6.89549167 C31.9016393,6.6700821 30.3606557,5.25614741 28.6946723,3.74385259 L25.6434424,1 L1,1 L1,13.3217212 Z M25.502049,3.17008183 L25.9795085,3.6598358 L4.83606557,3.6598358 L3.8852459,2.68032787 L25.0266392,2.68032787 L25.502049,3.17008183 Z M4.07991816,9.7643441 L4.07991816,14.2725409 L4.97540984,14.9877047 C5.46721311,15.3790982 5.91393469,15.7008199 5.95696734,15.7008199 C5.99795095,15.7008199 6.04098361,13.797131 6.04098361,11.4733608 L6.04098361,7.23155725 L7.30122964,8.49180328 L7.27254085,19.1885246 L7.23155725,29.8852459 L4.96311502,27.4344262 L2.68032787,24.9713112 L2.68032787,3.8852459 L3.38114728,4.56967239 L4.07991816,5.25614741 L4.07991816,9.7643441 Z M29.2131148,6.53073784 L30.0532784,7.30122964 L8.47745889,7.30122964 L6.96516407,5.76024603 L17.6618854,5.76024603 L28.3729511,5.7745899 L29.2131148,6.53073784 Z M30.8237702,19.9016393 L30.8237702,30.8237702 L8.98155751,30.8237702 L8.98155751,8.98155751 L30.8237702,8.98155751 L30.8237702,19.9016393 Z" id="Shape" stroke="#0064FE"></path>
            <path d="M16.5143444,14.1004097 C14.5963116,16.0040981 13.8811478,16.815574 13.9098361,17.0122953 C13.9508197,17.2643441 14.0778691,17.2909839 15.3790982,17.3340165 L16.8073768,17.3750001 L16.85041,19.9651641 L16.8913936,22.5696724 L17.2827866,22.9057374 C17.6618854,23.2295082 17.760246,23.2418035 19.7479507,23.2418035 C22.6741802,23.2418035 22.702869,23.2151638 22.702869,19.6577868 L22.702869,17.3627048 L24.0184425,17.3627048 C25.4323772,17.3627048 25.797131,17.2069671 25.5163934,16.702869 C25.446721,16.5635247 24.2561474,15.331967 22.8852459,13.9590164 C19.5102458,10.6270489 20.0286888,10.612705 16.5143444,14.1004097 Z" id="Path" stroke="#0064FE"></path>
            <path d="M13.741803,25.202869 C13.3483604,25.594262 13.3627048,26.4631145 13.7561474,26.8278689 C14.0348359,27.0799182 14.3709015,27.092213 19.4262295,27.1352456 L24.815574,27.1762298 L25.2499997,26.7438526 C25.6004097,26.3790982 25.6557377,26.239754 25.5860658,25.8606557 C25.4036884,24.907787 25.5163934,24.9221064 19.4672131,24.9221064 C14.202869,24.9221064 14.0081967,24.9364753 13.741803,25.202869 Z" id="Path" stroke="#0064FE"></path>
        </g>
    </g>
</svg>