<svg version="1.1" viewBox="0 0 420 420" xmlns="http://www.w3.org/2000/svg">
    <!--Generated by IJSVG (https://github.com/curthard89/IJSVG)-->
    <g fill="#ffffff">
        <path d="M10,20h400l2.52889e-07,-5.26136e-10c5.51809,-0.0114805 9.98852,-4.48192 10,-10c0,-5 -5,-10 -10,-10h-400c-5,2.52889e-07 -10,5 -10,10l-1.86381e-07,-8.97785e-05c0.0114309,5.51809 4.48183,9.98856 9.99991,10.0001Z" transform="translate(-1.86381e-07, -2.52889e-07)"></path>
        <path d="M410,1.87186e-07h-400c-5,0 -10,5 -10,10l-1.86381e-07,-8.97785e-05c0.0114309,5.51809 4.48183,9.98856 9.99991,10.0001h400h-4.37114e-07c5.52285,2.41411e-07 10,-4.47715 10,-10c2.41411e-07,-5.52285 -4.47715,-10 -10,-10Z" transform="translate(-1.86381e-07, 190)"></path>
        <path d="M410,0h-400c-5,0 -10,5 -10,10l-1.44964e-07,-6.98614e-05c0.0114309,5.51809 4.48184,9.98856 9.99993,10.0001h400l-1.37971e-07,2.86775e-10c5.51809,-0.0114693 9.98853,-4.48191 10,-10c2.86775e-10,-5 -5,-10 -10,-10Z" transform="translate(-1.44964e-07, 90)"></path>
        <path d="M18,1l1,9c6,-7 14,-10 24,-10c11,0 19,4 23,13c6,-9 15,-13 26,-13c9,0 16,3 21,8c5,5 7,13 7,23v56h-20v-55c0,-5 -1,-9 -4,-12c-3,-3 -6,-4 -12,-4l-1.1051e-06,-2.26181e-08c-3.87896,-0.0793907 -7.69843,0.962282 -11,3c-3,2 -3,5 -4,9v58h-19v-56c0,-10 -5,-15 -15,-15c-8,0 -13,3 -16,9v61h-19v-85Z" transform="translate(10, 326)"></path>
        <path d="M37.1965,16.1616c-5,0 -9,2 -13,5c-4,3 -5,9 -6,15h36v-1c0,-6 -2,-11 -5,-14c-3,-3 -6,-5 -12,-5Zm3,72c-12,0 -22,-4 -29,-11l2.35606e-06,2.68243e-06c-7.27401,-8.28162 -11.1965,-18.9792 -11,-30v-2l-2.35993e-06,0.000164542c0.113634,-7.92367 1.81374,-15.7443 4.99993,-23c3,-7 8,-12 14,-16l9.03441e-07,-6.25528e-07c5.86595,-4.06149 12.8671,-6.16182 20,-6c12,0 20,4 27,11c7,7 9,18 9,31v8h-56.9999c1,7 3,12 7,17l-1.73531e-06,-1.74666e-06c3.95802,3.9839 9.38633,6.15522 15,6c9,0 16,-4 21,-11l10,10c-3,5 -8,9 -14,12l-8.27394e-08,4.51986e-08c-5.20229,2.84189 -11.0763,4.22396 -17,3.99983Z" transform="translate(151.804, 324.838)"></path>
        <path d="M16,1l1,10c6,-8 14,-11 25,-11c18,0 27,10 27,30v56h-19v-55c0,-5 -1,-9 -3,-12c-2,-3 -6,-4 -11,-4c-8,0 -13,3 -17,10v60h-19v-85h16Z" transform="translate(247, 326)"></path>
        <path d="M51,76c-6,7 -13,10 -24,10c-9,0 -16,-3 -21,-8c-5,-5 -6,-13 -6,-23v-55h19v55c0,11 4,16 13,16c9,0 15,-3 19,-10v-61h19v85h-18Z" transform="translate(340, 327)"></path>
    </g>
</svg>
