<?xml version="1.0" encoding="UTF-8" standalone="no"?>
<svg version="1.1" viewBox="0 0 24 24" xmlns="http://www.w3.org/2000/svg">
    <!--Generated by IJSVG (https://github.com/curthard89/IJSVG)-->
    <path fill="#FFFFFF" d="M12.756,12.049l11.147,-11.146c0.195,-0.195 0.195,-0.512 0,-0.707c-0.195,-0.195 -0.512,-0.195 -0.707,-2.77556e-17l-11.147,11.146l-11.146,-11.147c-0.195,-0.195 -0.512,-0.195 -0.707,-2.77556e-16c-0.195,0.195 -0.195,0.512 -2.77556e-17,0.707l11.146,11.147l-11.147,11.146c-0.195,0.195 -0.195,0.512 -2.77556e-16,0.707c0.195,0.195 0.512,0.195 0.707,0l11.147,-11.146l11.146,11.147c0.195,0.195 0.512,0.195 0.707,0c0.195,-0.195 0.195,-0.512 0,-0.707l-11.146,-11.147Z" transform="translate(-0.049, -0.049)"></path>
    <path fill="none" d="M0,0h24v24h-24Z"></path>
</svg>
