<svg version="1.1" viewBox="0 0 24 24" xmlns="http://www.w3.org/2000/svg" xmlns:xlink="http://www.w3.org/1999/xlink">
    <defs>
        <path id="path-1" d="M3.5,7c1.93,0 3.5,-1.57 3.5,-3.5c0,-1.93 -1.57,-3.5 -3.5,-3.5c-1.93,0 -3.5,1.57 -3.5,3.5c0,1.93 1.57,3.5 3.5,3.5Zm0,-6c1.379,0 2.5,1.122 2.5,2.5c0,1.378 -1.121,2.5 -2.5,2.5c-1.379,0 -2.5,-1.122 -2.5,-2.5c0,-1.378 1.121,-2.5 2.5,-2.5Z"></path>
        <path id="path-2" d="M0.5,3c0.276,0 0.5,-0.224 0.5,-0.5v-2c0,-0.276 -0.224,-0.5 -0.5,-0.5c-0.276,0 -0.5,0.224 -0.5,0.5v2c0,0.276 0.224,0.5 0.5,0.5Z"></path>
    </defs>
    <g fill="#0064FE">
        <path d="M23.854,4.146c-1.174,-1.174 -2.187,-1.499 -3.511,-1.121l-3.673,1.219c-0.117,-0.653 -0.685,-1.244 -1.67,-1.244h-2.798c-0.743,-0.701 -2.429,-2 -4.702,-2h-2.5v-0.5c0,-0.276 -0.224,-0.5 -0.5,-0.5h-4c-0.276,0 -0.5,0.224 -0.5,0.5v8.042c0,0.276 0.224,0.5 0.5,0.5h4c0.276,0 0.5,-0.224 0.5,-0.5v-0.847c0.841,0.284 1.59,0.544 2.256,0.775c2.624,0.911 4.088,1.41 5.419,1.41c1.623,0 3.048,-0.743 6.138,-2.387c1.281,-0.682 2.876,-1.529 4.911,-2.547c0.144,-0.071 0.244,-0.208 0.27,-0.367c0.026,-0.157 -0.027,-0.318 -0.14,-0.433Zm-19.854,3.896h-3v-7.042h3v7.042Zm14.343,-1.431c-5.289,2.813 -5.288,2.815 -10.759,0.915c-0.751,-0.26 -1.608,-0.558 -2.584,-0.885v-4.641h2.5c2.069,0 3.589,1.296 4.146,1.854c0.094,0.093 0.221,0.146 0.354,0.146h3c0.514,0 0.695,0.27 0.695,0.5c0,0.23 -0.181,0.5 -0.695,0.5h-5.5c-0.276,0 -0.5,0.224 -0.5,0.5c0,0.276 0.224,0.5 0.5,0.5h5.5c0.639,0 1.097,-0.252 1.376,-0.604l4.262,-1.415c0.661,-0.188 1.228,-0.177 1.98,0.403c-1.735,0.877 -3.13,1.618 -4.275,2.227Z" transform="translate(0, 13)"></path>
        <use transform="translate(14, 0)" xlink:href="#path-1"></use>
        <use transform="translate(9, 7)" xlink:href="#path-1"></use>
        <use transform="translate(12, 9)" xlink:href="#path-2"></use>
        <use transform="translate(17, 2)" xlink:href="#path-2"></use>
    </g>
    <path fill="none" d="M0,0h24v24h-24Z"></path>
</svg>
