<?xml version="1.0" encoding="utf-8"?>
<!-- Generator: Adobe Illustrator 22.0.1, SVG Export Plug-In . SVG Version: 6.00 Build 0)  -->
<svg version="1.1" id="Layer_1" xmlns="http://www.w3.org/2000/svg" xmlns:xlink="http://www.w3.org/1999/xlink" x="0px" y="0px"
	 viewBox="0 0 60 60" style="enable-background:new 0 0 60 60;" xml:space="preserve">
<style type="text/css">
	.st0{fill:none;stroke:#FFFFFF;stroke-width:2;stroke-linecap:round;stroke-linejoin:round;stroke-miterlimit:10;}
</style>
<title>limit-correction</title>
<g>
	<rect x="10" y="33.7" class="st0" width="7" height="14"/>
	<path class="st0" d="M17,45.1c18.2,6.1,12.1,6.1,32.9-4.4c-1.9-1.9-3.2-2.2-5.2-1.7L37,41.4"/>
	<path class="st0" d="M17,35.4h5.2c4.1,0,7,2.6,7.9,3.5c0,0,2.6,0,5.2,0c2.7,0,2.7,3.5,0,3.5h-9.6"/>
</g>
<g>
	<path class="st0" d="M32.1,30.1l-6.5,1.6l1.5-6.5L42.6,9.9c0.9-0.9,2-0.9,2.7,0l2.1,2.1c0.9,0.9,0.9,2,0,2.7L32.1,30.1z"/>
	<line class="st0" x1="45.4" y1="16.8" x2="40.5" y2="12"/>
	<line class="st0" x1="32.2" y1="29.9" x2="27.4" y2="25.1"/>
</g>
</svg>
