<?xml version="1.0" encoding="utf-8"?>
<!-- Generator: Adobe Illustrator 22.0.1, SVG Export Plug-In . SVG Version: 6.00 Build 0)  -->
<svg version="1.1" id="Layer_1" xmlns="http://www.w3.org/2000/svg" xmlns:xlink="http://www.w3.org/1999/xlink" x="0px" y="0px"
     viewBox="0 0 56 56" style="enable-background:new 0 0 56 56;" xml:space="preserve">
<style type="text/css">
    .st0{fill:#0064FE;}
</style>
<title>logout</title>
<g>
    <g>
    <path id="SVGID_2_" class="st0" d="M44.1,21.1c0-5-4.1-9.1-9.1-9.1H16.7c-0.4,0-0.6,0-0.9,0.1c-2.1,0.4-3.7,2.3-3.7,4.5v22.9l0,0
    c0,2.5,2,4.5,4.6,4.5h22.9c2.4,0,4.3-1.8,4.6-4.2L44.1,21.1L44.1,21.1z M35,13.5L35,13.5c4.2,0,7.6,3.4,7.6,7.6H38
    c-1.7,0-3-1.4-3-3V13.5z M42.6,39.4L42.6,39.4c0,1.7-1.4,3-3,3H16.7c-1.7,0-3-1.4-3-3V16.6c0-1.7,1.4-3,3-3h16.8v4.6l0,0
    c0,2.5,2,4.6,4.6,4.6h4.6L42.6,39.4z"/>
    </g>
    <g>
    <defs>
    <path id="SVGID_1_" d="M44.1,21.1c0-5-4.1-9.1-9.1-9.1H16.7c-0.4,0-0.6,0-0.9,0.1c-2.1,0.4-3.7,2.3-3.7,4.5v22.9l0,0
    c0,2.5,2,4.5,4.6,4.5h22.9c2.4,0,4.3-1.8,4.6-4.2L44.1,21.1L44.1,21.1z M35,13.5L35,13.5c4.2,0,7.6,3.4,7.6,7.6H38
    c-1.7,0-3-1.4-3-3V13.5z M42.6,39.4L42.6,39.4c0,1.7-1.4,3-3,3H16.7c-1.7,0-3-1.4-3-3V16.6c0-1.7,1.4-3,3-3h16.8v4.6l0,0
    c0,2.5,2,4.6,4.6,4.6h4.6L42.6,39.4z"/>
    </defs>
    <clipPath id="SVGID_3_">
    <use xlink:href="#SVGID_1_"  style="overflow:visible;"/>
    </clipPath>
    </g>
</g>
<g>
    <path fill="#0064FE" d="M24.2,33.3c0,0.5-0.1,1-0.3,1.5c-0.2,0.4-0.4,0.8-0.7,1.1c-0.3,0.3-0.7,0.6-1.2,0.7c-0.4,0.2-0.9,0.3-1.5,0.3h-2.8v-7.2
    h2.8c0.5,0,1,0.1,1.5,0.3c0.5,0.2,0.8,0.4,1.2,0.7c0.3,0.3,0.6,0.7,0.7,1.1C24.1,32.3,24.2,32.8,24.2,33.3z M22.8,33.3
    c0-0.4-0.1-0.8-0.2-1.1c-0.1-0.3-0.3-0.6-0.5-0.8c-0.2-0.2-0.4-0.4-0.7-0.5c-0.3-0.1-0.6-0.2-1-0.2h-1.4v5.1h1.4
    c0.4,0,0.7-0.1,1-0.2c0.3-0.1,0.5-0.3,0.7-0.5c0.2-0.2,0.3-0.5,0.5-0.8C22.8,34,22.8,33.7,22.8,33.3z"/>
    <path fill="#0064FE" d="M32.2,33.3c0,0.5-0.1,1-0.3,1.5c-0.2,0.5-0.4,0.8-0.7,1.2c-0.3,0.3-0.7,0.6-1.2,0.8c-0.4,0.2-0.9,0.3-1.5,0.3
    s-1-0.1-1.5-0.3s-0.8-0.4-1.2-0.8c-0.3-0.3-0.6-0.7-0.7-1.2c-0.2-0.5-0.3-0.9-0.3-1.5c0-0.5,0.1-1,0.3-1.5c0.2-0.5,0.4-0.8,0.7-1.2
    c0.3-0.3,0.7-0.6,1.2-0.8s1-0.3,1.5-0.3s1,0.1,1.5,0.3c0.5,0.2,0.8,0.4,1.2,0.8c0.3,0.3,0.6,0.7,0.7,1.2
    C32.1,32.3,32.2,32.8,32.2,33.3z M30.8,33.3c0-0.4-0.1-0.8-0.2-1.1c-0.1-0.3-0.3-0.6-0.5-0.8c-0.2-0.2-0.4-0.4-0.7-0.5
    c-0.3-0.1-0.6-0.2-1-0.2s-0.7,0.1-1,0.2c-0.3,0.1-0.5,0.3-0.7,0.5c-0.2,0.2-0.4,0.5-0.5,0.8c-0.1,0.3-0.2,0.7-0.2,1.1
    c0,0.4,0.1,0.8,0.2,1.1c0.1,0.3,0.3,0.6,0.5,0.8c0.2,0.2,0.4,0.4,0.7,0.5c0.3,0.1,0.6,0.2,1,0.2s0.7-0.1,1-0.2
    c0.3-0.1,0.5-0.3,0.7-0.5c0.2-0.2,0.3-0.5,0.5-0.8C30.8,34,30.8,33.7,30.8,33.3z"/>
    <path fill="#0064FE" d="M38.2,35.2c0.1,0,0.1,0,0.2,0.1l0.5,0.6c-0.3,0.4-0.7,0.6-1.1,0.8S36.9,37,36.3,37c-0.5,0-1-0.1-1.4-0.3
    c-0.4-0.2-0.8-0.4-1.1-0.8c-0.3-0.3-0.5-0.7-0.7-1.2c-0.2-0.5-0.2-0.9-0.2-1.5c0-0.5,0.1-1,0.3-1.5c0.2-0.5,0.4-0.8,0.8-1.2
    c0.3-0.3,0.7-0.6,1.2-0.8s1-0.3,1.5-0.3c0.5,0,1,0.1,1.4,0.3c0.4,0.2,0.7,0.4,1,0.7l-0.4,0.6c0,0-0.1,0.1-0.1,0.1s-0.1,0-0.2,0
    c-0.1,0-0.2,0-0.2-0.1c-0.1-0.1-0.2-0.1-0.3-0.2c-0.1-0.1-0.3-0.1-0.5-0.2c-0.2-0.1-0.4-0.1-0.7-0.1c-0.3,0-0.7,0.1-0.9,0.2
    s-0.5,0.3-0.7,0.5c-0.2,0.2-0.4,0.5-0.5,0.8c-0.1,0.3-0.2,0.7-0.2,1.1c0,0.4,0.1,0.8,0.2,1.1c0.1,0.3,0.3,0.6,0.5,0.8
    c0.2,0.2,0.4,0.4,0.7,0.5s0.6,0.2,0.9,0.2c0.2,0,0.3,0,0.5,0c0.1,0,0.3-0.1,0.4-0.1c0.1,0,0.2-0.1,0.4-0.2c0.1-0.1,0.2-0.2,0.3-0.3
    c0,0,0.1-0.1,0.1-0.1C38.1,35.2,38.2,35.2,38.2,35.2z"/>
</g>
</svg>
