<?xml version="1.0" encoding="utf-8"?>
<!-- Generator: Adobe Illustrator 22.0.1, SVG Export Plug-In . SVG Version: 6.00 Build 0)  -->
<svg version="1.1" id="Layer_1" xmlns="http://www.w3.org/2000/svg" xmlns:xlink="http://www.w3.org/1999/xlink" x="0px" y="0px"
	 viewBox="0 0 56 56" style="enable-background:new 0 0 56 56;" xml:space="preserve">
<style type="text/css">
	.st0{fill:#0064FE;}
</style>
<title>logout</title>
<g>
	<path class="st0" d="M16.8,44h22.6c2.6,0,4.7-2.1,4.7-4.7v-2.7c0-0.4-0.3-0.7-0.7-0.7s-0.7,0.3-0.7,0.7v2.7c0,1.8-1.5,3.3-3.3,3.3
		H16.8c-1.8,0-3.3-1.5-3.3-3.3v-2.7c0-0.4-0.3-0.7-0.7-0.7c-0.4,0-0.7,0.3-0.7,0.7v2.7C12.1,41.9,14.2,44,16.8,44z"/>
	<path class="st0" d="M28.1,12c-0.4,0-0.7,0.3-0.7,0.7v22.1l-8.6-8.6c-0.3-0.3-0.7-0.3-1,0c-0.3,0.3-0.3,0.7,0,1l9.7,9.7
		c0.3,0.3,0.7,0.3,1,0l9.7-9.7c0.3-0.3,0.3-0.7,0-1c-0.3-0.3-0.7-0.3-1,0l-8.6,8.6V12.7C28.8,12.3,28.5,12,28.1,12z"/>
</g>
</svg>
