<?xml version="1.0" encoding="UTF-8" standalone="no"?>
<svg version="1.1" viewBox="0 0 24 24" xmlns="http://www.w3.org/2000/svg">
    <!--Generated by IJSVG (https://github.com/curthard89/IJSVG)-->
    <g fill="none" stroke="#FFFFFF" stroke-linecap="round" stroke-linejoin="round" stroke-width="1">
        <path d="M6.57,21.6413l-6.57,1.54l1.54,-6.57l15.81,-15.8l-1.05053e-08,1.08211e-08c0.769397,-0.792529 2.03559,-0.81128 2.82812,-0.041883c0.014167,0.0137535 0.0281295,0.027716 0.041883,0.041883l2.15,2.15l5.19047e-08,5.03898e-08c0.792529,0.769397 0.81128,2.03559 0.0418829,2.82812c-0.0137535,0.014167 -0.027716,0.0281295 -0.041883,0.041883Z" transform="translate(0.65, 0.18872)"></path>
        <path d="M5.02,5.03l-5.02,-5.03" transform="translate(17.32, 1.68)"></path>
        <path d="M5.02,5.05l-5.02,-5.05" transform="translate(15.88, 3.11)"></path>
        <path d="M5.03,5.03l-5.03,-5.03" transform="translate(2.45, 16.54)"></path>
    </g>
</svg>
