<?xml version="1.0" encoding="utf-8"?>
<!-- Generator: Adobe Illustrator 22.0.1, SVG Export Plug-In . SVG Version: 6.00 Build 0)  -->
<svg version="1.1" id="Layer_1" xmlns="http://www.w3.org/2000/svg" xmlns:xlink="http://www.w3.org/1999/xlink" x="0px" y="0px"
	 viewBox="0 0 56 56" style="enable-background:new 0 0 56 56;" xml:space="preserve">
<style type="text/css">
	.st0{fill:#0064FE;}
	.st1{fill:none;}
	.st2{font-family:'Lato-Bold';}
	.st3{font-size:10px;}
</style>
<g>
	<path class="st0" d="M44.1,21.1c0-5-4.1-9.1-9.1-9.1H16.7c-0.4,0-0.6,0-0.9,0.1c-2.1,0.4-3.7,2.3-3.7,4.5v22.9c0,2.5,2,4.5,4.6,4.5
		h22.9c2.4,0,4.3-1.8,4.6-4.2L44.1,21.1z M35,13.5c4.2,0,7.6,3.4,7.6,7.6H38c-1.7,0-3-1.4-3-3V13.5z M42.6,39.4c0,1.7-1.4,3-3,3
		H16.7c-1.7,0-3-1.4-3-3V16.6c0-1.7,1.4-3,3-3h16.8v4.6c0,2.5,2,4.6,4.6,4.6h4.6L42.6,39.4z"/>
</g>
<rect x="13.7" y="29.3" class="st1" width="29" height="8.1"/>
<text transform="matrix(1 0 0 1 19.2756 36.7297)" class="st0 st2 st3">JPG</text>
</svg>
