<?xml version="1.0" encoding="utf-8"?>
<!-- Generator: Adobe Illustrator 22.0.1, SVG Export Plug-In . SVG Version: 6.00 Build 0)  -->
<svg version="1.1" id="Layer_1" xmlns="http://www.w3.org/2000/svg" xmlns:xlink="http://www.w3.org/1999/xlink" x="0px" y="0px"
	 viewBox="0 0 60 60" style="enable-background:new 0 0 60 60;" xml:space="preserve">
<style type="text/css">
	.st0{fill:none;stroke:#FFFFFF;stroke-width:2;stroke-linecap:round;stroke-linejoin:round;stroke-miterlimit:10;}
</style>
<g>
	<g>
		<path class="st0" d="M48.1,37.8l1.9-1.1l-2.6-4.5l-1.9,1.1c-0.9-0.9-2-1.5-3.2-1.9v-2.1H37v2.1c-1.2,0.4-2.4,1-3.2,1.9l-1.9-1.1
			l-2.6,4.5l1.9,1.1c-0.3,1.2-0.3,2.5,0,3.8l-1.9,1l2.6,4.5l1.9-1.1c0.9,0.9,2,1.5,3.2,1.9V50h5.2v-2.1c1.2-0.4,2.4-1,3.2-1.9
			l1.9,1.1l2.6-4.6l-1.9-1.1C48.4,40.1,48.4,39,48.1,37.8z"/>
		<circle class="st0" cx="39.6" cy="39.6" r="3.5"/>
	</g>
	<g>
		<polyline class="st0" points="25.8,34.4 24,34.4 17,41.4 17,34.4 10,34.4 10,10 46.6,10 46.6,25.6 		"/>
	</g>
</g>
</svg>
