<?xml version="1.0" encoding="utf-8"?>
<!-- Generator: Adobe Illustrator 21.1.0, SVG Export Plug-In . SVG Version: 6.00 Build 0)  -->
<svg version="1.1" id="Layer_1" xmlns="http://www.w3.org/2000/svg"  x="0px" y="0px"
	 viewBox="0 0 420 420" style="enable-background:new 0 0 420 420;" xml:space="preserve">
	<g>
		<path fill="#FFFFFF" d="M149.1,0H44.8C20.1,0,0,20.1,0,44.8v104.3c0,24.7,20.1,44.8,44.8,44.8h104.3c24.7,0,44.8-20.1,44.8-44.8V44.8
			C193.9,20.1,173.8,0,149.1,0z M44.8,20h104.3c13.7,0,24.8,11.1,24.8,24.8v9.1H20v-9.1C20,31.1,31.1,20,44.8,20z M149.1,173.9H44.8
			c-13.7,0-24.8-11.1-24.8-24.8V73.9h153.9v75.2C173.9,162.8,162.8,173.9,149.1,173.9z"/>
		<path fill="#FFFFFF" d="M375.2,0H270.9c-24.7,0-44.8,20.1-44.8,44.8v104.3c0,24.7,20.1,44.8,44.8,44.8h104.3c24.7,0,44.8-20.1,44.8-44.8V44.8
			C420,20.1,399.9,0,375.2,0z M270.9,20h104.3c13.7,0,24.8,11.1,24.8,24.8v9.1H246.1v-9.1C246.1,31.1,257.2,20,270.9,20z
			 M375.2,173.9H270.9c-13.7,0-24.8-11.1-24.8-24.8V73.9H400v75.2C400,162.8,388.9,173.9,375.2,173.9z"/>
		<path fill="#FFFFFF" d="M149.1,226.1H44.8C20.1,226.1,0,246.2,0,270.9v104.3C0,399.9,20.1,420,44.8,420h104.3c24.7,0,44.8-20.1,44.8-44.8V270.9
			C193.9,246.2,173.8,226.1,149.1,226.1z M44.8,246.1h104.3c13.7,0,24.8,11.1,24.8,24.8v12.6H20v-12.6
			C20,257.2,31.1,246.1,44.8,246.1z M149.1,400H44.8C31.1,400,20,388.9,20,375.2v-71.7h153.9v71.7C173.9,388.9,162.8,400,149.1,400z"
			/>
		<path fill="#FFFFFF" d="M375.2,226.1H270.9c-24.7,0-44.8,20.1-44.8,44.8v104.3c0,24.7,20.1,44.8,44.8,44.8h104.3c24.7,0,44.8-20.1,44.8-44.8V270.9
			C420,246.2,399.9,226.1,375.2,226.1z M270.9,246.1h104.3c13.7,0,24.8,11.1,24.8,24.8v12.6H246.1v-12.6
			C246.1,257.2,257.2,246.1,270.9,246.1z M375.2,400H270.9c-13.7,0-24.8-11.1-24.8-24.8v-71.7H400v71.7
			C400,388.9,388.9,400,375.2,400z"/>
	</g>
</svg>
