<svg className="brandbar-icon" xmlns="http://www.w3.org/2000/svg" viewBox="0 0 24 24" aria-labelledby="title">
	<title id="title">LogoutIcon</title>
	<!--<path fill="#FFFFFF" d="M13.5,18.021c-0.276,0 -0.5,0.224 -0.5,0.5v2.479h-12v-20h12v3.5c0,0.276 0.224,0.5 0.5,0.5c0.276,0 0.5,-0.224 0.5,-0.5v-4c0,-0.276 -0.224,-0.5 -0.5,-0.5h-13c-0.276,0 -0.5,0.224 -0.5,0.5v21c0,0.276 0.224,0.5 0.5,0.5h13c0.276,0 0.5,-0.224 0.5,-0.5v-2.979c0,-0.277 -0.224,-0.5 -0.5,-0.5Z" transform="translate(1, 1)"></path>-->
	<!--<path fill="#FFFFFF" d="M17.5,5.056h-15.801l4.154,-4.154c0.195,-0.195 0.195,-0.512 0,-0.707c-0.195,-0.195 -0.512,-0.195 -0.707,0l-5,5c-0.098,0.098 -0.146,0.228 -0.145,0.357c0,0.002 -0.001,0.003 -0.001,0.004c0,0.149 0.068,0.279 0.171,0.37l4.976,4.976c0.195,0.195 0.512,0.195 0.707,0c0.195,-0.195 0.195,-0.512 0,-0.707l-4.139,-4.139h15.785c0.276,0 0.5,-0.224 0.5,-0.5c0,-0.276 -0.224,-0.5 -0.5,-0.5Z" transform="translate(5, 6.944)"></path>-->
</svg>