<?xml version="1.0" encoding="utf-8"?>
<!-- Generator: Adobe Illustrator 22.0.1, SVG Export Plug-In . SVG Version: 6.00 Build 0)  -->
<svg version="1.1" id="Layer_1" xmlns="http://www.w3.org/2000/svg" xmlns:xlink="http://www.w3.org/1999/xlink" x="0px" y="0px"
     viewBox="0 0 56 56" style="enable-background:new 0 0 56 56;" xml:space="preserve">
<style type="text/css">
    .st0{fill:#0064FE;}
</style>
<title>logout</title>
<g>
    <g>
    <path id="SVGID_2_" class="st0" d="M44.1,21.1c0-5-4.1-9.1-9.1-9.1H16.7c-0.4,0-0.6,0-0.9,0.1c-2.1,0.4-3.7,2.3-3.7,4.5v22.9l0,0
    c0,2.5,2,4.5,4.6,4.5h22.9c2.4,0,4.3-1.8,4.6-4.2L44.1,21.1L44.1,21.1z M35,13.5L35,13.5c4.2,0,7.6,3.4,7.6,7.6H38
    c-1.7,0-3-1.4-3-3V13.5z M42.6,39.4L42.6,39.4c0,1.7-1.4,3-3,3H16.7c-1.7,0-3-1.4-3-3V16.6c0-1.7,1.4-3,3-3h16.8v4.6l0,0
    c0,2.5,2,4.6,4.6,4.6h4.6L42.6,39.4z"/>
    </g>
    <g>
    <defs>
    <path id="SVGID_1_" d="M44.1,21.1c0-5-4.1-9.1-9.1-9.1H16.7c-0.4,0-0.6,0-0.9,0.1c-2.1,0.4-3.7,2.3-3.7,4.5v22.9l0,0
    c0,2.5,2,4.5,4.6,4.5h22.9c2.4,0,4.3-1.8,4.6-4.2L44.1,21.1L44.1,21.1z M35,13.5L35,13.5c4.2,0,7.6,3.4,7.6,7.6H38
    c-1.7,0-3-1.4-3-3V13.5z M42.6,39.4L42.6,39.4c0,1.7-1.4,3-3,3H16.7c-1.7,0-3-1.4-3-3V16.6c0-1.7,1.4-3,3-3h16.8v4.6l0,0
    c0,2.5,2,4.6,4.6,4.6h4.6L42.6,39.4z"/>
    </defs>
    <clipPath id="SVGID_3_">
    <use xlink:href="#SVGID_1_"  style="overflow:visible;"/>
    </clipPath>
    </g>
</g>
<g>
    <path fill="#0064FE" d="M20.6,34.4v2.5h-1.3v-7.2h2.4c0.5,0,0.9,0.1,1.3,0.2c0.4,0.1,0.6,0.3,0.9,0.5c0.2,0.2,0.4,0.4,0.5,0.7s0.2,0.6,0.2,0.9
    c0,0.3-0.1,0.7-0.2,1c-0.1,0.3-0.3,0.5-0.5,0.8s-0.5,0.4-0.9,0.5s-0.8,0.2-1.2,0.2H20.6z M20.6,33.3h1c0.2,0,0.5,0,0.6-0.1
    c0.2-0.1,0.3-0.1,0.5-0.3s0.2-0.3,0.3-0.4s0.1-0.3,0.1-0.6c0-0.2,0-0.4-0.1-0.5c-0.1-0.2-0.1-0.3-0.3-0.4c-0.1-0.1-0.3-0.2-0.5-0.3
    c-0.2-0.1-0.4-0.1-0.6-0.1h-1V33.3z"/>
    <path fill="#0064FE" d="M31.9,33.3c0,0.5-0.1,1-0.3,1.5c-0.2,0.4-0.4,0.8-0.7,1.1c-0.3,0.3-0.7,0.6-1.2,0.7c-0.4,0.2-0.9,0.3-1.5,0.3h-2.8v-7.2
    h2.8c0.5,0,1,0.1,1.5,0.3c0.5,0.2,0.8,0.4,1.2,0.7c0.3,0.3,0.6,0.7,0.7,1.1C31.8,32.3,31.9,32.8,31.9,33.3z M30.5,33.3
    c0-0.4-0.1-0.8-0.2-1.1c-0.1-0.3-0.3-0.6-0.5-0.8c-0.2-0.2-0.4-0.4-0.7-0.5c-0.3-0.1-0.6-0.2-1-0.2h-1.4v5.1h1.4
    c0.4,0,0.7-0.1,1-0.2c0.3-0.1,0.5-0.3,0.7-0.5c0.2-0.2,0.3-0.5,0.5-0.8C30.5,34,30.5,33.7,30.5,33.3z"/>
    <path fill="#0064FE" d="M37.5,29.7v1.1h-3.2v2.1H37V34h-2.7v2.9h-1.4v-7.2H37.5z"/>
</g>
</svg>
