<?xml version="1.0" encoding="UTF-8"?>
<svg width="36px" height="34px" viewBox="0 0 36 34" version="1.1" xmlns="http://www.w3.org/2000/svg" xmlns:xlink="http://www.w3.org/1999/xlink">
    <title>Group@2x</title>
    <g id="Page-1" stroke="none" stroke-width="1" fill="none" fill-rule="evenodd">
        <g id="Desktop" transform="translate(-494.000000, -530.000000)">
            <g id="Group" transform="translate(495.000000, 530.000000)">
                <rect id="Rectangle" x="0" y="0" width="34" height="34"></rect>
                <g id="Group-134" transform="translate(22.666667, 4.062500)" stroke="#000000" stroke-linecap="round" stroke-linejoin="round">
                    <path d="M11.0972222,5.66666667 C11.0972222,8.66622222 8.66527778,11.0972222 5.66666667,11.0972222 C2.66616667,11.0972222 0.236111111,8.66622222 0.236111111,5.66666667 C0.236111111,2.66711111 2.66616667,0.236111111 5.66666667,0.236111111 C8.66527778,0.236111111 11.0972222,2.66711111 11.0972222,5.66666667 L11.0972222,5.66666667 Z" id="Stroke-3126"></path>
                    <polyline id="Stroke-3127" points="5.43055556 3.06944444 5.43055556 5.66666667 8.26388889 8.26388889"></polyline>
                </g>
                <g id="Group-817" transform="translate(0.000000, 3.141667)" stroke="#000000" stroke-linecap="round" stroke-linejoin="round">
                    <path d="M19.4083333,17.425 C15.4762333,17.425 15.4736833,11.05 19.4083333,11.05" id="Stroke-1242"></path>
                    <line x1="15.5833333" y1="13.175" x2="18.9833333" y2="13.175" id="Stroke-1243"></line>
                    <line x1="15.5833333" y1="14.875" x2="18.9833333" y2="14.875" id="Stroke-1244"></line>
                    <line x1="15.1583333" y1="7.225" x2="21.1083333" y2="7.225" id="Stroke-1245"></line>
                    <line x1="3.825" y1="7.225" x2="9.775" y2="7.225" id="Stroke-1245"></line>
                    <line x1="0.425" y1="3.825" x2="6.375" y2="3.825" id="Stroke-1245"></line>
                    <line x1="1.55833333" y1="11.7583333" x2="8.64166667" y2="11.7583333" id="Stroke-1245"></line>
                    <path d="M18.9833333,2.55 L18.1333333,0.425 L17.2833333,2.55 L14.3083333,1.275 C14.3083333,1.275 16.0083333,3.825 16.0083333,5.525 L20.2583333,5.525 C20.2583333,3.825 21.9583333,1.275 21.9583333,1.275 L18.9833333,2.55 Z" id="Stroke-1246"></path>
                    <path d="M15.7697383,8.925 C13.9014383,10.3037 11.7585883,13.09425 11.7585883,15.3 C11.7585883,18.35235 13.4585883,19.975 18.1335883,19.975 C22.8085883,19.975 24.5085883,18.35235 24.5085883,15.3 C24.5085883,13.09425 22.3657383,10.3037 20.4965883,8.925 L15.7697383,8.925 Z" id="Stroke-1247"></path>
                </g>
                <g id="Group-831" transform="translate(1.133333, 19.008333)" stroke="#000000" stroke-linejoin="round">
                    <polygon id="Stroke-1185" points="0.566666667 9.68093333 5.1 9.68093333 5.1 0.566666667 0.566666667 0.566666667"></polygon>
                    <path d="M5.1,7.93333333 C17,11.9 13.0333333,11.9 26.6333333,5.1 C25.4286,3.89526667 24.4777333,3.61193333 23.2333333,3.96666667 L18.2081333,5.6338" id="Stroke-1186" stroke-linecap="round"></path>
                    <path d="M5.1,1.7 L8.5,1.7 C11.1656,1.7 13.0333333,3.4 13.6,3.96666667 L17,3.96666667 C18.8065333,3.96666667 18.8065333,6.23333333 17,6.23333333 L10.7666667,6.23333333" id="Stroke-1187" stroke-linecap="round"></path>
                </g>
            </g>
        </g>
    </g>
</svg>