<?xml version="1.0" encoding="UTF-8"?>
<svg width="34px" height="28px" viewBox="0 0 34 28" version="1.1" xmlns="http://www.w3.org/2000/svg" xmlns:xlink="http://www.w3.org/1999/xlink">
    <title>Prepayment</title>
    <g id="Page-1" stroke="none" stroke-width="1" fill="none" fill-rule="evenodd" stroke-linejoin="round">
        <g id="Desktop" transform="translate(-534.000000, -529.000000)" stroke="#0064FE">
            <g id="Group" transform="translate(535.000000, 530.000000)">
                <g id="Group-134" transform="translate(21.333333, 1.000000)" stroke-linecap="round">
                    <path d="M10.4444444,5.33333333 C10.4444444,8.15644444 8.15555556,10.4444444 5.33333333,10.4444444 C2.50933333,10.4444444 0.222222222,8.15644444 0.222222222,5.33333333 C0.222222222,2.51022222 2.50933333,0.222222222 5.33333333,0.222222222 C8.15555556,0.222222222 10.4444444,2.51022222 10.4444444,5.33333333 L10.4444444,5.33333333 Z" id="Stroke-3126"></path>
                    <polyline id="Stroke-3127" points="5.11111111 2.88888889 5.11111111 5.33333333 7.77777778 7.77777778"></polyline>
                </g>
                <g id="Group-817" transform="translate(0.000000, 0.133333)" stroke-linecap="round">
                    <path d="M18.2666667,16.4 C14.5658667,16.4 14.5634667,10.4 18.2666667,10.4" id="Stroke-1242"></path>
                    <line x1="14.6666667" y1="12.4" x2="17.8666667" y2="12.4" id="Stroke-1243"></line>
                    <line x1="14.6666667" y1="14" x2="17.8666667" y2="14" id="Stroke-1244"></line>
                    <line x1="14.2666667" y1="6.8" x2="19.8666667" y2="6.8" id="Stroke-1245"></line>
                    <line x1="3.6" y1="6.8" x2="9.2" y2="6.8" id="Stroke-1245"></line>
                    <line x1="0.4" y1="3.6" x2="6" y2="3.6" id="Stroke-1245"></line>
                    <line x1="1.46666667" y1="11.0666667" x2="8.13333333" y2="11.0666667" id="Stroke-1245"></line>
                    <path d="M17.8666667,2.4 L17.0666667,0.4 L16.2666667,2.4 L13.4666667,1.2 C13.4666667,1.2 15.0666667,3.6 15.0666667,5.2 L19.0666667,5.2 C19.0666667,3.6 20.6666667,1.2 20.6666667,1.2 L17.8666667,2.4 Z" id="Stroke-1246"></path>
                    <path d="M14.8421067,8.4 C13.0837067,9.6976 11.0669067,12.324 11.0669067,14.4 C11.0669067,17.2728 12.6669067,18.8 17.0669067,18.8 C21.4669067,18.8 23.0669067,17.2728 23.0669067,14.4 C23.0669067,12.324 21.0501067,9.6976 19.2909067,8.4 L14.8421067,8.4 Z" id="Stroke-1247"></path>
                </g>
                <g id="Group-831" transform="translate(1.066667, 15.066667)">
                    <polygon id="Stroke-1185" points="0.533333333 9.11146667 4.8 9.11146667 4.8 0.533333333 0.533333333 0.533333333"></polygon>
                    <path d="M4.8,7.46666667 C16,11.2 12.2666667,11.2 25.0666667,4.8 C23.9328,3.66613333 23.0378667,3.39946667 21.8666667,3.73333333 L17.1370667,5.3024" id="Stroke-1186" stroke-linecap="round"></path>
                    <path d="M4.8,1.6 L8,1.6 C10.5088,1.6 12.2666667,3.2 12.8,3.73333333 L16,3.73333333 C17.7002667,3.73333333 17.7002667,5.86666667 16,5.86666667 L10.1333333,5.86666667" id="Stroke-1187" stroke-linecap="round"></path>
                </g>
            </g>
        </g>
    </g>
</svg>
