<?xml version="1.0" encoding="utf-8"?>
<!-- Generator: Adobe Illustrator 22.0.1, SVG Export Plug-In . SVG Version: 6.00 Build 0)  -->
<svg xmlns="http://www.w3.org/2000/svg" xmlns:xlink="http://www.w3.org/1999/xlink" version="1.1" id="Layer_1" x="0px" y="0px" viewBox="0 0 60 60" style="enable-background:new 0 0 60 60;" xml:space="preserve">
<style type="text/css">
	.st0{fill:#0064FE;}
</style>
<path class="st0" d="M50,25.4c-0.5-0.3-1.2-0.2-1.5,0.3l-1.7,2.4c-0.9-6.2-6.2-10.9-12.5-10.9c-7,0-12.7,5.7-12.7,12.7  s5.7,12.7,12.7,12.7c3.5,0,6.8-1.5,9.2-3.9c0.5-0.5,0.5-1.2,0-1.7c-0.5-0.5-1.2-0.5-1.7,0c-2,2.1-4.7,3.3-7.6,3.3  c-5.7,0-10.4-4.7-10.4-10.4s4.7-10.4,10.4-10.4c5.4,0,10,4.2,10.4,9.7l-2.4-2.9c-0.5-0.5-1.1-0.6-1.7-0.2c-0.5,0.5-0.6,1.1-0.2,1.7  l4.2,5c0.2,0.3,0.6,0.5,0.9,0.5l0,0c0.3,0,0.6-0.2,0.9-0.5l3.8-5.6C50.7,26.4,50.6,25.8,50,25.4z"/>
<path class="st0" d="M34.3,25.7c1.1,0,1.8,0.8,1.8,1.8c0,0.5,0.3,0.8,0.8,0.8s0.8-0.3,0.8-0.8c0-1.5-1.1-2.9-2.6-3.2v-1.1  c0-0.5-0.3-0.8-0.8-0.8s-0.8,0.3-0.8,0.8v1.1c-1.5,0.3-2.6,1.7-2.6,3.2c0,1.8,1.5,3.3,3.3,3.3c1.1,0,1.8,0.8,1.8,1.8  c0,1.1-0.8,1.8-1.8,1.8s-1.8-0.8-1.8-1.8c0-0.5-0.3-0.8-0.8-0.8c-0.5,0-0.8,0.3-0.8,0.8c0,1.5,1.1,2.9,2.6,3.2v1.1  c0,0.5,0.3,0.8,0.8,0.8s0.8-0.3,0.8-0.8v-1.1c1.5-0.3,2.6-1.7,2.6-3.2c0-1.8-1.5-3.3-3.3-3.3c-1.1,0-1.8-0.8-1.8-1.8  C32.4,26.6,33.2,25.7,34.3,25.7z"/>
<path class="st0" d="M18.1,29h-6.3c-0.6,0-1.2,0.5-1.2,1.2c0,0.8,0.5,1.2,1.2,1.2h6.5c0.6,0,1.2-0.5,1.2-1.2  C19.5,29.4,18.7,29,18.1,29z"/>
<path class="st0" d="M18.1,34.6h-3c-0.6,0-1.2,0.5-1.2,1.2c0,0.8,0.5,1.2,1.2,1.2h3c0.6,0,1.2-0.5,1.2-1.2  C19.3,35,18.7,34.6,18.1,34.6z"/>
<path class="st0" d="M18.1,23.3h-3.2c-0.6,0-1.2,0.5-1.2,1.2c0,0.8,0.6,1.1,1.2,1.1h3.2c0.6,0,1.2-0.5,1.2-1.2S18.7,23.3,18.1,23.3z  "/>
</svg>
