<?xml version="1.0" encoding="UTF-8" standalone="no"?>
<svg version="1.1" viewBox="0 0 24 24" xmlns="http://www.w3.org/2000/svg">
    <!--Generated by IJSVG (https://github.com/curthard89/IJSVG)-->
    <g fill="#FFFFFF">
        <path d="M0,0.5v7.652c0,0.276 0.224,0.5 0.5,0.5c0.276,0 0.5,-0.224 0.5,-0.5v-7.652c0,-0.276 -0.224,-0.5 -0.5,-0.5c-0.276,0 -0.5,0.224 -0.5,0.5Z" transform="translate(11, 8.653)"></path>
        <path d="M12.061,0.339c-0.17,-0.339 -0.725,-0.339 -0.895,0l-11,22c-0.166,0.335 0.079,0.724 0.448,0.724h22c0.007,0 0.015,0.001 0.02,0c0.438,0 0.657,-0.519 0.372,-0.834l-10.945,-21.89Zm-10.638,21.724l10.191,-20.382l10.191,20.382h-20.382Z" transform="translate(-0.114, 0.937)"></path>
        <path d="M1.80474,0.390524c0.390524,0.390524 0.390524,1.02369 0,1.41421c-0.390524,0.390524 -1.02369,0.390524 -1.41421,0c-0.390524,-0.390524 -0.390524,-1.02369 0,-1.41421c0.390524,-0.390524 1.02369,-0.390524 1.41421,0" transform="translate(10.4024, 18.9024)"></path>
    </g>
    <path fill="none" d="M0,0h24v24h-24Z"></path>
</svg>
