<?xml version="1.0" encoding="UTF-8"?>
<svg width="24px" height="24px" viewBox="0 0 24 24" version="1.1" xmlns="http://www.w3.org/2000/svg" xmlns:xlink="http://www.w3.org/1999/xlink">
    <title>Group 768</title>
    <g id="Page-1" stroke="none" stroke-width="1" fill="none" fill-rule="evenodd">
        <g id="Artboard" transform="translate(-1099.000000, -1008.000000)">
            <g id="Frames-24px" transform="translate(19.000000, 240.000000)">
                <rect id="Rectangle-1-Copy-969" x="1080" y="768" width="24" height="24"></rect>
            </g>
            <g id="Icons" transform="translate(19.000000, 240.000000)" stroke="#000000" stroke-linecap="round" stroke-linejoin="round">
                <g id="Group-768" transform="translate(1080.000000, 768.000000)">
                    <line x1="0.5" y1="22.5" x2="23.5" y2="22.5" id="Stroke-8265"></line>
                    <polyline id="Stroke-8266" points="4.5 22.5 4.5 17.5 1.5 17.5 1.5 22.5"></polyline>
                    <polyline id="Stroke-8267" points="10.5 22.5 10.5 12.5 7.5 12.5 7.5 22.5"></polyline>
                    <polyline id="Stroke-8268" points="16.5 22.5 16.5 14.5 13.5 14.5 13.5 22.5"></polyline>
                    <polyline id="Stroke-8269" points="22.5 22.5 22.5 7.5 19.5 7.5 19.5 22.5"></polyline>
                    <polyline id="Stroke-8270" points="21.5 0.5 15 7.5 9 5.5 3 10.5"></polyline>
                    <polyline id="Stroke-8271" points="17.5 0.5 21.5 0.5 21.5 4.5"></polyline>
                </g>
            </g>
            <g id="Text" transform="translate(19.000000, 48.000000)"></g>
        </g>
    </g>
</svg>