<?xml version="1.0" encoding="utf-8"?>
<!-- Generator: Adobe Illustrator 22.0.1, SVG Export Plug-In . SVG Version: 6.00 Build 0)  -->
<svg version="1.1" id="Layer_1" xmlns="http://www.w3.org/2000/svg" xmlns:xlink="http://www.w3.org/1999/xlink" x="5px" y="5px"
	 viewBox="-5 -5 42 42" style="enable-background:new 0 0 42 42;background: #002d72" xml:space="preserve">
<style type="text/css">
	.st0{fill:#FFFFFF;}
</style>
<path class="st0" d="M18.26 7.22v1.61a1 1 0 002 0V6.22v-.06a1 1 0 00-.05-.27V5.8a1 1 0 00-.21-.29L14.75.29A1 1 0 0014 0H6.22a1 1 0 00-.71.29L.29 5.51a1 1 0 00-.19.29v.09a1 1 0 00-.1.27v14.41a1 1 0 001 1h7.83a1 1 0 000-2H2V7.22zm-1.41-2h-5.72V2h2.5zM6.63 2h2.5v3.22H3.41zm15.24 9.74A10.13 10.13 0 1032 21.87a10.14 10.14 0 00-10.13-10.13zm0 18.26A8.13 8.13 0 1130 21.87 8.14 8.14 0 0121.87 30zm4.91-6.83a1 1 0 01-1 1h-3.91a1 1 0 01-1-1v-6.52a1 1 0 012 0v5.52h2.91a1 1 0 011 1z"></path>
<title>Request History</title>
</svg>
