<?xml version="1.0" encoding="UTF-8"?>
<svg width="17px" height="14px" viewBox="0 0 17 14" version="1.1" xmlns="http://www.w3.org/2000/svg" xmlns:xlink="http://www.w3.org/1999/xlink">
    <!-- Generator: Sketch 64 (93537) - https://sketch.com -->
    <title>Icon / medium / reload</title>
    <desc>Created with Sketch.</desc>
    <defs>
        <path d="M9.26689283,1.00400643 C7.1941175,1.07700643 5.23341265,1.97350643 3.88750957,3.46450643 C2.89684878,4.56150643 2.31323644,5.90700643 2.16839063,7.35700643 L0.968390626,5.65450643 C0.806099877,5.42450643 0.478346573,5.36250643 0.235174767,5.51550643 C-0.00746840483,5.66900643 -0.0730190656,5.97950643 0.0887430489,6.20900643 L2.25138622,9.27700643 C2.34231133,9.40650643 2.49244349,9.48850643 2.65632014,9.49900643 C2.6679501,9.49950643 2.67958005,9.5 2.69121001,9.5 C2.84292807,9.5 2.98830252,9.43800643 3.08874305,9.32900643 L5.61191486,6.60200643 C5.80433776,6.39400643 5.78213512,6.07800643 5.56222323,5.89650643 C5.34283997,5.71450643 5.00874305,5.73600643 4.81632014,5.94300643 L3.20134217,7.68850643 C3.28380913,6.35050643 3.79182675,5.11050643 4.69156243,4.11400643 C5.84557124,2.83500643 7.52768578,2.06600643 9.30601177,2.00350643 C12.7823113,1.88650643 15.7257475,4.46450643 15.8542056,7.75700643 C15.9821351,11.0510064 13.2533245,13.8295064 9.77121001,13.9510064 C7.8142056,14.0225064 5.96239944,13.2425064 4.69843468,11.8205064 C4.51076948,11.6090064 4.1772012,11.5825064 3.95358886,11.7595064 C3.72997653,11.9370064 3.70143027,12.2525064 3.88909547,12.4640064 C5.30424966,14.0560064 7.34847873,14.9550064 9.53279591,14.9550064 C9.62530693,14.9550064 9.71781794,14.9535064 9.80980032,14.9505064 C13.8744699,14.8085064 17.0600206,11.5655064 16.9109457,7.72050643 C16.7608135,3.87700643 13.3368488,0.875006432 9.26689283,1.00400643" id="path-1"></path>
    </defs>
    <g id="Page-1" stroke="none" stroke-width="1" fill="none" fill-rule="evenodd">
        <g id="Icon-/-medium-/-reload" transform="translate(0.000000, -1.000000)">
            <polygon id="fill" points="0 0 16.9162996 0 16.9162996 16 0 16"></polygon>
            <mask id="mask-2" fill="white">
                <use xlink:href="#path-1"></use>
            </mask>
            <use id="color" fill="#0064FE" fill-rule="evenodd" xlink:href="#path-1"></use>
        </g>
    </g>
</svg>