<svg version="1.1" viewBox="0 0 24 24" xmlns="http://www.w3.org/2000/svg">
    <path fill="#ffffff" d="M23.854,23.146l-9.009,-9.009c1.336,-1.502 2.155,-3.473 2.155,-5.637c0,-4.687 -3.813,-8.5 -8.5,-8.5c-4.687,0 -8.5,3.813 -8.5,8.5c0,4.687 3.813,8.5 8.5,8.5c2.164,0 4.135,-0.819 5.637,-2.156l9.009,9.009c0.195,0.195 0.512,0.195 0.707,0c0.196,-0.195 0.196,-0.511 0.001,-0.707Zm-22.854,-14.646c0,-4.136 3.364,-7.5 7.5,-7.5c4.136,0 7.5,3.364 7.5,7.5c0,4.136 -3.364,7.5 -7.5,7.5c-4.136,0 -7.5,-3.364 -7.5,-7.5Z"></path>
    <path fill="none" d="M0,0h24v24h-24Z"></path>
</svg>
