<?xml version="1.0" encoding="UTF-8"?>
<svg width="16px" height="16px" viewBox="0 0 16 16" version="1.1" xmlns="http://www.w3.org/2000/svg" xmlns:xlink="http://www.w3.org/1999/xlink">
    <!-- Generator: Sketch 64 (93537) - https://sketch.com -->
    <title>Icon / medium / trash</title>
    <desc>Created with Sketch.</desc>
    <defs>
        <path d="M10.23065,8.8817842e-16 C10.50065,8.8817842e-16 10.71965,0.224 10.71965,0.5 L10.71965,0.5 L10.71965,1.9565 L15.01115,1.9565 C15.28115,1.9565 15.50015,2.1805 15.50015,2.4565 C15.50015,2.7325 15.28115,2.9565 15.01115,2.9565 L15.01115,2.9565 L13.26915,2.9565 L13.26915,15.5 C13.26915,15.776 13.05015,16 12.78065,16 L12.78065,16 L2.58215,16 C2.31215,16 2.09365,15.776 2.09365,15.5 L2.09365,15.5 L2.09365,2.9565 L0.98865,2.9565 C0.71865,2.9565 0.50015,2.7325 0.50015,2.4565 C0.50015,2.1805 0.71865,1.9565 0.98865,1.9565 L0.98865,1.9565 L4.64315,1.9565 L4.64315,0.5 C4.64315,0.224 4.86215,8.8817842e-16 5.13165,8.8817842e-16 L5.13165,8.8817842e-16 Z M12.29165,2.9565 L3.07065,2.9565 L3.07065,15 L12.29165,15 L12.29165,2.9565 Z M5.0653,4.739 C5.3413,4.739 5.5653,4.963 5.5653,5.239 L5.5653,5.239 L5.5653,12.565 C5.5653,12.8415 5.3413,13.065 5.0653,13.065 C4.7893,13.065 4.5653,12.8415 4.5653,12.565 L4.5653,12.565 L4.5653,5.239 C4.5653,4.963 4.7893,4.739 5.0653,4.739 Z M7.67395,4.739 C7.94995,4.739 8.17395,4.963 8.17395,5.239 L8.17395,5.239 L8.17395,12.565 C8.17395,12.8415 7.94995,13.065 7.67395,13.065 C7.39795,13.065 7.17395,12.8415 7.17395,12.565 L7.17395,12.565 L7.17395,5.239 C7.17395,4.963 7.39795,4.739 7.67395,4.739 Z M10.2826,4.739 C10.5586,4.739 10.7826,4.963 10.7826,5.239 L10.7826,5.239 L10.7826,12.565 C10.7826,12.8415 10.5586,13.065 10.2826,13.065 C10.0066,13.065 9.7826,12.8415 9.7826,12.565 L9.7826,12.565 L9.7826,5.239 C9.7826,4.963 10.0066,4.739 10.2826,4.739 Z M9.74215,1 L9.74215,1.9565 L5.62065,1.9565 L5.62065,1 L9.74215,1 Z" id="path-1"></path>
    </defs>
    <g id="Page-1" stroke="none" stroke-width="1" fill="none" fill-rule="evenodd">
        <g id="Icon-/-medium-/-trash">
            <rect id="fill" x="0" y="0" width="16" height="16"></rect>
            <mask id="mask-2" fill="white">
                <use xlink:href="#path-1"></use>
            </mask>
            <use id="color" fill="#0064FE" fill-rule="evenodd" xlink:href="#path-1"></use>
        </g>
    </g>
</svg>