<?xml version="1.0" encoding="utf-8"?>
<!-- Generator: Adobe Illustrator 22.0.1, SVG Export Plug-In . SVG Version: 6.00 Build 0)  -->
<svg version="1.1" id="Layer_1" xmlns="http://www.w3.org/2000/svg" xmlns:xlink="http://www.w3.org/1999/xlink" x="0px" y="0px"
	 viewBox="0 0 56 56" style="enable-background:new 0 0 56 56;" xml:space="preserve">
<style type="text/css">
	.st0{fill:#0064FE;}
	.st1{clip-path:url(#SVGID_4_);fill:#0064FE;}
	.st2{clip-path:url(#SVGID_6_);fill:#0064FE;}
</style>
<title>logout</title>
<g>
	<g>
		<path id="SVGID_1_" class="st0" d="M33.8,27.3h-5.2v-5.2c0-0.4-0.3-0.7-0.7-0.7c-0.4,0-0.7,0.3-0.7,0.7v5.2h-5.2
			c-0.4,0-0.7,0.3-0.7,0.7s0.3,0.7,0.7,0.7h5.2v5.2c0,0.4,0.3,0.7,0.7,0.7s0.7-0.3,0.7-0.7v-5.2h5.2c0.4,0,0.7-0.3,0.7-0.7
			C34.7,27.6,34.3,27.3,33.8,27.3z"/>
	</g>
	<g>
		<defs>
			<path id="SVGID_2_" d="M33.8,27.3h-5.2v-5.2c0-0.4-0.3-0.7-0.7-0.7c-0.4,0-0.7,0.3-0.7,0.7v5.2h-5.2c-0.4,0-0.7,0.3-0.7,0.7
				s0.3,0.7,0.7,0.7h5.2v5.2c0,0.4,0.3,0.7,0.7,0.7s0.7-0.3,0.7-0.7v-5.2h5.2c0.4,0,0.7-0.3,0.7-0.7C34.7,27.6,34.3,27.3,33.8,27.3z
				"/>
		</defs>
		<clipPath id="SVGID_4_">
			<use xlink:href="#SVGID_2_"  style="overflow:visible;"/>
		</clipPath>
		<rect x="14.7" y="14.7" class="st1" width="26.7" height="26.7"/>
	</g>
</g>
<g>
	<g>
		<path id="SVGID_3_" class="st0" d="M44,21.1c0-5-4.1-9.1-9.1-9.1H16.6c-0.4,0-0.6,0-0.9,0.1c-2.1,0.4-3.7,2.3-3.7,4.5v22.9l0,0
			c0,2.5,2,4.5,4.6,4.5h22.9c2.4,0,4.3-1.8,4.6-4.2L44,21.1L44,21.1z M34.8,13.5L34.8,13.5c4.2,0,7.6,3.4,7.6,7.6h-4.6
			c-1.7,0-3-1.4-3-3V13.5z M42.5,39.4L42.5,39.4c0,1.7-1.4,3-3,3H16.6c-1.7,0-3-1.4-3-3V16.6c0-1.7,1.4-3,3-3h16.8v4.6l0,0
			c0,2.5,2,4.6,4.6,4.6h4.6L42.5,39.4z"/>
	</g>
	<g>
		<defs>
			<path id="SVGID_5_" d="M44,21.1c0-5-4.1-9.1-9.1-9.1H16.6c-0.4,0-0.6,0-0.9,0.1c-2.1,0.4-3.7,2.3-3.7,4.5v22.9l0,0
				c0,2.5,2,4.5,4.6,4.5h22.9c2.4,0,4.3-1.8,4.6-4.2L44,21.1L44,21.1z M34.8,13.5L34.8,13.5c4.2,0,7.6,3.4,7.6,7.6h-4.6
				c-1.7,0-3-1.4-3-3V13.5z M42.5,39.4L42.5,39.4c0,1.7-1.4,3-3,3H16.6c-1.7,0-3-1.4-3-3V16.6c0-1.7,1.4-3,3-3h16.8v4.6l0,0
				c0,2.5,2,4.6,4.6,4.6h4.6L42.5,39.4z"/>
		</defs>
		<clipPath id="SVGID_6_">
			<use xlink:href="#SVGID_5_"  style="overflow:visible;"/>
		</clipPath>
		<rect x="5.3" y="5.3" class="st2" width="45.3" height="45.3"/>
	</g>
</g>
</svg>
