<?xml version="1.0" encoding="utf-8"?>
<!-- Generator: Adobe Illustrator 22.0.1, SVG Export Plug-In . SVG Version: 6.00 Build 0)  -->
<svg version="1.1" id="Layer_1" xmlns="http://www.w3.org/2000/svg" xmlns:xlink="http://www.w3.org/1999/xlink" x="0px" y="0px"
	 viewBox="0 0 56 56" style="enable-background:new 0 0 56 56;" xml:space="preserve">
<style type="text/css">
	.st0{fill:none;stroke:#FFFFFF;stroke-width:2;stroke-linejoin:round;stroke-miterlimit:10;}
	.st1{fill:none;stroke:#FFFFFF;stroke-width:2;stroke-linecap:round;stroke-linejoin:round;stroke-miterlimit:10;}
</style>
<title>logout</title>
<g>
	<rect x="12" y="35.2" class="st0" width="5.6" height="9.7"/>
	<path class="st1" d="M17.6,43.6h23.7c0-2.1-4.9-4.2-10.4-4.2h-9.7"/>
	<path class="st0" d="M17.6,36.6h4.9c3.3,0,4.9,2.1,5.6,2.8"/>
	<g>
		<circle class="st0" cx="32.9" cy="24.1" r="4.2"/>
		<path class="st0" d="M41.8,22.2l2.2-1.3l-2.8-4.8L39,17.4c-0.9-0.8-2-1.5-3.3-1.9V13h-5.6v2.5c-1.2,0.4-2.3,1.1-3.3,1.9l-2.2-1.3
			l-2.8,4.8l2.2,1.3c-0.3,1.2-0.3,2.5,0,3.8l-2.2,1.3l2.8,4.8l2.2-1.3c0.9,0.8,2,1.5,3.3,1.9v2.5h5.6v-2.5c1.2-0.4,2.3-1.1,3.3-1.9
			l2.2,1.3l2.8-4.8L41.8,26C42,24.8,42,23.5,41.8,22.2z"/>
	</g>
</g>
</svg>
