<?xml version="1.0" encoding="utf-8"?>
<!-- Generator: Adobe Illustrator 22.0.1, SVG Export Plug-In . SVG Version: 6.00 Build 0)  -->
<svg version="1.1" id="Layer_1" xmlns="http://www.w3.org/2000/svg" xmlns:xlink="http://www.w3.org/1999/xlink" x="0px" y="0px"
     viewBox="0 0 56 56" style="enable-background:new 0 0 56 56;" xml:space="preserve">
<style type="text/css">
    .st0{fill:#0064FE;}
</style>
<title>logout</title>
<g>
    <g>
    <path id="SVGID_2_" class="st0" d="M44.1,21.1c0-5-4.1-9.1-9.1-9.1H16.7c-0.4,0-0.6,0-0.9,0.1c-2.1,0.4-3.7,2.3-3.7,4.5v22.9l0,0
    c0,2.5,2,4.5,4.6,4.5h22.9c2.4,0,4.3-1.8,4.6-4.2L44.1,21.1L44.1,21.1z M35,13.5L35,13.5c4.2,0,7.6,3.4,7.6,7.6H38
    c-1.7,0-3-1.4-3-3V13.5z M42.6,39.4L42.6,39.4c0,1.7-1.4,3-3,3H16.7c-1.7,0-3-1.4-3-3V16.6c0-1.7,1.4-3,3-3h16.8v4.6l0,0
    c0,2.5,2,4.6,4.6,4.6h4.6L42.6,39.4z"/>
    </g>
    <g>
    <defs>
    <path id="SVGID_1_" d="M44.1,21.1c0-5-4.1-9.1-9.1-9.1H16.7c-0.4,0-0.6,0-0.9,0.1c-2.1,0.4-3.7,2.3-3.7,4.5v22.9l0,0
    c0,2.5,2,4.5,4.6,4.5h22.9c2.4,0,4.3-1.8,4.6-4.2L44.1,21.1L44.1,21.1z M35,13.5L35,13.5c4.2,0,7.6,3.4,7.6,7.6H38
    c-1.7,0-3-1.4-3-3V13.5z M42.6,39.4L42.6,39.4c0,1.7-1.4,3-3,3H16.7c-1.7,0-3-1.4-3-3V16.6c0-1.7,1.4-3,3-3h16.8v4.6l0,0
    c0,2.5,2,4.6,4.6,4.6h4.6L42.6,39.4z"/>
    </defs>
    <clipPath id="SVGID_3_">
    <use xlink:href="#SVGID_1_"  style="overflow:visible;"/>
    </clipPath>
    </g>
</g>
<g>
    <path fill="#0064FE" d="M24.3,35.2c0.1,0,0.1,0,0.2,0.1l0.5,0.6c-0.3,0.4-0.7,0.6-1.1,0.8S23,37,22.4,37c-0.5,0-1-0.1-1.4-0.3
    c-0.4-0.2-0.8-0.4-1.1-0.8c-0.3-0.3-0.5-0.7-0.7-1.2c-0.2-0.5-0.2-0.9-0.2-1.5c0-0.5,0.1-1,0.3-1.5c0.2-0.5,0.4-0.8,0.8-1.2
    c0.3-0.3,0.7-0.6,1.2-0.8c0.5-0.2,1-0.3,1.5-0.3c0.5,0,1,0.1,1.4,0.3c0.4,0.2,0.7,0.4,1,0.7l-0.5,0.6c0,0-0.1,0.1-0.1,0.1
    c0,0-0.1,0-0.2,0c-0.1,0-0.2,0-0.2-0.1c-0.1-0.1-0.2-0.1-0.3-0.2c-0.1-0.1-0.3-0.1-0.5-0.2c-0.2-0.1-0.4-0.1-0.7-0.1
    c-0.3,0-0.7,0.1-0.9,0.2c-0.3,0.1-0.5,0.3-0.7,0.5c-0.2,0.2-0.4,0.5-0.5,0.8c-0.1,0.3-0.2,0.7-0.2,1.1c0,0.4,0.1,0.8,0.2,1.1
    c0.1,0.3,0.3,0.6,0.5,0.8c0.2,0.2,0.4,0.4,0.7,0.5s0.6,0.2,0.9,0.2c0.2,0,0.3,0,0.5,0c0.1,0,0.3-0.1,0.4-0.1c0.1,0,0.2-0.1,0.4-0.2
    c0.1-0.1,0.2-0.2,0.3-0.3c0,0,0.1-0.1,0.1-0.1C24.2,35.2,24.2,35.2,24.3,35.2z"/>
    <path fill="#0064FE" d="M29.9,31c0,0.1-0.1,0.1-0.1,0.2s-0.1,0-0.2,0c-0.1,0-0.1,0-0.2-0.1s-0.2-0.1-0.3-0.2s-0.2-0.1-0.4-0.2
    c-0.2-0.1-0.3-0.1-0.5-0.1c-0.2,0-0.3,0-0.5,0.1c-0.1,0-0.3,0.1-0.3,0.2c-0.1,0.1-0.2,0.2-0.2,0.3c0,0.1-0.1,0.2-0.1,0.4
    c0,0.2,0,0.3,0.1,0.4c0.1,0.1,0.2,0.2,0.4,0.3s0.3,0.2,0.5,0.2s0.4,0.1,0.6,0.2c0.2,0.1,0.4,0.2,0.6,0.2c0.2,0.1,0.4,0.2,0.5,0.4
    c0.2,0.1,0.3,0.3,0.4,0.5c0.1,0.2,0.1,0.5,0.1,0.8c0,0.3-0.1,0.6-0.2,0.9c-0.1,0.3-0.3,0.5-0.5,0.7c-0.2,0.2-0.5,0.4-0.8,0.5
    c-0.3,0.1-0.7,0.2-1.1,0.2c-0.2,0-0.5,0-0.7-0.1s-0.4-0.1-0.6-0.2s-0.4-0.2-0.6-0.3c-0.2-0.1-0.3-0.2-0.5-0.4l0.4-0.6
    c0,0,0.1-0.1,0.1-0.1c0.1,0,0.1,0,0.2,0c0.1,0,0.2,0,0.3,0.1s0.2,0.1,0.3,0.2c0.1,0.1,0.3,0.2,0.5,0.2c0.2,0.1,0.4,0.1,0.6,0.1
    c0.4,0,0.7-0.1,0.9-0.3c0.2-0.2,0.3-0.4,0.3-0.8c0-0.2,0-0.3-0.1-0.5c-0.1-0.1-0.2-0.2-0.4-0.3c-0.2-0.1-0.3-0.2-0.5-0.2
    c-0.2-0.1-0.4-0.1-0.6-0.2c-0.2-0.1-0.4-0.1-0.6-0.2c-0.2-0.1-0.4-0.2-0.5-0.4c-0.2-0.2-0.3-0.3-0.4-0.6c-0.1-0.2-0.1-0.5-0.1-0.8
    c0-0.3,0.1-0.5,0.2-0.8s0.3-0.5,0.5-0.7s0.4-0.3,0.7-0.5c0.3-0.1,0.6-0.2,1-0.2c0.4,0,0.8,0.1,1.2,0.2c0.4,0.1,0.7,0.3,0.9,0.6
    L29.9,31z"/>
    <path fill="#0064FE" d="M30.7,29.7h1.1c0.1,0,0.2,0,0.3,0.1c0.1,0.1,0.1,0.1,0.2,0.2l1.7,4.4c0.1,0.1,0.1,0.3,0.2,0.5c0.1,0.2,0.1,0.4,0.1,0.5
    c0.1-0.4,0.2-0.7,0.3-1l1.7-4.4c0-0.1,0.1-0.1,0.2-0.2s0.2-0.1,0.3-0.1h1.1l-2.9,7.2h-1.2L30.7,29.7z"/>
</g>
</svg>
