<?xml version="1.0" encoding="utf-8"?>
<!-- Generator: Adobe Illustrator 22.0.1, SVG Export Plug-In . SVG Version: 6.00 Build 0)  -->
<svg version="1.1" id="Layer_1" xmlns="http://www.w3.org/2000/svg" xmlns:xlink="http://www.w3.org/1999/xlink" x="0px" y="0px"
	 viewBox="0 0 56 56" style="enable-background:new 0 0 56 56;" xml:space="preserve">
<style type="text/css">
	.st0{fill:#FFFFFF;}
</style>
<title>logout</title>
<path class="st0" d="M30,42.7H12.6c-0.4,0-0.7-0.3-0.7-0.7V14c0-0.4,0.3-0.7,0.7-0.7H30c0.4,0,0.7,0.3,0.7,0.7v5.3
	c0,0.4-0.3,0.7-0.7,0.7s-0.7-0.3-0.7-0.7v-4.7h-16v26.7h16v-4.7c0-0.4,0.3-0.7,0.7-0.7s0.7,0.3,0.7,0.7V42
	C30.7,42.4,30.4,42.7,30,42.7z"/>
<path class="st0" d="M36.7,28H19.3c-0.4,0-0.7,0.3-0.7,0.7c0,0.4,0.3,0.7,0.7,0.7h17.4V28z"/>
<path class="st0" d="M36.7,36c-0.1,0-0.4,0-0.5-0.1c-0.3-0.3-0.3-0.7,0-0.9l6.1-6.1l-6.1-6.1c-0.3-0.3-0.3-0.7,0-0.9
	c0.3-0.3,0.7-0.3,0.9,0l6.7,6.7c0.3,0.3,0.3,0.7,0,0.9L37.1,36C37.1,36,36.8,36,36.7,36z"/>
</svg>
