<?xml version="1.0" encoding="utf-8"?>
<!-- Generator: Adobe Illustrator 22.0.1, SVG Export Plug-In . SVG Version: 6.00 Build 0)  -->
<svg version="1.1" id="Layer_1" xmlns="http://www.w3.org/2000/svg" xmlns:xlink="http://www.w3.org/1999/xlink" x="0px" y="0px"
	 viewBox="0 0 56 56" style="enable-background:new 0 0 56 56;" xml:space="preserve">
<style type="text/css">
	.st0{fill:#FFFFFF;}
</style>
<title>logout icon</title>
<g id="Page-1">
	<g id="logout_icon">
		<g transform="translate(4.000000, 5.000000)">
			<g>
				<path class="st0" d="M28.7,37.7H11.3c-0.4,0-0.7-0.3-0.7-0.7V9c0-0.4,0.3-0.7,0.7-0.7h17.4c0.4,0,0.7,0.3,0.7,0.7v5.3
					c0,0.4-0.3,0.7-0.7,0.7S28,14.7,28,14.3V9.6H12v26.7h16v-4.7c0-0.4,0.3-0.7,0.7-0.7s0.7,0.3,0.7,0.7V37
					C29.4,37.4,29.1,37.7,28.7,37.7z"/>
			</g>
			<g>
				<g>
					<path class="st0" d="M35.4,23H18c-0.4,0-0.7,0.3-0.7,0.7c0,0.4,0.3,0.7,0.7,0.7h17.4V23z"/>
				</g>
				<path class="st0" d="M35.4,31c-0.1,0-0.4,0-0.5-0.1c-0.3-0.3-0.3-0.7,0-0.9l6.1-6.1l-6.1-6.1c-0.3-0.3-0.3-0.7,0-0.9
					c0.3-0.3,0.7-0.3,0.9,0l6.7,6.7c0.3,0.3,0.3,0.7,0,0.9L35.8,31C35.8,31,35.5,31,35.4,31z"/>
			</g>
		</g>
	</g>
</g>
</svg>
