<svg id="Ebene_1" data-name="Ebene 1" xmlns="http://www.w3.org/2000/svg" viewBox="0 0 32 32"><defs><style>.cls-1{fill:#010101;}</style></defs><title>icon</title><path class="cls-1" d="M31,3.53a1,1,0,0,0,0-.19,1,1,0,0,0,0-.13A1,1,0,0,0,30.87,3s0,0,0-.06l0-.05a1,1,0,0,0-.14-.15l-.1-.08-.06,0-.12,0-.12,0-.2,0h-.13a1,1,0,0,0-.23,0l-.08,0-28,11.31a1,1,0,0,0,0,1.86L12,19.67V28.5a1,1,0,0,0,1.86.51l3.81-6.39,7,3.78a1,1,0,0,0,1.45-.67L31,3.72s0,0,0,0A.94.94,0,0,0,31,3.53Zm-5.81,3L12.74,17.82l-8-3ZM14,24.87V20.65l1.91,1ZM24.44,24l-9.76-5.25L28.34,6.35Z"/></svg>