<svg id="Ebene_1" data-name="Ebene 1" xmlns="http://www.w3.org/2000/svg" viewBox="0 0 32 32"><defs><style>.cls-1{fill:#1d1d1b;fill-rule:evenodd;}</style></defs><title>icons</title><path class="cls-1" d="M21,27h9V20a1,1,0,0,1,2,0v8a1,1,0,0,1-1,1H21a1,1,0,0,1,0-2ZM11,27a1,1,0,0,1,0,2H1a1,1,0,0,1-1-1V20a1,1,0,0,1,2,0v7ZM21,5a1,1,0,0,1,0-2H31a1,1,0,0,1,1,1v8a1,1,0,0,1-2,0V5ZM2,5v7a1,1,0,0,1-2,0V4A1,1,0,0,1,1,3H11a1,1,0,0,1,0,2ZM20,9h1V23H20Zm5,0h1V23H25ZM14,9h1V23H14ZM7,9H8V23H7Zm5,0h1V23H12ZM22,9h2V23H22ZM9,9h2V23H9Zm7,0h3V23H16Z"/></svg>