<svg id="Ebene_1" data-name="Ebene 1" xmlns="http://www.w3.org/2000/svg" viewBox="0 0 32 32"><defs><style>.cls-1{fill:#010101;}</style></defs><title>icon</title><path class="cls-1" d="M32,1V12.74a1,1,0,0,1-1,1H26.81l-5.58,5A1,1,0,0,1,19.57,18V13.74h-1a1,1,0,0,1,0-2h2a1,1,0,0,1,1,1v3L25.77,12a1,1,0,0,1,.66-.25H30V2H12.43V6.22a1,1,0,0,1-2,0V1a1,1,0,0,1,1-1H31A1,1,0,0,1,32,1ZM21.57,27.74V31a1,1,0,0,1-1,1H1a1,1,0,0,1-1-1V27.74c0-.41,0-1.65,7.17-4.59V21.74A4.37,4.37,0,0,1,5.9,18.69a2.31,2.31,0,0,1-1-2A2.63,2.63,0,0,1,5.3,15.2a2,2,0,0,1,.29-.34c-.43-1-.89-2.3-.17-3.2A1.75,1.75,0,0,1,6.81,11c.75-1.17,2.4-1.9,4.48-1.9h0c2.53,0,4.43,1.06,4.84,2.71a5,5,0,0,1-.3,3,2.34,2.34,0,0,1,.57,1.62,2.79,2.79,0,0,1-.83,2.09,4.53,4.53,0,0,1-1.18,3.13v1.43C21.57,26.09,21.57,27.33,21.57,27.74Zm-2,.29A32.81,32.81,0,0,0,13,24.75a1,1,0,0,1-.63-.93V21.22c0-.48.17-.84.64-.93,0,0,.56-.49.56-2.33a1,1,0,0,1,.72-1,1.4,1.4,0,0,0,.08-.67,1,1,0,0,1-.81-1,2,2,0,0,1,.23-.81,3.57,3.57,0,0,0,.39-2.21c-.17-.68-1.42-1.2-2.9-1.2h0c-1.48,0-2.73.52-2.9,1.2a1,1,0,0,1-1.17.74l-.16,0a8.34,8.34,0,0,0,.5,1.34,2.38,2.38,0,0,1,.3,1,1,1,0,0,1-.92,1,.9.9,0,0,0,0,.61,1,1,0,0,1,.92,1c0,1.94.69,2.34.7,2.34a.91.91,0,0,1,.6.92v2.61a1,1,0,0,1-.63.93A32.81,32.81,0,0,0,2,28v2H19.57ZM17.32,7.79A1.32,1.32,0,1,0,16,6.47,1.32,1.32,0,0,0,17.32,7.79Zm4.95-1.32a1.32,1.32,0,1,0-1.32,1.32A1.32,1.32,0,0,0,22.26,6.47Zm3.91,0a1.32,1.32,0,1,0-1.32,1.32A1.32,1.32,0,0,0,26.18,6.47Z"/></svg>