<svg id="Ebene_1" data-name="Ebene 1" xmlns="http://www.w3.org/2000/svg" viewBox="0 0 32 32"><defs><style>.cls-1{fill:#010101;}</style></defs><title>icon</title><path class="cls-1" d="M16,25.5a14.42,14.42,0,0,1-4.21-.65,1,1,0,0,1,.58-1.92A12.42,12.42,0,0,0,16,23.5c6.44,0,12-5.6,13.68-7.5a29,29,0,0,0-4.46-4,1,1,0,0,1,1.17-1.62,29.67,29.67,0,0,1,5.39,5,1,1,0,0,1,0,1.25C31.5,17,24.67,25.5,16,25.5Z"/><path class="cls-1" d="M6.17,21.84a1,1,0,0,1-.59-.19,29.66,29.66,0,0,1-5.37-5,1,1,0,0,1,0-1.25C.5,15,7.33,6.5,16,6.5A14.17,14.17,0,0,1,19.51,7,1,1,0,0,1,19,8.9a12.2,12.2,0,0,0-3-.39C9.57,8.5,4,14.1,2.32,16a29,29,0,0,0,4.45,4,1,1,0,0,1-.59,1.81Z"/><path class="cls-1" d="M10.78,17a1,1,0,0,1-1-1A6.23,6.23,0,0,1,16,9.77a1,1,0,0,1,0,2A4.23,4.23,0,0,0,11.78,16,1,1,0,0,1,10.78,17Z"/><path class="cls-1" d="M16,22.23a1,1,0,0,1,0-2A4.23,4.23,0,0,0,20.22,16a1,1,0,1,1,2,0A6.23,6.23,0,0,1,16,22.23Z"/><path class="cls-1" d="M3.11,29.52a1,1,0,0,1-.69-1.72L28.18,2.7a1,1,0,1,1,1.4,1.43L3.82,29.24A1,1,0,0,1,3.11,29.52Z"/></svg>