<svg id="Ebene_1" data-name="Ebene 1" xmlns="http://www.w3.org/2000/svg" viewBox="0 0 32 32"><defs><style>.cls-1{fill:#010101;}</style></defs><title>icon</title><path class="cls-1" d="M31,16.17V27a1,1,0,0,1-1,1H2a1,1,0,0,1-1-1V16.17a1,1,0,0,1,1-1H9.91a1,1,0,1,1,0,2H3V26H29V17.17H24.52a1,1,0,0,1,0-2H30A1,1,0,0,1,31,16.17Zm-17.95-.94A1,1,0,0,1,13.2,15a.94.94,0,0,1,.05-.08h0L24,4.29a1,1,0,0,1,1.41,0l3.44,3.4a1,1,0,0,1,0,1.42L18.12,19.75a1,1,0,0,1-.31.21h0l-6,2.54a1,1,0,0,1-1.31-1.32L13,15.26h0Zm.25,4.46,2.35-1-1.34-1.33Zm2.09-4.06,2,2,7.1-7-2-2Zm8.53-8.42,2,2,.81-.8-2-2Z"/></svg>