<svg id="Ebene_1" data-name="Ebene 1" xmlns="http://www.w3.org/2000/svg" viewBox="0 0 32 32"><defs><style>.cls-1{fill:#010101;}</style></defs><title>icon</title><path class="cls-1" d="M30,22.91a1,1,0,0,0-1,1v2.44A2.65,2.65,0,0,1,26.35,29H5.65A2.65,2.65,0,0,1,3,26.35V23.91a1,1,0,0,0-2,0v2.44A4.66,4.66,0,0,0,5.65,31h20.7A4.66,4.66,0,0,0,31,26.35V23.91A1,1,0,0,0,30,22.91Z"/><path class="cls-1" d="M15.29,24.48a1,1,0,0,0,1.42,0l8.91-8.91a1,1,0,0,0-1.41-1.41L17,21.36V2a1,1,0,0,0-2,0V21.36l-7.2-7.2a1,1,0,0,0-1.41,1.41Z"/></svg>