<svg id="Ebene_1" data-name="Ebene 1" xmlns="http://www.w3.org/2000/svg" viewBox="0 0 32 32"><defs><style>.cls-1{fill:#010101;}</style></defs><title>icon</title><path class="cls-1" d="M20.57,28.74H1a1,1,0,0,1-1-1V21.87c0-.41,0-1.65,7.17-4.59V15.87a4.42,4.42,0,0,1-1.28-3.15A2.81,2.81,0,0,1,5,10.61a2.45,2.45,0,0,1,.35-1.33A1.8,1.8,0,0,1,5.61,9c-.41-1-.85-2.31-.11-3.21a1.78,1.78,0,0,1,1.41-.63c.75-1.17,2.43-1.9,4.53-1.9C14,3.26,15.91,4.33,16.32,6A5,5,0,0,1,16,9a1.71,1.71,0,0,1,.2.26,2.45,2.45,0,0,1,.34,1.31,2.84,2.84,0,0,1-.86,2.13,4.43,4.43,0,0,1-1.28,3.15v1.41c7.17,2.94,7.17,4.17,7.17,4.59v5.87A1,1,0,0,1,20.57,28.74ZM2,26.74H19.57V22.16A32.81,32.81,0,0,0,13,18.89a1,1,0,0,1-.63-.93V15.35a1,1,0,0,1,.67-.94h0s.64-.43.64-2.32a1,1,0,0,1,.73-1,1.42,1.42,0,0,0,.1-.67,1,1,0,0,1-.79-1A2,2,0,0,1,14,8.66a3.51,3.51,0,0,0,.4-2.2c-.17-.67-1.46-1.2-2.94-1.2s-2.77.53-2.94,1.2a1,1,0,0,1-1.17.74l-.21,0a7.69,7.69,0,0,0,.48,1.38,2.39,2.39,0,0,1,.28.93,1,1,0,0,1-.83,1,1.38,1.38,0,0,0,.09.66,1,1,0,0,1,.73,1c0,1.94.69,2.34.7,2.34a.91.91,0,0,1,.6.92V18a1,1,0,0,1-.63.93A32.81,32.81,0,0,0,2,22.16Z"/><path class="cls-1" d="M31,28.74H24.83a1,1,0,0,1,0-2H30V22.22a25.32,25.32,0,0,0-2.9-1.16c-.77-.28-1.58-.57-2.34-.87a1,1,0,0,1-.63-.93v-2a1,1,0,0,1,.73-1h0s.57-.27.57-1.65a1,1,0,0,1,.58-.91,2,2,0,0,0,.07-.77,1,1,0,0,1-.64-.94,1.6,1.6,0,0,1,.3-.84,2,2,0,0,0,.41-1.46C26,9.47,25.16,9,23.83,9s-2.2.45-2.31.78a1,1,0,0,1-1.09.67,8,8,0,0,0,.29.85,2.09,2.09,0,0,1,.2.77,1,1,0,0,1-.66.94,1.92,1.92,0,0,0,.08.76,1,1,0,0,1,.29.2,1,1,0,0,1,.29.71c0,1.39.6,1.65.62,1.66a1,1,0,0,1,.67,1.23,1,1,0,0,1-1.26.69,3.2,3.2,0,0,1-2-3,3,3,0,0,1-.7-2.06A2.8,2.8,0,0,1,18.51,12a1.87,1.87,0,0,1,.2-.3A2.7,2.7,0,0,1,18.78,9,1.65,1.65,0,0,1,20,8.43,4.93,4.93,0,0,1,23.83,7c1.69,0,3.68.56,4.21,2.15a3.38,3.38,0,0,1-.32,2.63l.12.2a2.86,2.86,0,0,1,.26,1.24,3,3,0,0,1-.68,2,3.6,3.6,0,0,1-1.28,2.6v.69l1.64.6c2.9,1,4.23,1.52,4.23,2.69v5.87A1,1,0,0,1,31,28.74Zm-11.09-15h0Z"/></svg>