<svg id="Ebene_1" data-name="Ebene 1" xmlns="http://www.w3.org/2000/svg" viewBox="0 0 32 32"><defs><style>.cls-1{fill:#010101;}</style></defs><title>icon</title><path class="cls-1" d="M32,15.4a3.07,3.07,0,0,0-3-3.09H19.32a37.71,37.71,0,0,0,1.09-7,4.65,4.65,0,0,0-1-3.16A3.15,3.15,0,0,0,17,1a2.58,2.58,0,0,0-2.7,2.57c0,6-4.86,10.13-9.23,10.13H1a1,1,0,0,0-1,1V27.22a1,1,0,0,0,1,1c6.18,0,8.2.88,10,1.66A10.8,10.8,0,0,0,16,31h8.86a3.07,3.07,0,0,0,3-3.09,3.11,3.11,0,0,0-.33-1.41,3.11,3.11,0,0,0,1.36-4.17,3.11,3.11,0,0,0,1.36-4.17A3.09,3.09,0,0,0,32,15.4Zm-3,1.09H27.59a1,1,0,0,0,0,2,1.09,1.09,0,0,1,0,2.17H26.23a1,1,0,0,0,0,2,1.09,1.09,0,0,1,0,2.17H24.86a1,1,0,0,0,0,2,1.09,1.09,0,0,1,0,2.17H16a8.9,8.9,0,0,1-4.22-1C10,27.28,7.84,26.32,2,26.23V15.7H5.09c5.31,0,11.23-5,11.23-12.13,0-.45.44-.57.7-.57a1.13,1.13,0,0,1,.86.42,2.81,2.81,0,0,1,.53,1.85,44.15,44.15,0,0,1-1.33,7.79,1,1,0,0,0,1,1.25H29a1.09,1.09,0,0,1,0,2.17Z"/></svg>