<svg id="Ebene_1" data-name="Ebene 1" xmlns="http://www.w3.org/2000/svg" viewBox="0 0 32 32"><defs><style>.cls-1{fill:#010101;}</style></defs><title>icon</title><path class="cls-1" d="M11.43,16.91h-1.3a1,1,0,0,0-.7.29L5.91,20.66V17.91a1,1,0,0,0-1-1H2V3.48H24.78v7.36a1,1,0,0,0,2,0V2.48a1,1,0,0,0-1-1H1a1,1,0,0,0-1,1V17.91a1,1,0,0,0,1,1H3.91v4.14a1,1,0,0,0,1.7.71l4.93-4.85h.89a1,1,0,1,0,0-2Z"/><path class="cls-1" d="M31,13.05H15.35a1,1,0,0,0-1,1V24.34a1,1,0,0,0,1,1h6.8l5.59,4.9a1,1,0,0,0,1.66-.75V25.34H31a1,1,0,0,0,1-1V14.05A1,1,0,0,0,31,13.05ZM30,23.34H28.39a1,1,0,0,0-1,1v2.94l-4.21-3.69a1,1,0,0,0-.66-.25H16.35V15.05H30Z"/></svg>