<svg id="Ebene_1" data-name="Ebene 1" xmlns="http://www.w3.org/2000/svg" viewBox="0 0 32 32"><defs><style>.cls-1{fill:#010101;}</style></defs><title>icon</title><path class="cls-1" d="M29,30H3a1,1,0,0,1-1-1c0-.46,0-4.6.75-6.57.62-1.69,3.37-2.66,7.8-4.1l1.57-.51V16a5,5,0,0,1-2.89-4.59V8.85l-.07-.25c-.29-1-.83-2.91.21-4.06a2.38,2.38,0,0,1,1.92-.73c1-1.31,3.29-1.8,5.35-1.8h0c2.43,0,5.22.68,5.75,2.59A5.18,5.18,0,0,1,21.7,8.3a2.39,2.39,0,0,1,.72,1.77,2.51,2.51,0,0,1-.47,1.49,2,2,0,0,1-.64.57,5.51,5.51,0,0,1-1.42,3.62v2.07l1.72.56c4.06,1.32,7,2.27,7.65,4.05C30,24.4,30,28.54,30,29A1,1,0,0,1,29,30ZM4,28H28a20.2,20.2,0,0,0-.6-4.88c-.32-.87-3.68-2-6.39-2.84l-2.42-.8a1,1,0,0,1-.68-.95V15.28a1,1,0,0,1,.51-.87s.93-.66.93-3a1,1,0,0,1,1-1,.44.44,0,0,0,.08-.3.5.5,0,0,0-.08-.31,1,1,0,0,1-1-1,2,2,0,0,1,.38-1,4,4,0,0,0,.74-2.64C20.33,4.67,18.89,4,16.63,4h0c-2.26,0-3.69.67-3.82,1.13a1,1,0,0,1-1.14.72c-.56-.1-.79,0-.83,0s-.23.57.23,2.17a2.65,2.65,0,0,1,.15.73v2.6a3,3,0,0,0,2.17,2.95,1,1,0,0,1,.72,1v3.26a1,1,0,0,1-.68.95l-2.27.75c-2.33.76-6.22,2-6.54,2.89A20.12,20.12,0,0,0,4,28Z"/></svg>