<svg id="Ebene_1" data-name="Ebene 1" xmlns="http://www.w3.org/2000/svg" viewBox="0 0 32 32"><defs><style>.cls-1{fill:#010101;}</style></defs><title>icon</title><path class="cls-1" d="M31,2C24.86,2,18.42,3.22,16,5.51,13.58,3.22,7.14,2,1,2A1,1,0,0,0,0,3V24.45a1,1,0,0,0,1,1c8.68,0,14,2.3,14,3.55a1,1,0,0,0,2,0c0-1.25,5.32-3.55,14-3.55a1,1,0,0,0,1-1V3A1,1,0,0,0,31,2ZM2,23.46V4c8.09.17,13,2.34,13,3.54V26.21C12.26,24.51,7.11,23.57,2,23.46Zm28,0c-5.11.11-10.26,1.05-13,2.75V7.55C17,6.35,21.91,4.18,30,4Z"/></svg>