<svg id="Ebene_1" data-name="Ebene 1" xmlns="http://www.w3.org/2000/svg" viewBox="0 0 32 32"><defs><style>.cls-1{fill:#010101;}</style></defs><title>icon</title><path class="cls-1" d="M30,1H2A1,1,0,0,0,1,2V30a1,1,0,0,0,1,1H30a1,1,0,0,0,1-1V2A1,1,0,0,0,30,1ZM29,29H3V3H29Z"/><path class="cls-1" d="M7.38,14.66a1,1,0,0,0,1.41,0l6.09-6.09a1,1,0,0,0-1.41-1.41L8.09,12.54,6.36,10.81a1,1,0,0,0-1.41,1.41Z"/><path class="cls-1" d="M7.38,24.62a1,1,0,0,0,1.41,0l6.09-6.09a1,1,0,0,0-1.41-1.41L8.09,22.5,6.36,20.77a1,1,0,0,0-1.41,1.41Z"/><path class="cls-1" d="M17.61,12.74h7.74a1,1,0,0,0,0-2H17.61a1,1,0,0,0,0,2Z"/><path class="cls-1" d="M17.61,23.7h7.74a1,1,0,0,0,0-2H17.61a1,1,0,0,0,0,2Z"/></svg>