<svg id="Ebene_1" data-name="Ebene 1" xmlns="http://www.w3.org/2000/svg" viewBox="0 0 32 32"><defs><style>.cls-1{fill:#010101;}</style></defs><title>icon</title><path class="cls-1" d="M16,32a1,1,0,0,1-.59-.19c-.5-.36-12.15-8.89-12.15-18.42C3.26,5.76,8.74,0,16,0S28.74,5.76,28.74,13.39c0,9.53-11.66,18.06-12.15,18.42A1,1,0,0,1,16,32ZM16,2C9.88,2,5.26,6.9,5.26,13.39c0,7.37,8.42,14.52,10.74,16.35,2.32-1.83,10.74-9,10.74-16.35C26.74,6.9,22.12,2,16,2Zm0,18.26a7.52,7.52,0,1,1,7.52-7.52A7.53,7.53,0,0,1,16,20.26Zm0-13a5.52,5.52,0,1,0,5.52,5.52A5.53,5.53,0,0,0,16,7.22Z"/></svg>