<svg id="Ebene_1" data-name="Ebene 1" xmlns="http://www.w3.org/2000/svg" viewBox="0 0 32 32"><defs><style>.cls-1{fill:#010101;}</style></defs><title>icon</title><path class="cls-1" d="M17.53,2A14.1,14.1,0,0,0,7.35,7,13.9,13.9,0,0,0,4.1,14.75L1.83,11.35A1,1,0,0,0,.17,12.46l4.09,6.14A1,1,0,0,0,5,19h.07a1,1,0,0,0,.75-.34l4.77-5.45a1,1,0,0,0-1.5-1.32L6.06,15.42A12,12,0,0,1,8.88,8.27,12,12,0,0,1,30,15.55a12,12,0,0,1-21.1,8.13A1,1,0,0,0,7.36,25a13.87,13.87,0,0,0,10.68,5h.52A14,14,0,0,0,17.53,2Z"/></svg>