<svg id="Ebene_1" data-name="Ebene 1" xmlns="http://www.w3.org/2000/svg" viewBox="0 0 32 32"><defs><style>.cls-1{fill:#010101;}</style></defs><title>icon</title><path class="cls-1" d="M23.2,17.44a1,1,0,0,0-1,1V27H5V9.78h8.6a1,1,0,1,0,0-2H4a1,1,0,0,0-1,1V28a1,1,0,0,0,1,1H23.2a1,1,0,0,0,1-1V18.44A1,1,0,0,0,23.2,17.44Z"/><path class="cls-1" d="M28.92,3.62a1,1,0,0,0-.21-.32h0l0,0A1,1,0,0,0,28,3H18.4a1,1,0,0,0,0,2h7.19L8.09,22.51a1,1,0,1,0,1.41,1.41L27,6.42v7.19a1,1,0,0,0,2,0V4h0A1,1,0,0,0,28.92,3.62Z"/></svg>