<svg id="Ebene_1" data-name="Ebene 1" xmlns="http://www.w3.org/2000/svg" viewBox="0 0 80 80"><title>icon</title><path d="M52.62,19A24.52,24.52,0,0,0,17,48.48,24.52,24.52,0,0,0,64,44.85,24.76,24.76,0,0,0,52.62,19ZM40.23,25.39A2.63,2.63,0,1,1,37.6,28,2.63,2.63,0,0,1,40.23,25.39ZM47,55.55H33A1.75,1.75,0,0,1,33,52h5.49V37.52H35A1.75,1.75,0,0,1,35,34h5.25A1.75,1.75,0,0,1,42,35.77V52h5a1.75,1.75,0,0,1,0,3.5ZM40,0A40,40,0,1,0,80,40,40,40,0,0,0,40,0ZM54.39,64.06A28,28,0,0,1,13.66,30.43,28.31,28.31,0,0,1,40,12,28.32,28.32,0,0,1,67.46,34.5,28.29,28.29,0,0,1,54.39,64.06Z"/></svg>