<svg id="Ebene_1" data-name="Ebene 1" xmlns="http://www.w3.org/2000/svg" viewBox="0 0 32 32"><defs><style>.cls-1{fill:#010101;}</style></defs><title>icon</title><path class="cls-1" d="M31.78,15.38C31.5,15,24.67,6.5,16,6.5S.5,15,.22,15.38a1,1,0,0,0,0,1.25C.5,17,7.33,25.5,16,25.5S31.5,17,31.78,16.62A1,1,0,0,0,31.78,15.38ZM16,23.5C9.58,23.5,4,17.9,2.32,16,4,14.1,9.57,8.5,16,8.5S28,14.1,29.68,16C28,17.9,22.43,23.5,16,23.5ZM16,9.77A6.23,6.23,0,1,0,22.22,16,6.23,6.23,0,0,0,16,9.77Zm0,10.46A4.23,4.23,0,1,1,20.22,16,4.23,4.23,0,0,1,16,20.23Z"/></svg>