<svg id="Ebene_1" data-name="Ebene 1" xmlns="http://www.w3.org/2000/svg" viewBox="0 0 32 32"><defs><style>.cls-1{fill:#010101;}</style></defs><title>icon</title><path class="cls-1" d="M14.64,9.14a1.5,1.5,0,1,1,1.5,1.5A1.5,1.5,0,0,1,14.64,9.14Z"/><path class="cls-1" d="M20,22.86H17.14v-9.3a1,1,0,0,0-1-1h-3a1,1,0,1,0,0,2h2v8.3H12a1,1,0,0,0,0,2h8a1,1,0,0,0,0-2Z"/><path class="cls-1" d="M31.69,12.85A16.17,16.17,0,0,0,16,0,16.16,16.16,0,0,0,1,10.52a16,16,0,0,0,23.25,19.2A16.15,16.15,0,0,0,31.69,12.85Zm-2,5.91A14.15,14.15,0,0,1,16,30,14.14,14.14,0,0,1,2.86,20.82,14,14,0,0,1,23.21,4,14.13,14.13,0,0,1,29.73,18.75Z"/></svg>