<svg id="Ebene_1" data-name="Ebene 1" xmlns="http://www.w3.org/2000/svg" viewBox="0 0 32 32"><defs><style>.cls-1{fill:#010101;}</style></defs><title>icon</title><path class="cls-1" d="M20,0H1A1,1,0,0,0,0,1V31a1,1,0,0,0,1,1H20a1,1,0,0,0,1-1V1A1,1,0,0,0,20,0ZM9,30V24h3v6Zm10,0H14V23a1,1,0,0,0-1-1H8a1,1,0,0,0-1,1v7H2V2H19Z"/><path class="cls-1" d="M31,16H24a1,1,0,0,0,0,2h6V30H24a1,1,0,0,0,0,2h7a1,1,0,0,0,1-1V17A1,1,0,0,0,31,16Z"/><path class="cls-1" d="M5.5,10.34h3a1,1,0,0,0,1-1v-3a1,1,0,0,0-1-1h-3a1,1,0,0,0-1,1v3A1,1,0,0,0,5.5,10.34Zm1-3h1v1h-1Z"/><path class="cls-1" d="M12.5,10.34h3a1,1,0,0,0,1-1v-3a1,1,0,0,0-1-1h-3a1,1,0,0,0-1,1v3A1,1,0,0,0,12.5,10.34Zm1-3h1v1h-1Z"/><path class="cls-1" d="M5.5,16.84h3a1,1,0,0,0,1-1v-3a1,1,0,0,0-1-1h-3a1,1,0,0,0-1,1v3A1,1,0,0,0,5.5,16.84Zm1-3h1v1h-1Z"/><path class="cls-1" d="M12.5,16.84h3a1,1,0,0,0,1-1v-3a1,1,0,0,0-1-1h-3a1,1,0,0,0-1,1v3A1,1,0,0,0,12.5,16.84Zm1-3h1v1h-1Z"/><path class="cls-1" d="M27.5,25a1,1,0,0,0,1-1V21a1,1,0,0,0-1-1h-3a1,1,0,0,0-1,1v3a1,1,0,0,0,1,1Zm-2-3h1v1h-1Z"/></svg>