<svg id="Ebene_1" data-name="Ebene 1" xmlns="http://www.w3.org/2000/svg" viewBox="0 0 32 32"><defs><style>.cls-1{fill:#010101;}</style></defs><title>icon</title><path class="cls-1" d="M29.26,5.93c-.1,0-9.53-2.61-12.54-5.64a1.06,1.06,0,0,0-1.44,0c-3,3-12.45,5.61-12.54,5.64A1,1,0,0,0,2,6.9c0,10.93,1,20.35,13.65,25a1,1,0,0,0,.7,0C29,27.25,30,17.82,30,6.9A1,1,0,0,0,29.26,5.93ZM16,29.93a18.51,18.51,0,0,1-8-5.38,34.11,34.11,0,0,1,4.42-1.76l1.68-.6a1,1,0,0,0,.66-.94V18.61a1,1,0,0,0-.67-.94c-.1,0-1-.44-1-2.24a1,1,0,0,0-.67-.95,1,1,0,0,1,0-.23,1,1,0,0,0,.67-.95,2.52,2.52,0,0,0-.15-.71,4.73,4.73,0,0,1-.35-2,.85.85,0,0,1,.41,0,1,1,0,0,0,1.16-.73C14.3,9.5,15.28,9,16.82,9h0c1.54,0,2.52.5,2.61.84a5.63,5.63,0,0,1-.4,2.69,2.44,2.44,0,0,0-.18.77,1,1,0,0,0,.67.95,1,1,0,0,1,0,.23,1,1,0,0,0-.67.95c0,1.8-.88,2.2-1,2.23a1,1,0,0,0-.69,1v2.65a1,1,0,0,0,.66.94l1.78.63A33.53,33.53,0,0,1,24,24.54,18.5,18.5,0,0,1,16,29.93Zm9.13-7a31,31,0,0,0-4.84-2l-1.09-.38V19.18a4.12,4.12,0,0,0,1.62-3.1,2.18,2.18,0,0,0,.71-1.72,2.3,2.3,0,0,0-.5-1.51,6.59,6.59,0,0,0,.34-3.52C20.91,7.61,18.64,7,16.82,7h0c-1.5,0-3.32.42-4.16,1.54a2,2,0,0,0-1.44.63c-.89,1-.53,2.6-.23,3.66a1.8,1.8,0,0,0-.22.31,2.51,2.51,0,0,0-.3,1.23,2.18,2.18,0,0,0,.71,1.72,4.11,4.11,0,0,0,1.62,3.1v1.37l-1,.35a31.8,31.8,0,0,0-4.92,2C4.41,18.84,4,13.7,4,7.65,6.22,7,12.76,4.94,16,2.33,19.24,4.94,25.78,7,28,7.65,28,13.7,27.59,18.83,25.13,22.9Z"/></svg>