<?xml version="1.0" encoding="UTF-8"?>
<svg width="57px" height="58px" viewBox="0 0 57 58" version="1.1" xmlns="http://www.w3.org/2000/svg" xmlns:xlink="http://www.w3.org/1999/xlink">
    <!-- Generator: Sketch 44.1 (41455) - http://www.bohemiancoding.com/sketch -->
    <title>icon-no-credit-small</title>
    <desc>Created with Sketch.</desc>
    <defs></defs>
    <g id="Symbols" stroke="none" stroke-width="1" fill="none" fill-rule="evenodd">
        <g id="digital-card" transform="translate(-277.000000, -418.000000)">
            <g id="light">
                <g>
                    <g id="digital-card" transform="translate(24.000000, 111.000000)">
                        <g id="icon-no-credit-small" transform="translate(253.000000, 307.000000)">
                            <path d="M35.474537,30.8519004 L35.474537,43.768021 C35.474537,45.1175814 34.3826953,46.2123198 33.0393519,46.2123198 L21.0162037,46.2123198 C19.6728602,46.2123198 18.5810185,45.1175814 18.5810185,43.768021 L18.5810185,17.9357798 C18.5810185,16.585169 19.6721894,15.491481 21.0162037,15.491481 L26.1689815,15.491481 C26.7212662,15.491481 27.1689815,15.0437657 27.1689815,14.491481 C27.1689815,13.9391962 26.7212662,13.491481 26.1689815,13.491481 L21.0162037,13.491481 C18.566587,13.491481 16.5810185,15.4816298 16.5810185,17.9357798 L16.5810185,43.768021 C16.5810185,46.2209664 18.5671028,48.2123198 21.0162037,48.2123198 L33.0393519,48.2123198 C35.4884528,48.2123198 37.474537,46.2209664 37.474537,43.768021 L37.474537,30.8519004 C37.474537,30.2996156 37.0268218,29.8519004 36.474537,29.8519004 C35.9222523,29.8519004 35.474537,30.2996156 35.474537,30.8519004 Z" id="Stroke-1" fill="#7D92BC" fill-rule="nonzero"></path>
                            <path d="M26.1689815,19.2537313 L17.5810185,19.2537313 C17.0287338,19.2537313 16.5810185,19.7014466 16.5810185,20.2537313 C16.5810185,20.8060161 17.0287338,21.2537313 17.5810185,21.2537313 L26.1689815,21.2537313 C26.7212662,21.2537313 27.1689815,20.8060161 27.1689815,20.2537313 C27.1689815,19.7014466 26.7212662,19.2537313 26.1689815,19.2537313 Z" id="Stroke-3" fill="#7D92BC" fill-rule="nonzero"></path>
                            <path d="M36.474537,38.2537313 L17.5810185,38.2537313 C17.0287338,38.2537313 16.5810185,38.7014466 16.5810185,39.2537313 C16.5810185,39.8060161 17.0287338,40.2537313 17.5810185,40.2537313 L36.474537,40.2537313 C37.0268218,40.2537313 37.474537,39.8060161 37.474537,39.2537313 C37.474537,38.7014466 37.0268218,38.2537313 36.474537,38.2537313 Z" id="Stroke-5" fill="#7D92BC" fill-rule="nonzero"></path>
                            <path d="M26.8865741,43.768021 C26.8865741,43.8435815 26.9498586,43.9069463 27.0277778,43.9069463 C27.105697,43.9069463 27.1689815,43.8435815 27.1689815,43.768021 C27.1689815,43.6908221 27.1075033,43.6290957 27.0277778,43.6290957 C26.9480522,43.6290957 26.8865741,43.6908221 26.8865741,43.768021 Z M28.8865741,43.768021 C28.8865741,44.7935914 28.0544299,45.6290957 27.0277778,45.6290957 C26.0011256,45.6290957 25.1689815,44.7935914 25.1689815,43.768021 C25.1689815,42.739579 26.0005597,41.9069463 27.0277778,41.9069463 C28.0549959,41.9069463 28.8865741,42.739579 28.8865741,43.768021 Z" id="Stroke-9" fill="#7D92BC" fill-rule="nonzero"></path>
                            <path d="M38.264974,20.4889622 L33.8483073,20.4889622 C33.8789787,21.9984307 34.2393629,23.159543 34.9294705,23.9723337 C35.6195781,24.7851245 36.5972159,25.1915138 37.8624132,25.1915138 C38.7518852,25.1915138 39.5876697,25.059921 40.3697917,24.7967317 L40.5998264,26.6545298 C39.6796829,26.8867557 38.7595532,27.002867 37.8394097,27.002867 C35.9377798,27.002867 34.4406522,26.4358572 33.3479818,25.3018205 C32.2553114,24.1677839 31.6859811,22.5635138 31.639974,20.4889622 L29.5926649,20.4889622 L29.5926649,19.0491686 L31.639974,19.0491686 L31.639974,17.4584289 L29.5926649,17.4584289 L29.5926649,16.0070241 L31.639974,16.0070241 C31.7166526,13.9789176 32.3013183,12.4094809 33.3939887,11.2986669 C34.4866591,10.1878528 35.9646174,9.63245413 37.827908,9.63245413 C38.6407014,9.63245413 39.564665,9.75243573 40.5998264,9.99240252 L40.3697917,11.8734232 C39.5339947,11.6024929 38.6943763,11.4670298 37.8509115,11.4670298 C36.593382,11.4670298 35.6253289,11.8598728 34.9467231,12.6455705 C34.2681173,13.4312683 33.9058162,14.5517416 33.859809,16.0070241 L38.264974,16.0070241 L38.264974,17.4584289 L33.8483073,17.4584289 L33.8483073,19.0491686 L38.264974,19.0491686 L38.264974,20.4889622 Z" id="€" fill="#7D92BC"></path>
                            <path d="M28.5,58 C12.7556202,58 0,45.1229397 0,29.2477064 C0,13.3724731 12.7556202,0.495412844 28.5,0.495412844 C44.2443798,0.495412844 57,13.3724731 57,29.2477064 C57,45.1229397 44.2443798,58 28.5,58 Z M28.5,54 C42.026712,54 53,42.9222406 53,29.2477064 C53,15.5731722 42.026712,4.49541284 28.5,4.49541284 C14.973288,4.49541284 4,15.5731722 4,29.2477064 C4,42.9222406 14.973288,54 28.5,54 Z" id="Oval" fill="#FF5916" fill-rule="nonzero"></path>
                            <polygon id="Line" fill="#FF5916" fill-rule="nonzero" points="6.7780861 10.6563247 46.8901848 51.1503111 49.7319803 48.3353158 9.61988158 7.84132939"></polygon>
                        </g>
                    </g>
                </g>
            </g>
        </g>
    </g>
</svg>