<?xml version="1.0" encoding="UTF-8"?>
<svg width="112px" height="112px" viewBox="0 0 112 112" version="1.1" xmlns="http://www.w3.org/2000/svg" xmlns:xlink="http://www.w3.org/1999/xlink">
    <g id="0400_Card" stroke="none" stroke-width="1" fill="none" fill-rule="evenodd">
        <g id="0400_digital-card-copy" transform="translate(-132.000000, -295.000000)">
            <g id="modal-header" transform="translate(-1.000000, 248.000000)">
                <g id="icon" transform="translate(135.000000, 48.000000)">
                    <g id="smartphone" transform="translate(31.000000, 0.000000)">
                        <path d="M39.25,58.2380952 L39.25,84.3095238 C39.25,88.1472381 36.114,91.2619048 32.25,91.2619048 L7.75,91.2619048 C3.886,91.2619048 0.75,88.1472381 0.75,84.3095238 L0.75,32.1666667 C0.75,28.3254762 3.886,25.2142857 7.75,25.2142857 L18.25,25.2142857" id="Stroke-1" stroke="#7D92BC" stroke-width="4" stroke-linecap="round" stroke-linejoin="round"></path>
                        <path d="M18.25,39 L0.75,39" id="Stroke-3" stroke="#7D92BC" stroke-width="4" stroke-linecap="round" stroke-linejoin="round"></path>
                        <path d="M39.25,77 L0.75,77" id="Stroke-5" stroke="#7D92BC" stroke-width="4" stroke-linecap="round" stroke-linejoin="round"></path>
                        <path d="M14.75,32 L18.25,32" id="Stroke-7" stroke="#7D92BC" stroke-width="4" stroke-linecap="round" stroke-linejoin="round"></path>
                        <path d="M21.75,84.3095238 C21.75,85.2654762 20.966,86.047619 20,86.047619 C19.034,86.047619 18.25,85.2654762 18.25,84.3095238 C18.25,83.346619 19.034,82.5714286 20,82.5714286 C20.966,82.5714286 21.75,83.346619 21.75,84.3095238 Z" id="Stroke-9" stroke="#7D92BC" stroke-width="4" stroke-linejoin="round"></path>
                        <path d="M42.8984375,37.3203125 L33.8984375,37.3203125 C33.9609378,40.3672027 34.6953055,42.7109293 36.1015625,44.3515625 C37.5078195,45.9921957 39.4999871,46.8125 42.078125,46.8125 C43.8906341,46.8125 45.593742,46.5468777 47.1875,46.015625 L47.65625,49.765625 C45.7812406,50.2343773 43.9062594,50.46875 42.03125,50.46875 C38.1562306,50.46875 35.1054799,49.3242302 32.8789062,47.0351562 C30.6523326,44.7460823 29.492188,41.5078334 29.3984375,37.3203125 L25.2265625,37.3203125 L25.2265625,34.4140625 L29.3984375,34.4140625 L29.3984375,31.203125 L25.2265625,31.203125 L25.2265625,28.2734375 L29.3984375,28.2734375 C29.5546883,24.179667 30.7460826,21.01173 32.9726562,18.7695312 C35.1992299,16.5273325 38.2109185,15.40625 42.0078125,15.40625 C43.6640708,15.40625 45.5468645,15.6484351 47.65625,16.1328125 L47.1875,19.9296875 C45.4843665,19.3828098 43.7734461,19.109375 42.0546875,19.109375 C39.4921747,19.109375 37.5195382,19.9023358 36.1367188,21.4882812 C34.7538993,23.0742267 34.0156255,25.3359228 33.921875,28.2734375 L42.8984375,28.2734375 L42.8984375,31.203125 L33.8984375,31.203125 L33.8984375,34.4140625 L42.8984375,34.4140625 L42.8984375,37.3203125 Z" id="€" fill="#7D92BC"></path>
                    </g>
                    <circle id="Oval" stroke="#FF5916" stroke-width="4" cx="54" cy="55" r="54"></circle>
                    <path d="M15.5,17.5 L91.5016447,93.5016447" id="Line" stroke="#FF5916" stroke-width="4" stroke-linecap="square"></path>
                </g>
            </g>
        </g>
    </g>
</svg>