<?xml version="1.0" encoding="utf-8"?><svg xmlns="http://www.w3.org/2000/svg" xmlns:xlink="http://www.w3.org/1999/xlink"><symbol id="icon_add" viewBox="0 0 32 32" xmlns="http://www.w3.org/2000/svg"><defs><style>.aacls-1{fill:#010101}</style></defs><title>icon</title><path class="aacls-1" d="M16 0a16 16 0 1 0 16 16A16 16 0 0 0 16 0zm0 30a14 14 0 1 1 14-14 14 14 0 0 1-14 14zm8-14a1 1 0 0 1-1 1h-6v6a1 1 0 0 1-2 0v-6H9a1 1 0 0 1 0-2h6V9a1 1 0 0 1 2 0v6h6a1 1 0 0 1 1 1z"/></symbol><symbol id="icon_arrow-down" viewBox="0 0 32 32" xmlns="http://www.w3.org/2000/svg"><defs><style>.abcls-1{fill:#010101}</style></defs><title>icon</title><path class="abcls-1" d="M24 12a1 1 0 0 1 .7 1.71l-8.16 8a1 1 0 0 1-1.4 0L7.3 14a1 1 0 0 1 1.4-1.43l7.14 7 7.46-7.31A1 1 0 0 1 24 12z"/></symbol><symbol id="icon_arrow-left" viewBox="0 0 32 32" xmlns="http://www.w3.org/2000/svg"><defs><style>.accls-1{fill:#010101}</style></defs><title>icon</title><path class="accls-1" d="M20 24a1 1 0 0 1-1.71.7l-8-8.16a1 1 0 0 1 0-1.4L18 7.3a1 1 0 0 1 1.43 1.4l-7 7.14 7.31 7.46a1 1 0 0 1 .26.7z"/></symbol><symbol id="icon_arrow-reload" viewBox="0 0 32 32" xmlns="http://www.w3.org/2000/svg"><defs><style>.adcls-1{fill:#010101}</style></defs><title>icon</title><path class="adcls-1" d="M17.53 2A14.1 14.1 0 0 0 7.35 7a13.9 13.9 0 0 0-3.25 7.75l-2.27-3.4a1 1 0 0 0-1.66 1.11l4.09 6.14A1 1 0 0 0 5 19h.07a1 1 0 0 0 .75-.34l4.77-5.45a1 1 0 0 0-1.5-1.32l-3.03 3.53a12 12 0 0 1 2.82-7.15A12 12 0 0 1 30 15.55a12 12 0 0 1-21.1 8.13A1 1 0 0 0 7.36 25a13.87 13.87 0 0 0 10.68 5h.52a14 14 0 0 0-1.03-28z"/></symbol><symbol id="icon_arrow-right" viewBox="0 0 32 32" xmlns="http://www.w3.org/2000/svg"><defs><style>.aecls-1{fill:#010101}</style></defs><title>icon</title><path class="aecls-1" d="M12 8a1 1 0 0 1 1.71-.7l8 8.16a1 1 0 0 1 0 1.4L14 24.7a1 1 0 0 1-1.43-1.4l7-7.14-7.28-7.46A1 1 0 0 1 12 8z"/></symbol><symbol id="icon_arrow-up" viewBox="0 0 32 32" xmlns="http://www.w3.org/2000/svg"><defs><style>.afcls-1{fill:#010101}</style></defs><title>icon</title><path class="afcls-1" d="M8 20a1 1 0 0 1-.7-1.71l8.16-8a1 1 0 0 1 1.4 0L24.7 18a1 1 0 0 1-1.4 1.43l-7.14-7-7.46 7.28A1 1 0 0 1 8 20z"/></symbol><symbol id="icon_back" viewBox="0 0 32 32" xmlns="http://www.w3.org/2000/svg"><defs><style>.agcls-1{fill:#010101}</style></defs><title>icon</title><path class="agcls-1" d="M28 16a1 1 0 0 1-1 1H7.41l7.29 7.29a1 1 0 1 1-1.41 1.41l-9-9a1 1 0 0 1 0-1.42l9-9a1 1 0 0 1 1.41 1.41L7.41 15H27a1 1 0 0 1 1 1z"/></symbol><symbol id="icon_bookable-services" viewBox="0 0 32 32" xmlns="http://www.w3.org/2000/svg"><defs><style>.ahcls-1{fill:#010101}</style></defs><title>icon</title><path class="ahcls-1" d="M30 1H2a1 1 0 0 0-1 1v28a1 1 0 0 0 1 1h28a1 1 0 0 0 1-1V2a1 1 0 0 0-1-1zm-1 28H3V3h26z"/><path class="ahcls-1" d="M7.38 14.66a1 1 0 0 0 1.41 0l6.09-6.09a1 1 0 0 0-1.41-1.41l-5.38 5.38-1.73-1.73a1 1 0 0 0-1.41 1.41zM7.38 24.62a1 1 0 0 0 1.41 0l6.09-6.09a1 1 0 0 0-1.41-1.41L8.09 22.5l-1.73-1.73a1 1 0 0 0-1.41 1.41zM17.61 12.74h7.74a1 1 0 0 0 0-2h-7.74a1 1 0 0 0 0 2zM17.61 23.7h7.74a1 1 0 0 0 0-2h-7.74a1 1 0 0 0 0 2z"/></symbol><symbol id="icon_brochures" viewBox="0 0 32 32" xmlns="http://www.w3.org/2000/svg"><defs><style>.aicls-1{fill:#010101}</style></defs><title>icon</title><path class="aicls-1" d="M31 2c-6.14 0-12.58 1.22-15 3.51C13.58 3.22 7.14 2 1 2a1 1 0 0 0-1 1v21.45a1 1 0 0 0 1 1c8.68 0 14 2.3 14 3.55a1 1 0 0 0 2 0c0-1.25 5.32-3.55 14-3.55a1 1 0 0 0 1-1V3a1 1 0 0 0-1-1zM2 23.46V4c8.09.17 13 2.34 13 3.54v18.67c-2.74-1.7-7.89-2.64-13-2.75zm28 0c-5.11.11-10.26 1.05-13 2.75V7.55c0-1.2 4.91-3.37 13-3.55z"/></symbol><symbol id="icon_business" viewBox="0 0 32 32" xmlns="http://www.w3.org/2000/svg"><defs><style>.ajcls-1{fill:#010101}</style></defs><title>icon</title><path class="ajcls-1" d="M20 0H1a1 1 0 0 0-1 1v30a1 1 0 0 0 1 1h19a1 1 0 0 0 1-1V1a1 1 0 0 0-1-1zM9 30v-6h3v6zm10 0h-5v-7a1 1 0 0 0-1-1H8a1 1 0 0 0-1 1v7H2V2h17zM31 16h-7a1 1 0 0 0 0 2h6v12h-6a1 1 0 0 0 0 2h7a1 1 0 0 0 1-1V17a1 1 0 0 0-1-1z"/><path class="ajcls-1" d="M5.5 10.34h3a1 1 0 0 0 1-1v-3a1 1 0 0 0-1-1h-3a1 1 0 0 0-1 1v3a1 1 0 0 0 1 1zm1-3h1v1h-1zM12.5 10.34h3a1 1 0 0 0 1-1v-3a1 1 0 0 0-1-1h-3a1 1 0 0 0-1 1v3a1 1 0 0 0 1 1zm1-3h1v1h-1zM5.5 16.84h3a1 1 0 0 0 1-1v-3a1 1 0 0 0-1-1h-3a1 1 0 0 0-1 1v3a1 1 0 0 0 1 1zm1-3h1v1h-1zM12.5 16.84h3a1 1 0 0 0 1-1v-3a1 1 0 0 0-1-1h-3a1 1 0 0 0-1 1v3a1 1 0 0 0 1 1zm1-3h1v1h-1zM27.5 25a1 1 0 0 0 1-1v-3a1 1 0 0 0-1-1h-3a1 1 0 0 0-1 1v3a1 1 0 0 0 1 1zm-2-3h1v1h-1z"/></symbol><symbol id="icon_card" viewBox="0 0 32 32" xmlns="http://www.w3.org/2000/svg"><defs><style>.akcls-1{fill:#010101}</style></defs><title>icon</title><path class="akcls-1" d="M29 3H9.48a3 3 0 0 0-3 3v1.28C3.15 8.13 0 10.95 0 16.89v4.45A7.6 7.6 0 0 0 7.52 29h9.78a3 3 0 0 0 2.77-4h2.44a3 3 0 0 0 2.77-4H29a3 3 0 0 0 3-3V6a3 3 0 0 0-3-3zM8.52 6a1 1 0 0 1 1-1H29a1 1 0 0 1 1 1v2.33H15.78a3.84 3.84 0 0 0-3-1.33H8.52zm15 16a1 1 0 0 1-1 1H14a1 1 0 1 0 0 2h3.3a1 1 0 0 1 0 2H7.52A5.6 5.6 0 0 1 2 21.33v-4.44C2 9.57 7.22 9 8.83 9h3.91c.62 0 1.61.27 1.61 1v.67c0 .79-1.05 1-1.61 1h-2.61a1 1 0 0 0-1 .73c-.36 1.28-1.55 3.94-3 3.94a1 1 0 1 0 0 2h.34A3 3 0 0 0 9.48 21h13a1 1 0 0 1 1 1zM29 19H9.48a1 1 0 0 1-1-1v-.59a9.29 9.29 0 0 0 2.33-3.74h1.88c2.09 0 3.61-1.26 3.61-3v-.33H30V18a1 1 0 0 1-1 1z"/><path class="akcls-1" d="M27.39 12.44h-3a1 1 0 0 0 0 2h3a1 1 0 0 0 0-2z"/></symbol><symbol id="icon_cardholder" viewBox="0 0 32 32" xmlns="http://www.w3.org/2000/svg"><defs><style>.alcls-1{fill:#010101}</style></defs><title>icon</title><path class="alcls-1" d="M29 30H3a1 1 0 0 1-1-1c0-.46 0-4.6.75-6.57.62-1.69 3.37-2.66 7.8-4.1l1.57-.51V16a5 5 0 0 1-2.89-4.59V8.85l-.07-.25c-.29-1-.83-2.91.21-4.06a2.38 2.38 0 0 1 1.92-.73c1-1.31 3.29-1.8 5.35-1.8 2.43 0 5.22.68 5.75 2.59a5.18 5.18 0 0 1-.69 3.7 2.39 2.39 0 0 1 .72 1.77 2.51 2.51 0 0 1-.47 1.49 2 2 0 0 1-.64.57 5.51 5.51 0 0 1-1.42 3.62v2.07l1.72.56c4.06 1.32 7 2.27 7.65 4.05C30 24.4 30 28.54 30 29a1 1 0 0 1-1 1zM4 28h24a20.2 20.2 0 0 0-.6-4.88c-.32-.87-3.68-2-6.39-2.84l-2.42-.8a1 1 0 0 1-.68-.95v-3.25a1 1 0 0 1 .51-.87s.93-.66.93-3a1 1 0 0 1 1-1 .44.44 0 0 0 .08-.3.5.5 0 0 0-.08-.31 1 1 0 0 1-1-1 2 2 0 0 1 .38-1 4 4 0 0 0 .74-2.64C20.33 4.67 18.89 4 16.63 4s-3.69.67-3.82 1.13a1 1 0 0 1-1.14.72c-.56-.1-.79 0-.83 0s-.23.57.23 2.17a2.65 2.65 0 0 1 .15.73v2.6a3 3 0 0 0 2.17 2.95 1 1 0 0 1 .72 1v3.26a1 1 0 0 1-.68.95l-2.27.75c-2.33.76-6.22 2-6.54 2.89A20.12 20.12 0 0 0 4 28z"/></symbol><symbol id="icon_check" viewBox="0 0 32 32" xmlns="http://www.w3.org/2000/svg"><defs><style>.amcls-1{fill:#010101}</style></defs><title>icon</title><path class="amcls-1" d="M13.05 24a1 1 0 0 1-.73-.32l-7.05-7.62a1 1 0 0 1 1.46-1.36l6.32 6.83L25.27 8.32a1 1 0 0 1 1.47 1.36l-12.95 14a1 1 0 0 1-.74.32z"/></symbol><symbol viewBox="0 0 80 80" id="icon_check-large" xmlns="http://www.w3.org/2000/svg"><title>icon</title><path d="M40 0a40 40 0 1 0 40 40A40 40 0 0 0 40 0zm19.52 28.15L36 54.4a1.78 1.78 0 0 1-2.67 0L20.48 40.1a1.92 1.92 0 0 1 .1-2.65 1.78 1.78 0 0 1 2.57.1l11.49 12.81L56.85 25.6a1.78 1.78 0 0 1 2.57-.1 1.92 1.92 0 0 1 .1 2.65z"/></symbol><symbol viewBox="0 0 16 16" id="icon_check-small" xmlns="http://www.w3.org/2000/svg"><title>icon</title><path d="M3.76 8.63a1 1 0 1 0-1.52 1.3l2.9 2.71a1 1 0 0 0 1.5 0l7.1-7a1 1 0 1 0-1.48-1.35l-6.34 6.2z"/></symbol><symbol id="icon_check-small-filled" viewBox="0 0 16 16" xmlns="http://www.w3.org/2000/svg"><defs><style>.apcls-1{fill:#1d1d1b}</style></defs><title>icon</title><path class="apcls-1" d="M8 0a8 8 0 1 0 8 8 8 8 0 0 0-8-8zm3.83 6.12l-4.74 4.66a.67.67 0 0 1-1 0L4.16 9a.67.67 0 1 1 1-.87l1.45 1.2 4.23-4.11a.67.67 0 0 1 1 .9z"/></symbol><symbol id="icon_close" viewBox="0 0 32 32" xmlns="http://www.w3.org/2000/svg"><defs><style>.aqcls-1{fill:#010101}</style></defs><title>icon</title><path class="aqcls-1" d="M17.41 16l7.29-7.29a1 1 0 0 0-1.41-1.41L16 14.59l-7.29-7.3a1 1 0 0 0-1.42 1.42l7.3 7.29-7.3 7.29A1 1 0 1 0 8.7 24.7l7.3-7.29 7.29 7.29a1 1 0 0 0 1.41-1.41z"/></symbol><symbol id="icon_dialog" viewBox="0 0 32 32" xmlns="http://www.w3.org/2000/svg"><defs><style>.arcls-1{fill:#010101}</style></defs><title>icon</title><path class="arcls-1" d="M11.43 16.91h-1.3a1 1 0 0 0-.7.29l-3.52 3.46v-2.75a1 1 0 0 0-1-1H2V3.48h22.78v7.36a1 1 0 0 0 2 0V2.48a1 1 0 0 0-1-1H1a1 1 0 0 0-1 1v15.43a1 1 0 0 0 1 1h2.91v4.14a1 1 0 0 0 1.7.71l4.93-4.85h.89a1 1 0 1 0 0-2z"/><path class="arcls-1" d="M31 13.05H15.35a1 1 0 0 0-1 1v10.29a1 1 0 0 0 1 1h6.8l5.59 4.9a1 1 0 0 0 1.66-.75v-4.15H31a1 1 0 0 0 1-1V14.05a1 1 0 0 0-1-1zm-1 10.29h-1.61a1 1 0 0 0-1 1v2.94l-4.21-3.69a1 1 0 0 0-.66-.25h-6.17v-8.29H30z"/></symbol><symbol id="icon_direction-up" viewBox="0 0 32 32" xmlns="http://www.w3.org/2000/svg"><defs><style>.ascls-1{fill:#010101}</style></defs><title>icon</title><path class="ascls-1" d="M22.58 13.34a1 1 0 1 1-1.41 1.41l-3.51-3.51V31a1 1 0 0 1-2 0V11.24l-3.51 3.51a1 1 0 0 1-1.41-1.41l5.22-5.22a1 1 0 0 1 1.42 0zM31 0H1a1 1 0 0 0 0 2h30a1 1 0 0 0 0-2z"/></symbol><symbol id="icon_download" viewBox="0 0 32 32" xmlns="http://www.w3.org/2000/svg"><defs><style>.atcls-1{fill:#010101}</style></defs><title>icon</title><path class="atcls-1" d="M30 22.91a1 1 0 0 0-1 1v2.44A2.65 2.65 0 0 1 26.35 29H5.65A2.65 2.65 0 0 1 3 26.35v-2.44a1 1 0 0 0-2 0v2.44A4.66 4.66 0 0 0 5.65 31h20.7A4.66 4.66 0 0 0 31 26.35v-2.44a1 1 0 0 0-1-1z"/><path class="atcls-1" d="M15.29 24.48a1 1 0 0 0 1.42 0l8.91-8.91a1 1 0 0 0-1.41-1.41L17 21.36V2a1 1 0 0 0-2 0v19.36l-7.2-7.2a1 1 0 0 0-1.41 1.41z"/></symbol><symbol id="icon_edit" viewBox="0 0 32 32" xmlns="http://www.w3.org/2000/svg"><defs><style>.aucls-1{fill:#010101}</style></defs><title>icon</title><path class="aucls-1" d="M31 30H9.64h.15a1 1 0 0 0 .48-.27l.33-.33 17.49-17.52L30 10l.93-1a3.66 3.66 0 0 0 0-5.16l-2.81-2.77a3.65 3.65 0 0 0-5.16 0L22 2l-1.85 1.88L2.64 21.39l-.33.33a1 1 0 0 0-.27.48L0 30.77A1 1 0 0 0 0 31a1 1 0 0 0 .07.34v.08a1 1 0 0 0 .19.28A1 1 0 0 0 1 32h30a1 1 0 0 0 0-2zM3.7 23.88l4.42 4.42-5.78 1.36zM20.86 6L26 11.16 9.9 27.24 4.76 22.1zm1.87-1.88l5.14 5.14-.47.47-5.13-5.14zm4-1.64l2.81 2.81a1.65 1.65 0 0 1 0 2.33l-.23.23-5.16-5.14.23-.23a1.65 1.65 0 0 1 2.33 0z"/></symbol><symbol id="icon_edit-field" viewBox="0 0 32 32" xmlns="http://www.w3.org/2000/svg"><defs><style>.avcls-1{fill:#010101}</style></defs><title>icon</title><path class="avcls-1" d="M31 16.17V27a1 1 0 0 1-1 1H2a1 1 0 0 1-1-1V16.17a1 1 0 0 1 1-1h7.91a1 1 0 1 1 0 2H3V26h26v-8.83h-4.48a1 1 0 0 1 0-2H30a1 1 0 0 1 1 1zm-17.95-.94a1 1 0 0 1 .15-.23.94.94 0 0 1 .05-.08L24 4.29a1 1 0 0 1 1.41 0l3.44 3.4a1 1 0 0 1 0 1.42L18.12 19.75a1 1 0 0 1-.31.21l-6 2.54a1 1 0 0 1-1.31-1.32l2.5-5.92zm.25 4.46l2.35-1-1.34-1.33zm2.09-4.06l2 2 7.1-7-2-2zm8.53-8.42l2 2 .81-.8-2-2z"/></symbol><symbol viewBox="0 0 80 80" id="icon_error-large" xmlns="http://www.w3.org/2000/svg"><title>icon</title><path d="M40 0a40 40 0 1 0 40 40A40 40 0 0 0 40 0zm17.41 54.59a2 2 0 1 1-2.83 2.83L40 42.83 25.41 57.41a2 2 0 0 1-2.83-2.83L37.17 40 22.59 25.41a2 2 0 0 1 2.83-2.83L40 37.17l14.59-14.58a2 2 0 0 1 2.83 2.83L42.83 40z"/></symbol><symbol id="icon_group" viewBox="0 0 32 32" xmlns="http://www.w3.org/2000/svg"><defs><style>.axcls-1{fill:#010101}</style></defs><title>icon</title><path class="axcls-1" d="M20.57 28.74H1a1 1 0 0 1-1-1v-5.87c0-.41 0-1.65 7.17-4.59v-1.41a4.42 4.42 0 0 1-1.28-3.15A2.81 2.81 0 0 1 5 10.61a2.45 2.45 0 0 1 .35-1.33A1.8 1.8 0 0 1 5.61 9c-.41-1-.85-2.31-.11-3.21a1.78 1.78 0 0 1 1.41-.63c.75-1.17 2.43-1.9 4.53-1.9 2.56 0 4.47 1.07 4.88 2.74A5 5 0 0 1 16 9a1.71 1.71 0 0 1 .2.26 2.45 2.45 0 0 1 .34 1.31 2.84 2.84 0 0 1-.86 2.13 4.43 4.43 0 0 1-1.28 3.15v1.41c7.17 2.94 7.17 4.17 7.17 4.59v5.87a1 1 0 0 1-1 1.02zM2 26.74h17.57v-4.58A32.81 32.81 0 0 0 13 18.89a1 1 0 0 1-.63-.93v-2.61a1 1 0 0 1 .67-.94s.64-.43.64-2.32a1 1 0 0 1 .73-1 1.42 1.42 0 0 0 .1-.67 1 1 0 0 1-.79-1 2 2 0 0 1 .28-.76 3.51 3.51 0 0 0 .4-2.2c-.17-.67-1.46-1.2-2.94-1.2s-2.77.53-2.94 1.2a1 1 0 0 1-1.17.74h-.21a7.69 7.69 0 0 0 .48 1.38 2.39 2.39 0 0 1 .28.93 1 1 0 0 1-.83 1 1.38 1.38 0 0 0 .09.66 1 1 0 0 1 .73 1c0 1.94.69 2.34.7 2.34a.91.91 0 0 1 .6.92V18a1 1 0 0 1-.63.93A32.81 32.81 0 0 0 2 22.16z"/><path class="axcls-1" d="M31 28.74h-6.17a1 1 0 0 1 0-2H30v-4.52a25.32 25.32 0 0 0-2.9-1.16c-.77-.28-1.58-.57-2.34-.87a1 1 0 0 1-.63-.93v-2a1 1 0 0 1 .73-1s.57-.27.57-1.65a1 1 0 0 1 .58-.91 2 2 0 0 0 .07-.77 1 1 0 0 1-.64-.94 1.6 1.6 0 0 1 .3-.84 2 2 0 0 0 .41-1.46C26 9.47 25.16 9 23.83 9s-2.2.45-2.31.78a1 1 0 0 1-1.09.67 8 8 0 0 0 .29.85 2.09 2.09 0 0 1 .2.77 1 1 0 0 1-.66.94 1.92 1.92 0 0 0 .08.76 1 1 0 0 1 .29.2 1 1 0 0 1 .29.71c0 1.39.6 1.65.62 1.66a1 1 0 0 1 .67 1.23 1 1 0 0 1-1.26.69 3.2 3.2 0 0 1-2-3 3 3 0 0 1-.7-2.06 2.8 2.8 0 0 1 .26-1.2 1.87 1.87 0 0 1 .2-.3 2.7 2.7 0 0 1 .07-2.7A1.65 1.65 0 0 1 20 8.43 4.93 4.93 0 0 1 23.83 7c1.69 0 3.68.56 4.21 2.15a3.38 3.38 0 0 1-.32 2.63l.12.2a2.86 2.86 0 0 1 .26 1.24 3 3 0 0 1-.68 2 3.6 3.6 0 0 1-1.28 2.6v.69l1.64.6c2.9 1 4.23 1.52 4.23 2.69v5.87A1 1 0 0 1 31 28.74zm-11.09-15z"/></symbol><symbol id="icon_help" viewBox="0 0 32 32" xmlns="http://www.w3.org/2000/svg"><defs><style>.aycls-1{fill:#010101}</style></defs><title>icon</title><path class="aycls-1" d="M16 0a16 16 0 1 0 16 16A16 16 0 0 0 16 0zm0 30a14 14 0 1 1 14-14 14 14 0 0 1-14 14zm5.09-18.41a5.1 5.1 0 0 1-4.09 5v2.19a1 1 0 0 1-2 0v-3.1a1 1 0 0 1 1-1 3.09 3.09 0 1 0-3.09-3.09 1 1 0 1 1-2 0 5.09 5.09 0 0 1 10.18 0zM16 21.68a1.5 1.5 0 1 0 1.5 1.5 1.5 1.5 0 0 0-1.5-1.5z"/></symbol><symbol id="icon_hide" viewBox="0 0 32 32" xmlns="http://www.w3.org/2000/svg"><defs><style>.azcls-1{fill:#010101}</style></defs><title>icon</title><path class="azcls-1" d="M16 25.5a14.42 14.42 0 0 1-4.21-.65 1 1 0 0 1 .58-1.92 12.42 12.42 0 0 0 3.63.57c6.44 0 12-5.6 13.68-7.5a29 29 0 0 0-4.46-4 1 1 0 0 1 1.17-1.62 29.67 29.67 0 0 1 5.39 5 1 1 0 0 1 0 1.25C31.5 17 24.67 25.5 16 25.5zM6.17 21.84a1 1 0 0 1-.59-.19 29.66 29.66 0 0 1-5.37-5 1 1 0 0 1 0-1.25C.5 15 7.33 6.5 16 6.5a14.17 14.17 0 0 1 3.51.5A1 1 0 0 1 19 8.9a12.2 12.2 0 0 0-3-.39C9.57 8.5 4 14.1 2.32 16a29 29 0 0 0 4.45 4 1 1 0 0 1-.59 1.81z"/><path class="azcls-1" d="M10.78 17a1 1 0 0 1-1-1A6.23 6.23 0 0 1 16 9.77a1 1 0 0 1 0 2A4.23 4.23 0 0 0 11.78 16a1 1 0 0 1-1 1zM16 22.23a1 1 0 0 1 0-2A4.23 4.23 0 0 0 20.22 16a1 1 0 1 1 2 0A6.23 6.23 0 0 1 16 22.23zM3.11 29.52a1 1 0 0 1-.69-1.72L28.18 2.7a1 1 0 1 1 1.4 1.43L3.82 29.24a1 1 0 0 1-.71.28z"/></symbol><symbol id="icon_indeterminate-small" viewBox="0 0 16 16" xmlns="http://www.w3.org/2000/svg"><defs><style>.bacls-1{fill-rule:evenodd}</style></defs><title>icon</title><path class="bacls-1" d="M4 7h8a1 1 0 0 1 0 2H4a1 1 0 0 1 0-2z"/></symbol><symbol id="icon_info" viewBox="0 0 32 32" xmlns="http://www.w3.org/2000/svg"><defs><style>.bbcls-1{fill:#010101}</style></defs><title>icon</title><path class="bbcls-1" d="M14.64 9.14a1.5 1.5 0 1 1 1.5 1.5 1.5 1.5 0 0 1-1.5-1.5zM20 22.86h-2.86v-9.3a1 1 0 0 0-1-1h-3a1 1 0 1 0 0 2h2v8.3H12a1 1 0 0 0 0 2h8a1 1 0 0 0 0-2z"/><path class="bbcls-1" d="M31.69 12.85A16.17 16.17 0 0 0 16 0 16.16 16.16 0 0 0 1 10.52a16 16 0 0 0 23.25 19.2 16.15 16.15 0 0 0 7.44-16.87zm-2 5.91A14.15 14.15 0 0 1 16 30a14.14 14.14 0 0 1-13.14-9.18A14 14 0 0 1 23.21 4a14.13 14.13 0 0 1 6.52 14.75z"/></symbol><symbol viewBox="0 0 80 80" id="icon_info-large" xmlns="http://www.w3.org/2000/svg"><title>icon</title><path d="M52.62 19A24.52 24.52 0 0 0 17 48.48a24.52 24.52 0 0 0 47-3.63A24.76 24.76 0 0 0 52.62 19zm-12.39 6.39A2.63 2.63 0 1 1 37.6 28a2.63 2.63 0 0 1 2.63-2.61zM47 55.55H33A1.75 1.75 0 0 1 33 52h5.49V37.52H35A1.75 1.75 0 0 1 35 34h5.25A1.75 1.75 0 0 1 42 35.77V52h5a1.75 1.75 0 0 1 0 3.5zM40 0a40 40 0 1 0 40 40A40 40 0 0 0 40 0zm14.39 64.06a28 28 0 0 1-40.73-33.63A28.31 28.31 0 0 1 40 12a28.32 28.32 0 0 1 27.46 22.5 28.29 28.29 0 0 1-13.07 29.56z"/></symbol><symbol id="icon_launch" viewBox="0 0 32 32" xmlns="http://www.w3.org/2000/svg"><defs><style>.bdcls-1{fill:#010101}</style></defs><title>icon</title><path class="bdcls-1" d="M23.2 17.44a1 1 0 0 0-1 1V27H5V9.78h8.6a1 1 0 1 0 0-2H4a1 1 0 0 0-1 1V28a1 1 0 0 0 1 1h19.2a1 1 0 0 0 1-1v-9.56a1 1 0 0 0-1-1z"/><path class="bdcls-1" d="M28.92 3.62a1 1 0 0 0-.21-.32A1 1 0 0 0 28 3h-9.6a1 1 0 0 0 0 2h7.19L8.09 22.51a1 1 0 1 0 1.41 1.41L27 6.42v7.19a1 1 0 0 0 2 0V4a1 1 0 0 0-.08-.38z"/></symbol><symbol id="icon_location" viewBox="0 0 32 32" xmlns="http://www.w3.org/2000/svg"><defs><style>.becls-1{fill:#010101}</style></defs><title>icon</title><path class="becls-1" d="M16 32a1 1 0 0 1-.59-.19c-.5-.36-12.15-8.89-12.15-18.42C3.26 5.76 8.74 0 16 0s12.74 5.76 12.74 13.39c0 9.53-11.66 18.06-12.15 18.42A1 1 0 0 1 16 32zm0-30C9.88 2 5.26 6.9 5.26 13.39c0 7.37 8.42 14.52 10.74 16.35 2.32-1.83 10.74-9 10.74-16.35C26.74 6.9 22.12 2 16 2zm0 18.26a7.52 7.52 0 1 1 7.52-7.52A7.53 7.53 0 0 1 16 20.26zm0-13a5.52 5.52 0 1 0 5.52 5.52A5.53 5.53 0 0 0 16 7.22z"/></symbol><symbol id="icon_lock" viewBox="0 0 32 32" xmlns="http://www.w3.org/2000/svg"><defs><style>.bfcls-1{fill:#010101}</style></defs><title>icon</title><path class="bfcls-1" d="M16 18.26a1.65 1.65 0 0 0-1 3v3.26a1 1 0 0 0 2 0v-3.3a1.65 1.65 0 0 0-1-3zm.14 1.33h-.28.14zM27 11.74h-2.88V8.17a8.12 8.12 0 1 0-16.24 0v3.57H5a1 1 0 0 0-1 1V31a1 1 0 0 0 1 1h22a1 1 0 0 0 1-1V12.74a1 1 0 0 0-1-1zM9.88 8.17a6.12 6.12 0 1 1 12.24 0v3.57H9.88zM26 30H6V13.74h20z"/></symbol><symbol id="icon_logout" viewBox="0 0 32 32" xmlns="http://www.w3.org/2000/svg"><defs><style>.bgcls-1{fill:#010101}</style></defs><title>icon</title><path class="bgcls-1" d="M23.17 25.43a1 1 0 0 0-1 1v1h-8.43V4.61h8.43v2.26a1 1 0 1 0 2 0V3.61a1 1 0 0 0-1-1h-9.43V1a1 1 0 0 0-1.22-1L.78 2.63a1 1 0 0 0-.78 1v24.76a1 1 0 0 0 .78 1L12.52 32h.22a1 1 0 0 0 1-1v-1.61h9.43a1 1 0 0 0 1-1v-2a1 1 0 0 0-1-.96zm-11.43 4.32L2 27.59V4.41l9.74-2.16zM32 16.66a1 1 0 0 1-.33.73l-5.18 5.18a1 1 0 0 1-1.41-1.41l3.5-3.5H17.3a1 1 0 0 1 0-2h11.3l-3.52-3.52a1 1 0 0 1 1.41-1.41l5.22 5.22a1 1 0 0 1 .29.71z"/></symbol><symbol id="icon_messaging" viewBox="0 0 32 32" xmlns="http://www.w3.org/2000/svg"><defs><style>.bhcls-1{fill:#010101}</style></defs><title>icon</title><path class="bhcls-1" d="M32 1v11.74a1 1 0 0 1-1 1h-4.19l-5.58 5a1 1 0 0 1-1.66-.74v-4.26h-1a1 1 0 0 1 0-2h2a1 1 0 0 1 1 1v3l4.2-3.74a1 1 0 0 1 .66-.25H30V2H12.43v4.22a1 1 0 0 1-2 0V1a1 1 0 0 1 1-1H31a1 1 0 0 1 1 1zM21.57 27.74V31a1 1 0 0 1-1 1H1a1 1 0 0 1-1-1v-3.26c0-.41 0-1.65 7.17-4.59v-1.41a4.37 4.37 0 0 1-1.27-3.05 2.31 2.31 0 0 1-1-2 2.63 2.63 0 0 1 .4-1.49 2 2 0 0 1 .29-.34c-.43-1-.89-2.3-.17-3.2A1.75 1.75 0 0 1 6.81 11c.75-1.17 2.4-1.9 4.48-1.9 2.53 0 4.43 1.06 4.84 2.71a5 5 0 0 1-.3 3 2.34 2.34 0 0 1 .57 1.62 2.79 2.79 0 0 1-.83 2.09 4.53 4.53 0 0 1-1.18 3.13v1.43c7.18 3.01 7.18 4.25 7.18 4.66zm-2 .29A32.81 32.81 0 0 0 13 24.75a1 1 0 0 1-.63-.93v-2.6c0-.48.17-.84.64-.93 0 0 .56-.49.56-2.33a1 1 0 0 1 .72-1 1.4 1.4 0 0 0 .08-.67 1 1 0 0 1-.81-1 2 2 0 0 1 .23-.81 3.57 3.57 0 0 0 .39-2.21c-.17-.68-1.42-1.2-2.9-1.2s-2.73.52-2.9 1.2a1 1 0 0 1-1.17.74h-.16a8.34 8.34 0 0 0 .5 1.34 2.38 2.38 0 0 1 .3 1 1 1 0 0 1-.92 1 .9.9 0 0 0 0 .61 1 1 0 0 1 .92 1c0 1.94.69 2.34.7 2.34a.91.91 0 0 1 .6.92v2.61a1 1 0 0 1-.63.93A32.81 32.81 0 0 0 2 28v2h17.57zM17.32 7.79A1.32 1.32 0 1 0 16 6.47a1.32 1.32 0 0 0 1.32 1.32zm4.95-1.32a1.32 1.32 0 1 0-1.32 1.32 1.32 1.32 0 0 0 1.31-1.32zm3.91 0a1.32 1.32 0 1 0-1.32 1.32 1.32 1.32 0 0 0 1.32-1.32z"/></symbol><symbol id="icon_notification" viewBox="0 0 32 32" xmlns="http://www.w3.org/2000/svg"><defs><style>.bicls-1{fill:#010101}</style></defs><title>icon</title><path class="bicls-1" d="M31 26a2.94 2.94 0 0 1-2.91-3v-7.16a12.26 12.26 0 0 0-7.36-11.22A4.88 4.88 0 0 0 16 1a5 5 0 0 0-4.73 3.62 12.26 12.26 0 0 0-7.36 11.22v7.25A2.94 2.94 0 0 1 1 26a1 1 0 1 0 0 2h10.19a4.9 4.9 0 0 0 9.62 0H31a1 1 0 0 0 0-2zm-15 4a2.91 2.91 0 0 1-2.73-2h5.46A2.91 2.91 0 0 1 16 30zM4.94 26a5 5 0 0 0 1-3v-7.16a10.24 10.24 0 0 1 6.57-9.56 1 1 0 0 0 .64-.79A2.94 2.94 0 0 1 16 3a2.9 2.9 0 0 1 2.87 2.5 1 1 0 0 0 .64.79 10.24 10.24 0 0 1 6.58 9.56v7.25a5 5 0 0 0 1 3z"/></symbol><symbol viewBox="0 0 32 32" id="icon_phone" xmlns="http://www.w3.org/2000/svg"><title>icon</title><path d="M23.36 30H23a14.38 14.38 0 0 1-5.61-1.62 29.51 29.51 0 0 1-9.76-7.64 27.06 27.06 0 0 1-4.77-8A10.8 10.8 0 0 1 2 8.09a4.49 4.49 0 0 1 1.39-3c.44-.42.86-.85 1.29-1.28L5.54 3A3 3 0 0 1 10 3l1.11 1.1.61.61 1.68 1.68a3 3 0 0 1 0 4.53c-.64.64-1.25 1.26-1.87 1.87a12 12 0 0 0 1.63 2.51 20.93 20.93 0 0 0 5.08 4.64 8.16 8.16 0 0 0 .73.38l.26.13c.63-.64 1.26-1.26 1.89-1.89a3 3 0 0 1 4.45 0L29 22a3 3 0 0 1 0 4.51l-.64.63c-.43.42-.87.84-1.27 1.29A4.76 4.76 0 0 1 23.36 30zM7.76 4a1.19 1.19 0 0 0-.82.41l-.81.81c-.44.45-.88.89-1.33 1.32a2.47 2.47 0 0 0-.8 1.7 8.94 8.94 0 0 0 .71 3.84 25.1 25.1 0 0 0 4.43 7.37 27.52 27.52 0 0 0 9.1 7.12A12.48 12.48 0 0 0 23.1 28a2.85 2.85 0 0 0 2.49-.92c.43-.48.9-.94 1.37-1.39l.62-.61a1 1 0 0 0 0-1.69L24.16 20a1 1 0 0 0-1.63 0c-.71.7-1.42 1.4-2.11 2.12a1.41 1.41 0 0 1-1.79.29l-.53-.27a10.23 10.23 0 0 1-.91-.48 22.88 22.88 0 0 1-5.57-5.07 13.32 13.32 0 0 1-2.06-3.31 1.42 1.42 0 0 1 .34-1.66c.7-.67 1.38-1.36 2.06-2.05a1.07 1.07 0 0 0 0-1.74l-1.65-1.7-.61-.62L8.59 4.4a1.2 1.2 0 0 0-.83-.4z"/></symbol><symbol id="icon_profile" viewBox="0 0 32 32" xmlns="http://www.w3.org/2000/svg"><defs><style>.bkcls-1{fill:#010101}</style></defs><title>icon</title><path class="bkcls-1" d="M32 16A16 16 0 1 0 4.63 27.25a16 16 0 0 0 22.76 0A15.9 15.9 0 0 0 32 16zM2 16a14 14 0 1 1 24.51 9.25A39.61 39.61 0 0 0 21.05 23l-1.44-.52v-2a4.87 4.87 0 0 0 1.93-3.82 2.44 2.44 0 0 0 .83-2 2.58 2.58 0 0 0-.63-1.79 8.37 8.37 0 0 0 .44-4.32c-.5-2-3.12-2.71-5.21-2.71-1.78 0-3.93.51-4.85 1.9a2.19 2.19 0 0 0-1.63.68c-1.05 1.14-.57 3.19-.22 4.44a2.56 2.56 0 0 0-.65 1.81 2.44 2.44 0 0 0 .83 2 4.87 4.87 0 0 0 1.93 3.83v2l-1.3.5a41 41 0 0 0-5.57 2.31A13.9 13.9 0 0 1 2 16zm5 10.73a49.21 49.21 0 0 1 4.74-1.89l2-.73a1 1 0 0 0 .65-.94v-3.26a1 1 0 0 0-.66-.94c-.05 0-1.3-.54-1.3-3a1 1 0 0 0-.77-1 1.36 1.36 0 0 1 0-.66 1 1 0 0 0 .77-1 3 3 0 0 0-.17-.8c-.61-2.16-.42-2.67-.31-2.79s.17-.08.58 0a1 1 0 0 0 1.17-.74c.14-.58 1.44-1.2 3.27-1.2s3.13.62 3.27 1.2a7.34 7.34 0 0 1-.48 3.46 2.89 2.89 0 0 0-.2.86 1 1 0 0 0 .77 1 1.34 1.34 0 0 1 0 .66 1 1 0 0 0-.77 1c0 2.43-1.24 3-1.27 3a1 1 0 0 0-.68.95v3.26a1 1 0 0 0 .65.94l2.11.77A49.47 49.47 0 0 1 25 26.72a14 14 0 0 1-18 0z"/></symbol><symbol id="icon_reload" viewBox="0 0 32 32" xmlns="http://www.w3.org/2000/svg"><defs><style>.blcls-1{fill:#010101}</style></defs><title>icon</title><path class="blcls-1" d="M29 16a13 13 0 0 1-18.48 11.79 1 1 0 1 1 .85-1.79A11 11 0 1 0 5 16c0 .35 0 .7.05 1l1.11-1.68a1 1 0 1 1 1.67 1.11l-2.65 4a1 1 0 0 1-.74.44h-.1a1 1 0 0 1-.71-.29L.29 17.26a1 1 0 0 1 1.42-1.41l1.35 1.36C3 16.81 3 16.4 3 16a13 13 0 0 1 26 0z"/></symbol><symbol id="icon_remove" viewBox="0 0 32 32" xmlns="http://www.w3.org/2000/svg"><defs><style>.bmcls-1{fill:#010101}</style></defs><title>icon</title><path class="bmcls-1" d="M16 0a16 16 0 1 0 16 16A16 16 0 0 0 16 0zm0 30a14 14 0 1 1 14-14 14 14 0 0 1-14 14zm8-14a1 1 0 0 1-1 1H9a1 1 0 0 1 0-2h14a1 1 0 0 1 1 1z"/></symbol><symbol id="icon_scanner" viewBox="0 0 32 32" xmlns="http://www.w3.org/2000/svg"><defs><style>.bncls-1{fill:#1d1d1b;fill-rule:evenodd}</style></defs><title>icons</title><path class="bncls-1" d="M21 27h9v-7a1 1 0 0 1 2 0v8a1 1 0 0 1-1 1H21a1 1 0 0 1 0-2zm-10 0a1 1 0 0 1 0 2H1a1 1 0 0 1-1-1v-8a1 1 0 0 1 2 0v7zM21 5a1 1 0 0 1 0-2h10a1 1 0 0 1 1 1v8a1 1 0 0 1-2 0V5zM2 5v7a1 1 0 0 1-2 0V4a1 1 0 0 1 1-1h10a1 1 0 0 1 0 2zm18 4h1v14h-1zm5 0h1v14h-1zM14 9h1v14h-1zM7 9h1v14H7zm5 0h1v14h-1zm10 0h2v14h-2zM9 9h2v14H9zm7 0h3v14h-3z"/></symbol><symbol id="icon_search" viewBox="0 0 32 32" xmlns="http://www.w3.org/2000/svg"><defs><style>.bocls-1{fill:#010101}</style></defs><title>icon</title><path class="bocls-1" d="M31.71 30.29L21 19.59A11.94 11.94 0 1 0 19.59 21l10.7 10.71a1 1 0 0 0 1.41-1.41zM2 11.91a9.91 9.91 0 1 1 9.91 9.91A9.92 9.92 0 0 1 2 11.91z"/></symbol><symbol id="icon_security" viewBox="0 0 32 32" xmlns="http://www.w3.org/2000/svg"><defs><style>.bpcls-1{fill:#010101}</style></defs><title>icon</title><path class="bpcls-1" d="M29.26 5.93c-.1 0-9.53-2.61-12.54-5.64a1.06 1.06 0 0 0-1.44 0c-3 3-12.45 5.61-12.54 5.64A1 1 0 0 0 2 6.9c0 10.93 1 20.35 13.65 25a1 1 0 0 0 .7 0C29 27.25 30 17.82 30 6.9a1 1 0 0 0-.74-.97zM16 29.93a18.51 18.51 0 0 1-8-5.38 34.11 34.11 0 0 1 4.42-1.76l1.68-.6a1 1 0 0 0 .66-.94v-2.64a1 1 0 0 0-.67-.94c-.1 0-1-.44-1-2.24a1 1 0 0 0-.67-.95 1 1 0 0 1 0-.23 1 1 0 0 0 .67-.95 2.52 2.52 0 0 0-.15-.71 4.73 4.73 0 0 1-.35-2 .85.85 0 0 1 .41 0 1 1 0 0 0 1.16-.73C14.3 9.5 15.28 9 16.82 9s2.52.5 2.61.84a5.63 5.63 0 0 1-.4 2.69 2.44 2.44 0 0 0-.18.77 1 1 0 0 0 .67.95 1 1 0 0 1 0 .23 1 1 0 0 0-.67.95c0 1.8-.88 2.2-1 2.23a1 1 0 0 0-.69 1v2.65a1 1 0 0 0 .66.94l1.78.63a33.53 33.53 0 0 1 4.4 1.66 18.5 18.5 0 0 1-8 5.39zm9.13-7a31 31 0 0 0-4.84-2l-1.09-.38v-1.37a4.12 4.12 0 0 0 1.62-3.1 2.18 2.18 0 0 0 .71-1.72 2.3 2.3 0 0 0-.5-1.51 6.59 6.59 0 0 0 .34-3.52C20.91 7.61 18.64 7 16.82 7c-1.5 0-3.32.42-4.16 1.54a2 2 0 0 0-1.44.63c-.89 1-.53 2.6-.23 3.66a1.8 1.8 0 0 0-.22.31 2.51 2.51 0 0 0-.3 1.23 2.18 2.18 0 0 0 .71 1.72 4.11 4.11 0 0 0 1.62 3.1v1.37l-1 .35a31.8 31.8 0 0 0-4.92 2C4.41 18.84 4 13.7 4 7.65 6.22 7 12.76 4.94 16 2.33 19.24 4.94 25.78 7 28 7.65c0 6.05-.41 11.18-2.87 15.25z"/></symbol><symbol id="icon_select" viewBox="0 0 32 32" xmlns="http://www.w3.org/2000/svg"><defs><style>.bqcls-1{fill:#1d1d1b}</style></defs><title>icon</title><path class="bqcls-1" d="M9.71 19.29l6.29 6.3 6.29-6.29a1 1 0 0 1 1.41 1.41l-7 7a1 1 0 0 1-1.41 0l-7-7A1 1 0 1 1 9.7 19.3zM22.3 12.7L16 6.41l-6.29 6.3A1 1 0 0 1 8.3 11.3l7-7a1 1 0 0 1 1.41 0l7 7a1 1 0 0 1-1.41 1.41z"/></symbol><symbol id="icon_settings" viewBox="0 0 32 32" xmlns="http://www.w3.org/2000/svg"><defs><style>.brcls-1{fill:#010101}</style></defs><title>icon</title><path class="brcls-1" d="M16 8a8 8 0 1 0 8 8 8 8 0 0 0-8-8zm0 14a6 6 0 1 1 6-6 6 6 0 0 1-6 6z"/><path class="brcls-1" d="M31 12h-3.69a12 12 0 0 0-.48-1.17l2.61-2.61a1 1 0 0 0 0-1.41l-4.25-4.25a1 1 0 0 0-1.41 0l-2.61 2.61A11.93 11.93 0 0 0 20 4.69V1a1 1 0 0 0-1-1h-6a1 1 0 0 0-1 1v3.69a11.92 11.92 0 0 0-1.17.48L8.22 2.56a1 1 0 0 0-1.41 0L2.57 6.81a1 1 0 0 0 0 1.41l2.61 2.61A11.92 11.92 0 0 0 4.69 12H1a1 1 0 0 0-1 1v6a1 1 0 0 0 1 1h3.69a11.92 11.92 0 0 0 .48 1.17l-2.6 2.61a1 1 0 0 0 0 1.41l4.24 4.24a1 1 0 0 0 1.41 0l2.61-2.61a11.92 11.92 0 0 0 1.17.48V31a1 1 0 0 0 1 1h6a1 1 0 0 0 1-1v-3.69a11.93 11.93 0 0 0 1.17-.48l2.61 2.61a1 1 0 0 0 1.41 0l4.24-4.24a1 1 0 0 0 0-1.41l-2.61-2.61a12 12 0 0 0 .49-1.18H31a1 1 0 0 0 1-1v-6a1 1 0 0 0-1-1zm-1 6h-3.43a1 1 0 0 0-1 .73 10 10 0 0 1-.88 2.15 1 1 0 0 0 .17 1.19l2.42 2.42-2.83 2.83-2.38-2.42a1 1 0 0 0-1.2-.17 9.93 9.93 0 0 1-2.14.88 1 1 0 0 0-.73 1V30h-4v-3.42a1 1 0 0 0-.73-1 10 10 0 0 1-2.14-.88 1 1 0 0 0-1.2.17l-2.42 2.44-2.82-2.82 2.42-2.42a1 1 0 0 0 .17-1.2 9.94 9.94 0 0 1-.88-2.14 1 1 0 0 0-1-.73H2v-4h3.42a1 1 0 0 0 1-.73 9.94 9.94 0 0 1 .88-2.14 1 1 0 0 0-.17-1.2L4.69 7.51l2.82-2.82L9.93 7.1a1 1 0 0 0 1.2.17 10 10 0 0 1 2.14-.88 1 1 0 0 0 .73-1V2h4v3.42a1 1 0 0 0 .73 1 9.93 9.93 0 0 1 2.14.88 1 1 0 0 0 1.2-.17l2.42-2.42 2.83 2.83-2.42 2.39a1 1 0 0 0-.17 1.19 10 10 0 0 1 .88 2.15 1 1 0 0 0 1 .73H30z"/></symbol><symbol id="icon_share" viewBox="0 0 32 32" xmlns="http://www.w3.org/2000/svg"><defs><style>.bscls-1{fill:#010101}</style></defs><title>icon</title><path class="bscls-1" d="M31 3.53a1 1 0 0 0 0-.19 1 1 0 0 0 0-.13 1 1 0 0 0-.13-.21v-.11a1 1 0 0 0-.14-.15l-.1-.08H30a1 1 0 0 0-.23 0h-.08l-28 11.31a1 1 0 0 0 0 1.86L12 19.67v8.83a1 1 0 0 0 1.86.51l3.81-6.39 7 3.78a1 1 0 0 0 1.45-.67L31 3.72a.94.94 0 0 0 0-.19zm-5.81 3L12.74 17.82l-8-3zM14 24.87v-4.22l1.91 1zM24.44 24l-9.76-5.25 13.66-12.4z"/></symbol><symbol id="icon_show" viewBox="0 0 32 32" xmlns="http://www.w3.org/2000/svg"><defs><style>.btcls-1{fill:#010101}</style></defs><title>icon</title><path class="btcls-1" d="M31.78 15.38C31.5 15 24.67 6.5 16 6.5S.5 15 .22 15.38a1 1 0 0 0 0 1.25C.5 17 7.33 25.5 16 25.5s15.5-8.5 15.78-8.88a1 1 0 0 0 0-1.24zM16 23.5c-6.42 0-12-5.6-13.68-7.5C4 14.1 9.57 8.5 16 8.5s12 5.6 13.68 7.5C28 17.9 22.43 23.5 16 23.5zm0-13.73A6.23 6.23 0 1 0 22.22 16 6.23 6.23 0 0 0 16 9.77zm0 10.46A4.23 4.23 0 1 1 20.22 16 4.23 4.23 0 0 1 16 20.23z"/></symbol><symbol id="icon_thumbs-up" viewBox="0 0 32 32" xmlns="http://www.w3.org/2000/svg"><defs><style>.bucls-1{fill:#010101}</style></defs><title>icon</title><path class="bucls-1" d="M32 15.4a3.07 3.07 0 0 0-3-3.09h-9.68a37.71 37.71 0 0 0 1.09-7 4.65 4.65 0 0 0-1-3.16A3.15 3.15 0 0 0 17 1a2.58 2.58 0 0 0-2.7 2.57c0 6-4.86 10.13-9.23 10.13H1a1 1 0 0 0-1 1v12.52a1 1 0 0 0 1 1c6.18 0 8.2.88 10 1.66A10.8 10.8 0 0 0 16 31h8.86a3.07 3.07 0 0 0 3-3.09 3.11 3.11 0 0 0-.33-1.41 3.11 3.11 0 0 0 1.36-4.17 3.11 3.11 0 0 0 1.36-4.17A3.09 3.09 0 0 0 32 15.4zm-3 1.09h-1.41a1 1 0 0 0 0 2 1.09 1.09 0 0 1 0 2.17h-1.36a1 1 0 0 0 0 2 1.09 1.09 0 0 1 0 2.17h-1.37a1 1 0 0 0 0 2 1.09 1.09 0 0 1 0 2.17H16a8.9 8.9 0 0 1-4.22-1C10 27.28 7.84 26.32 2 26.23V15.7h3.09c5.31 0 11.23-5 11.23-12.13 0-.45.44-.57.7-.57a1.13 1.13 0 0 1 .86.42 2.81 2.81 0 0 1 .53 1.85 44.15 44.15 0 0 1-1.33 7.79 1 1 0 0 0 1 1.25H29a1.09 1.09 0 0 1 0 2.17z"/></symbol><symbol viewBox="0 0 80 80" id="icon_thumbs-up-large" xmlns="http://www.w3.org/2000/svg"><title>icon</title><path d="M57.5 39.24a1.33 1.33 0 0 1-1.31 1.36h-1.7a1.25 1.25 0 0 0 0 2.5 1.36 1.36 0 0 1 0 2.72h-1.7a1.25 1.25 0 0 0 0 2.5 1.36 1.36 0 0 1 0 2.72h-1.7a1.25 1.25 0 0 0 0 2.5 1.36 1.36 0 0 1 0 2.72H40a11.13 11.13 0 0 1-5.28-1.19c-2.2-1-4.92-2.16-12.22-2.28V39.62h3.86c6.64 0 14-6.23 14-15.16 0-.56.55-.71.87-.71a1.42 1.42 0 0 1 1.08.52 3.51 3.51 0 0 1 .69 2.31c0 3.28-1.65 9.67-1.66 9.74a1.25 1.25 0 0 0 1.21 1.56h13.64a1.33 1.33 0 0 1 1.31 1.36zM80 40A40 40 0 1 1 40 0a40 40 0 0 1 40 40zm-20-.76a3.84 3.84 0 0 0-3.81-3.86h-12a47.14 47.14 0 0 0 1.36-8.8 5.82 5.82 0 0 0-1.28-4 3.94 3.94 0 0 0-3-1.38 3.22 3.22 0 0 0-3.37 3.21c0 7.46-6.08 12.66-11.53 12.66h-5.12a1.25 1.25 0 0 0-1.25 1.3V54a1.25 1.25 0 0 0 1.25 1.25c7.73 0 10.25 1.1 12.47 2.08A13.5 13.5 0 0 0 40 58.75h11.08a3.84 3.84 0 0 0 3.81-3.86 3.89 3.89 0 0 0-.42-1.76 3.88 3.88 0 0 0 1.7-5.22 3.89 3.89 0 0 0 1.71-5.22A3.87 3.87 0 0 0 60 39.24z"/></symbol><symbol id="icon_trash" viewBox="0 0 32 32" xmlns="http://www.w3.org/2000/svg"><defs><style>.bwcls-1{fill:#010101}</style></defs><title>icon</title><path class="bwcls-1" d="M30 3.91h-8.56V1a1 1 0 0 0-1-1H10.26a1 1 0 0 0-1 1v2.91H2a1 1 0 0 0 0 2h2.19V31a1 1 0 0 0 1 1h20.4a1 1 0 0 0 1-1V5.91H30a1 1 0 0 0 0-2zM11.24 2h8.24v1.91h-8.24zm13.34 28H6.14V5.91h18.44z"/><path class="bwcls-1" d="M10.13 9.48a1 1 0 0 0-1 1v14.65a1 1 0 1 0 2 0V10.48a1 1 0 0 0-1-1zM15.35 9.48a1 1 0 0 0-1 1v14.65a1 1 0 0 0 2 0V10.48a1 1 0 0 0-1-1zM19.57 10.48v14.65a1 1 0 0 0 2 0V10.48a1 1 0 0 0-2 0z"/></symbol><symbol id="icon_warning" viewBox="0 0 32 32" xmlns="http://www.w3.org/2000/svg"><defs><style>.bxcls-1{fill:#010101}</style></defs><title>icon</title><path class="bxcls-1" d="M27.25 4.5A15.54 15.54 0 0 0 16 0 16.29 16.29 0 0 0 4.63 4.88 15.73 15.73 0 0 0 0 16.28 15.7 15.7 0 0 0 15.73 32H16a16.15 16.15 0 0 0 16-16.28A16.06 16.06 0 0 0 27.25 4.5zM16 30A13.73 13.73 0 0 1 2 16.24a13.74 13.74 0 0 1 4-10A14.3 14.3 0 0 1 16 2h.25a13.52 13.52 0 0 1 9.58 3.92A14.09 14.09 0 0 1 16 30zm-1-12V8.5a1 1 0 0 1 2 0V18a1 1 0 0 1-2 0zm2.68 4.77A1.68 1.68 0 1 1 16 21.13a1.68 1.68 0 0 1 1.68 1.68z"/></symbol><symbol id="icon_warning-small-filled" viewBox="0 0 16 16" xmlns="http://www.w3.org/2000/svg"><defs><style>.bycls-1{fill:#1d1d1b}</style></defs><title>icon</title><path class="bycls-1" d="M8 0a8 8 0 1 0 8 8 8 8 0 0 0-8-8zM7 3.5a1 1 0 1 1 2 0v5a1 1 0 0 1-2 0zm1 10A1.5 1.5 0 1 1 9.5 12 1.5 1.5 0 0 1 8 13.5z"/></symbol></svg>