<svg xmlns="http://www.w3.org/2000/svg" width="256" height="256" viewBox="0 0 256 256">
  <g fill="none" fill-rule="evenodd">
    <rect width="256" height="256" fill="#3383FE"/>
    <path fill="#E6F0FF" d="M223.857718,237.529976 C204.471695,227.824601 171.328166,213.111238 171.015273,213.111238 C170.077484,195.580156 159.134236,192.449159 159.134236,192.449159 L158.498643,184.668972 C181.324711,181.318413 195.091131,172.100359 195.091131,172.100359 C195.091131,172.100359 188.212824,169.595919 181.020732,145.803736 C173.829531,122.011554 186.336355,89.1396599 162.57339,62.5297591 C149.984554,48.4331342 137.220997,46.1973456 128,47.2121527 C118.779003,46.1973456 106.015446,48.4331342 93.4266105,62.5297591 C69.6627538,89.1396599 82.1704691,122.011554 74.9783768,145.803736 C67.787176,169.595919 60.9079772,172.100359 60.9079772,172.100359 C60.9079772,172.100359 74.6743977,181.318413 97.5013569,184.668972 L96.8657642,192.449159 C96.8657642,192.449159 85.9225162,195.580156 84.9838358,213.111238 C84.6718338,213.111238 51.528305,227.824601 32.1422824,237.529976 C21.2890693,242.963701 16.7097711,250.455601 15,256 L241,256 C239.290229,250.455601 234.710931,242.963701 223.857718,237.529976"/>
  </g>
</svg>
