<svg xmlns="http://www.w3.org/2000/svg" width="256" height="256" viewBox="0 0 256 256">
  <g fill="none" fill-rule="evenodd">
    <rect width="256" height="256" fill="#3383FE"/>
    <path fill="#E6F0FF" d="M81.9983101,120.217725 C81.933107,118.750521 81.9,117.270599 81.9,115.779431 C81.9,78.3458848 91.9496419,48 128.5,48 C165.050358,48 175.1,78.3458848 175.1,115.779431 C175.1,117.269365 175.066948,118.74807 175.001852,120.214081 C175.076254,120.213748 175.150667,120.213414 175.225093,120.21308 C177.52238,120.022866 179.745445,122.358035 178.35603,133.631536 C176.690541,147.135896 172.432684,150.201243 169.786911,150.450187 C164.861049,167.634366 157.580874,175.753111 158.228061,175.753111 C159.180285,175.753111 158.17314,193.892745 158.17314,193.892745 L169.340669,196.660061 C169.340669,196.660061 167.118509,200.963995 169.340669,206.498625 C171.562829,212.03238 173.784988,214.185223 173.784988,214.185223 C173.784988,214.185223 184.579887,219.104506 213.153873,231.402712 C226.861565,237.30287 239.834271,246.317464 245,256 L12,256 C17.1657291,246.317464 30.1375294,237.30287 43.8461273,231.402712 C72.4201131,219.104506 83.2141065,214.185223 83.2141065,214.185223 C83.2141065,214.185223 85.4362661,212.03238 87.6584257,206.498625 C89.8814905,200.963995 87.6584257,196.660061 87.6584257,196.660061 L98.8259546,193.892745 C98.8259546,193.892745 97.8188094,175.753111 98.7710342,175.753111 C99.4191264,175.753111 92.13171,167.629107 87.2067525,150.432656 C84.5537383,150.095179 80.4081208,146.918507 78.7697872,133.631536 C77.3593517,122.196722 79.6660903,119.952223 81.9983101,120.217725 Z"/>
  </g>
</svg>
