<svg xmlns="http://www.w3.org/2000/svg" width="256" height="256" viewBox="0 0 256 256">
  <g fill="none" fill-rule="evenodd">
    <rect width="256" height="256" fill="#3383FE"/>
    <path fill="#E6F0FF" d="M172.789821,125.286248 C172.833297,125.286053 172.876777,125.285858 172.920261,125.285662 C175.128812,125.102554 177.266007,127.350488 175.93026,138.202846 C174.329104,151.202724 170.235714,154.15356 167.692138,154.393204 C162.956545,170.935435 155.957578,178.750888 156.579766,178.750888 C157.49521,178.750888 156.526967,196.212881 156.526967,196.212881 L167.263133,198.876819 C167.263133,198.876819 165.126807,203.019971 167.263133,208.347845 C169.399458,213.674875 171.535783,215.747295 171.535783,215.747295 C171.535783,215.747295 181.913711,220.482808 209.383981,232.321591 C222.562192,238.001337 235.033805,246.679174 240,256 L16,256 C20.9661945,246.679174 33.4369382,238.001337 46.6160193,232.321591 C74.086289,220.482808 84.463347,215.747295 84.463347,215.747295 C84.463347,215.747295 86.5996721,213.674875 88.7359973,208.347845 C90.8731926,203.019971 88.7359973,198.876819 88.7359973,198.876819 L99.4721624,196.212881 C99.4721624,196.212881 98.5039198,178.750888 99.4193634,178.750888 C100.042422,178.750888 93.0364937,170.930372 88.3017707,154.376328 C85.7512334,154.051457 81.765747,150.993457 80.1906967,138.202846 C78.8347416,127.195201 81.0523787,125.03455 83.2945127,125.290134 C83.2464705,124.207658 83.216553,123.117991 83.2051976,122.021771 C79.2459072,114.778295 76.7552858,105.70254 75.7333333,94.7945077 C74.4888889,81.5116581 76.2,67.9269256 80.8666667,54.0403102 C85.5333333,58.2666714 95.0222222,57.9647884 109.333333,53.1346613 C130.8,45.8894707 157.866667,45.8894707 164.4,55.8516078 C168.755556,62.4930326 170,68.2288086 168.133333,73.0589357 C179.955556,80.9078922 184.311111,90.8700294 181.2,102.945347 C179.012078,111.437441 176.208685,118.884408 172.789821,125.286248 Z"/>
  </g>
</svg>
